0
SECTION
2
HEADER
0
ENDSEC
0
SECTION
2
BLOCKS
0
BLOCK
2
Cube_001
8
Meshes
70
64
10
0.0
20
0.0
30
0.0
3
Cube_001
0
POLYLINE
66
1
8
Meshes
70
64
71
80
72
78
0
VERTEX
8
Meshes
10
15.462870
20
4.058256
30
2.729703
70
192
0
VERTEX
8
Meshes
10
15.462870
20
-0.108006
30
2.729703
70
192
0
VERTEX
8
Meshes
10
13.399213
20
-0.362860
30
2.093128
70
192
0
VERTEX
8
Meshes
10
13.399213
20
4.058256
30
2.093128
70
192
0
VERTEX
8
Meshes
10
15.462871
20
4.058255
30
8.563512
70
192
0
VERTEX
8
Meshes
10
15.462869
20
-0.108006
30
8.563512
70
192
0
VERTEX
8
Meshes
10
13.462870
20
-0.362859
30
9.963976
70
192
0
VERTEX
8
Meshes
10
13.462870
20
4.058256
30
9.963976
70
192
0
VERTEX
8
Meshes
10
12.825734
20
4.058256
30
9.963976
70
192
0
VERTEX
8
Meshes
10
12.889448
20
-1.127422
30
9.963976
70
192
0
VERTEX
8
Meshes
10
12.762077
20
4.058256
30
1.583869
70
192
0
VERTEX
8
Meshes
10
12.825791
20
-1.127423
30
1.583869
70
192
0
VERTEX
8
Meshes
10
10.914719
20
-1.150121
30
1.201924
70
192
0
VERTEX
8
Meshes
10
10.851005
20
4.035558
30
1.201924
70
192
0
VERTEX
8
Meshes
10
10.914719
20
-1.150120
30
10.218606
70
192
0
VERTEX
8
Meshes
10
10.851005
20
4.035557
30
10.218606
70
192
0
VERTEX
8
Meshes
10
10.341372
20
4.857572
30
10.218606
70
192
0
VERTEX
8
Meshes
10
10.405087
20
-1.156382
30
10.218606
70
192
0
VERTEX
8
Meshes
10
10.341372
20
4.857573
30
1.201924
70
192
0
VERTEX
8
Meshes
10
10.405087
20
-1.156382
30
1.201924
70
192
0
VERTEX
8
Meshes
10
2.507535
20
-1.221169
30
1.265581
70
192
0
VERTEX
8
Meshes
10
2.443821
20
4.792787
30
1.265581
70
192
0
VERTEX
8
Meshes
10
2.507535
20
-1.221168
30
10.282264
70
192
0
VERTEX
8
Meshes
10
2.443821
20
4.792786
30
10.282264
70
192
0
VERTEX
8
Meshes
10
1.869113
20
4.149562
30
10.282264
70
192
0
VERTEX
8
Meshes
10
1.932827
20
-1.227257
30
10.282264
70
192
0
VERTEX
8
Meshes
10
1.869113
20
4.149562
30
1.265581
70
192
0
VERTEX
8
Meshes
10
1.932827
20
-1.227257
30
1.265581
70
192
0
VERTEX
8
Meshes
10
0.658735
20
-1.242355
30
1.265581
70
192
0
VERTEX
8
Meshes
10
0.595021
20
4.134464
30
1.265581
70
192
0
VERTEX
8
Meshes
10
0.658735
20
-1.242355
30
10.282264
70
192
0
VERTEX
8
Meshes
10
0.595021
20
4.134464
30
10.282264
70
192
0
VERTEX
8
Meshes
10
-3.821406
20
3.010450
30
9.075443
70
192
0
VERTEX
8
Meshes
10
-3.821406
20
0.117368
30
9.075443
70
192
0
VERTEX
8
Meshes
10
-3.821406
20
3.010450
30
2.345086
70
192
0
VERTEX
8
Meshes
10
-3.821406
20
0.117368
30
2.345086
70
192
0
VERTEX
8
Meshes
10
-4.366425
20
0.117368
30
2.345086
70
192
0
VERTEX
8
Meshes
10
-4.366425
20
3.010450
30
2.345086
70
192
0
VERTEX
8
Meshes
10
-4.366425
20
0.117368
30
9.075443
70
192
0
VERTEX
8
Meshes
10
-4.366425
20
3.010450
30
9.075443
70
192
0
VERTEX
8
Meshes
10
-3.155977
20
2.894989
30
9.839873
70
192
0
VERTEX
8
Meshes
10
-3.155977
20
0.354183
30
9.839873
70
192
0
VERTEX
8
Meshes
10
-2.677323
20
0.354183
30
9.839873
70
192
0
VERTEX
8
Meshes
10
-2.677324
20
2.894989
30
9.839873
70
192
0
VERTEX
8
Meshes
10
0.972709
20
3.845027
30
11.237967
70
192
0
VERTEX
8
Meshes
10
1.028497
20
-0.862970
30
11.237967
70
192
0
VERTEX
8
Meshes
10
2.144105
20
-0.849750
30
11.237967
70
192
0
VERTEX
8
Meshes
10
2.088317
20
3.858246
30
11.237967
70
192
0
VERTEX
8
Meshes
10
2.591537
20
4.421460
30
11.237967
70
192
0
VERTEX
8
Meshes
10
2.647326
20
-0.844419
30
11.237967
70
192
0
VERTEX
8
Meshes
10
9.784214
20
-0.787691
30
11.174310
70
192
0
VERTEX
8
Meshes
10
9.728426
20
4.478187
30
11.174310
70
192
0
VERTEX
8
Meshes
10
10.174664
20
3.758423
30
11.174310
70
192
0
VERTEX
8
Meshes
10
10.230453
20
-0.782209
30
11.174310
70
192
0
VERTEX
8
Meshes
10
11.975383
20
-0.762334
30
10.919680
70
192
0
VERTEX
8
Meshes
10
11.919595
20
3.778298
30
10.919680
70
192
0
VERTEX
8
Meshes
10
12.477477
20
3.778298
30
10.919680
70
192
0
VERTEX
8
Meshes
10
12.477477
20
-0.092875
30
10.919680
70
192
0
VERTEX
8
Meshes
10
14.228696
20
0.130277
30
9.519216
70
192
0
VERTEX
8
Meshes
10
14.228696
20
3.778297
30
9.519216
70
192
0
VERTEX
8
Meshes
10
-3.250415
20
2.907948
30
1.644370
70
192
0
VERTEX
8
Meshes
10
-3.250415
20
0.331733
30
1.644370
70
192
0
VERTEX
8
Meshes
10
-2.765089
20
0.331733
30
1.644370
70
192
0
VERTEX
8
Meshes
10
-2.765089
20
2.907948
30
1.644370
70
192
0
VERTEX
8
Meshes
10
0.935657
20
3.873421
30
0.373591
70
192
0
VERTEX
8
Meshes
10
0.992223
20
-0.900188
30
0.373591
70
192
0
VERTEX
8
Meshes
10
2.123379
20
-0.886784
30
0.373591
70
192
0
VERTEX
8
Meshes
10
2.066813
20
3.886825
30
0.373591
70
192
0
VERTEX
8
Meshes
10
2.577045
20
4.457888
30
0.373591
70
192
0
VERTEX
8
Meshes
10
2.633612
20
-0.881379
30
0.373591
70
192
0
VERTEX
8
Meshes
10
9.845123
20
-0.823861
30
0.309934
70
192
0
VERTEX
8
Meshes
10
9.788557
20
4.515406
30
0.309934
70
192
0
VERTEX
8
Meshes
10
10.241014
20
3.785611
30
0.309934
70
192
0
VERTEX
8
Meshes
10
10.297581
20
-0.818302
30
0.309934
70
192
0
VERTEX
8
Meshes
10
12.001398
20
-0.798150
30
0.691878
70
192
0
VERTEX
8
Meshes
10
11.944832
20
3.805763
30
0.691878
70
192
0
VERTEX
8
Meshes
10
12.510489
20
3.805763
30
0.691878
70
192
0
VERTEX
8
Meshes
10
12.510489
20
-0.119361
30
0.691878
70
192
0
VERTEX
8
Meshes
10
14.349771
20
0.106902
30
1.837713
70
192
0
VERTEX
8
Meshes
10
14.349771
20
3.805762
30
1.837713
70
192
0
VERTEX
8
Meshes
62
254
10
0.0
20
0.0
30
0.0
70
128
71
1
72
5
73
6
74
2
0
VERTEX
8
Meshes
62
254
10
0.0
20
0.0
30
0.0
70
128
71
2
72
6
73
7
74
3
0
VERTEX
8
Meshes
62
254
10
0.0
20
0.0
30
0.0
70
128
71
5
72
1
73
4
74
8
0
VERTEX
8
Meshes
62
254
10
0.0
20
0.0
30
0.0
70
128
71
8
72
4
73
11
74
9
0
VERTEX
8
Meshes
62
254
10
0.0
20
0.0
30
0.0
70
128
71
3
72
7
73
10
74
12
0
VERTEX
8
Meshes
62
254
10
0.0
20
0.0
30
0.0
70
128
71
12
72
10
73
15
74
13
0
VERTEX
8
Meshes
62
254
10
0.0
20
0.0
30
0.0
70
128
71
9
72
11
73
14
74
16
0
VERTEX
8
Meshes
62
254
10
0.0
20
0.0
30
0.0
70
128
71
16
72
14
73
19
74
17
0
VERTEX
8
Meshes
62
254
10
0.0
20
0.0
30
0.0
70
128
71
13
72
15
73
18
74
20
0
VERTEX
8
Meshes
62
254
10
0.0
20
0.0
30
0.0
70
128
71
20
72
18
73
23
74
21
0
VERTEX
8
Meshes
62
254
10
0.0
20
0.0
30
0.0
70
128
71
17
72
19
73
22
74
24
0
VERTEX
8
Meshes
62
254
10
0.0
20
0.0
30
0.0
70
128
71
24
72
22
73
27
74
25
0
VERTEX
8
Meshes
62
254
10
0.0
20
0.0
30
0.0
70
128
71
21
72
23
73
26
74
28
0
VERTEX
8
Meshes
62
254
10
0.0
20
0.0
30
0.0
70
128
71
28
72
26
73
31
74
29
0
VERTEX
8
Meshes
62
254
10
0.0
20
0.0
30
0.0
70
128
71
25
72
27
73
30
74
32
0
VERTEX
8
Meshes
62
254
10
0.0
20
0.0
30
0.0
70
128
71
32
72
30
73
35
74
33
0
VERTEX
8
Meshes
62
254
10
0.0
20
0.0
30
0.0
70
128
71
29
72
31
73
34
74
36
0
VERTEX
8
Meshes
62
254
10
0.0
20
0.0
30
0.0
70
128
71
36
72
34
73
39
74
37
0
VERTEX
8
Meshes
62
254
10
0.0
20
0.0
30
0.0
70
128
71
33
72
35
73
38
74
40
0
VERTEX
8
Meshes
62
254
10
0.0
20
0.0
30
0.0
70
128
71
37
72
39
73
40
74
38
0
VERTEX
8
Meshes
62
254
10
0.0
20
0.0
30
0.0
70
128
71
39
72
34
73
43
74
42
0
VERTEX
8
Meshes
62
254
10
0.0
20
0.0
30
0.0
70
128
71
40
72
39
73
42
74
41
0
VERTEX
8
Meshes
62
254
10
0.0
20
0.0
30
0.0
70
128
71
33
72
40
73
41
74
44
0
VERTEX
8
Meshes
62
254
10
0.0
20
0.0
30
0.0
70
128
71
34
72
31
73
46
74
43
0
VERTEX
8
Meshes
62
254
10
0.0
20
0.0
30
0.0
70
128
71
32
72
33
73
44
74
45
0
VERTEX
8
Meshes
62
254
10
0.0
20
0.0
30
0.0
70
128
71
31
72
26
73
47
74
46
0
VERTEX
8
Meshes
62
254
10
0.0
20
0.0
30
0.0
70
128
71
25
72
32
73
45
74
48
0
VERTEX
8
Meshes
62
254
10
0.0
20
0.0
30
0.0
70
128
71
26
72
23
73
50
74
47
0
VERTEX
8
Meshes
62
254
10
0.0
20
0.0
30
0.0
70
128
71
24
72
25
73
48
74
49
0
VERTEX
8
Meshes
62
254
10
0.0
20
0.0
30
0.0
70
128
71
23
72
18
73
51
74
50
0
VERTEX
8
Meshes
62
254
10
0.0
20
0.0
30
0.0
70
128
71
17
72
24
73
49
74
52
0
VERTEX
8
Meshes
62
254
10
0.0
20
0.0
30
0.0
70
128
71
18
72
15
73
54
74
51
0
VERTEX
8
Meshes
62
254
10
0.0
20
0.0
30
0.0
70
128
71
16
72
17
73
52
74
53
0
VERTEX
8
Meshes
62
254
10
0.0
20
0.0
30
0.0
70
128
71
15
72
10
73
55
74
54
0
VERTEX
8
Meshes
62
254
10
0.0
20
0.0
30
0.0
70
128
71
9
72
16
73
53
74
56
0
VERTEX
8
Meshes
62
254
10
0.0
20
0.0
30
0.0
70
128
71
10
72
7
73
58
74
55
0
VERTEX
8
Meshes
62
254
10
0.0
20
0.0
30
0.0
70
128
71
8
72
9
73
56
74
57
0
VERTEX
8
Meshes
62
254
10
0.0
20
0.0
30
0.0
70
128
71
6
72
5
73
60
74
59
0
VERTEX
8
Meshes
62
254
10
0.0
20
0.0
30
0.0
70
128
71
7
72
6
73
59
74
58
0
VERTEX
8
Meshes
62
254
10
0.0
20
0.0
30
0.0
70
128
71
5
72
8
73
57
74
60
0
VERTEX
8
Meshes
62
254
10
0.0
20
0.0
30
0.0
70
128
71
60
72
57
73
58
74
59
0
VERTEX
8
Meshes
62
254
10
0.0
20
0.0
30
0.0
70
128
71
58
72
57
73
56
74
55
0
VERTEX
8
Meshes
62
254
10
0.0
20
0.0
30
0.0
70
128
71
55
72
56
73
53
74
54
0
VERTEX
8
Meshes
62
254
10
0.0
20
0.0
30
0.0
70
128
71
54
72
53
73
52
74
51
0
VERTEX
8
Meshes
62
254
10
0.0
20
0.0
30
0.0
70
128
71
51
72
52
73
49
74
50
0
VERTEX
8
Meshes
62
254
10
0.0
20
0.0
30
0.0
70
128
71
50
72
49
73
48
74
47
0
VERTEX
8
Meshes
62
254
10
0.0
20
0.0
30
0.0
70
128
71
47
72
48
73
45
74
46
0
VERTEX
8
Meshes
62
254
10
0.0
20
0.0
30
0.0
70
128
71
46
72
45
73
44
74
43
0
VERTEX
8
Meshes
62
254
10
0.0
20
0.0
30
0.0
70
128
71
43
72
44
73
41
74
42
0
VERTEX
8
Meshes
62
254
10
0.0
20
0.0
30
0.0
70
128
71
38
72
35
73
64
74
61
0
VERTEX
8
Meshes
62
254
10
0.0
20
0.0
30
0.0
70
128
71
37
72
38
73
61
74
62
0
VERTEX
8
Meshes
62
254
10
0.0
20
0.0
30
0.0
70
128
71
36
72
37
73
62
74
63
0
VERTEX
8
Meshes
62
254
10
0.0
20
0.0
30
0.0
70
128
71
29
72
36
73
63
74
66
0
VERTEX
8
Meshes
62
254
10
0.0
20
0.0
30
0.0
70
128
71
35
72
30
73
65
74
64
0
VERTEX
8
Meshes
62
254
10
0.0
20
0.0
30
0.0
70
128
71
30
72
27
73
68
74
65
0
VERTEX
8
Meshes
62
254
10
0.0
20
0.0
30
0.0
70
128
71
28
72
29
73
66
74
67
0
VERTEX
8
Meshes
62
254
10
0.0
20
0.0
30
0.0
70
128
71
21
72
28
73
67
74
70
0
VERTEX
8
Meshes
62
254
10
0.0
20
0.0
30
0.0
70
128
71
27
72
22
73
69
74
68
0
VERTEX
8
Meshes
62
254
10
0.0
20
0.0
30
0.0
70
128
71
22
72
19
73
72
74
69
0
VERTEX
8
Meshes
62
254
10
0.0
20
0.0
30
0.0
70
128
71
20
72
21
73
70
74
71
0
VERTEX
8
Meshes
62
254
10
0.0
20
0.0
30
0.0
70
128
71
13
72
20
73
71
74
74
0
VERTEX
8
Meshes
62
254
10
0.0
20
0.0
30
0.0
70
128
71
19
72
14
73
73
74
72
0
VERTEX
8
Meshes
62
254
10
0.0
20
0.0
30
0.0
70
128
71
14
72
11
73
76
74
73
0
VERTEX
8
Meshes
62
254
10
0.0
20
0.0
30
0.0
70
128
71
12
72
13
73
74
74
75
0
VERTEX
8
Meshes
62
254
10
0.0
20
0.0
30
0.0
70
128
71
3
72
12
73
75
74
78
0
VERTEX
8
Meshes
62
254
10
0.0
20
0.0
30
0.0
70
128
71
11
72
4
73
77
74
76
0
VERTEX
8
Meshes
62
254
10
0.0
20
0.0
30
0.0
70
128
71
4
72
1
73
80
74
77
0
VERTEX
8
Meshes
62
254
10
0.0
20
0.0
30
0.0
70
128
71
2
72
3
73
78
74
79
0
VERTEX
8
Meshes
62
254
10
0.0
20
0.0
30
0.0
70
128
71
1
72
2
73
79
74
80
0
VERTEX
8
Meshes
62
254
10
0.0
20
0.0
30
0.0
70
128
71
80
72
79
73
78
74
77
0
VERTEX
8
Meshes
62
254
10
0.0
20
0.0
30
0.0
70
128
71
77
72
78
73
75
74
76
0
VERTEX
8
Meshes
62
254
10
0.0
20
0.0
30
0.0
70
128
71
76
72
75
73
74
74
73
0
VERTEX
8
Meshes
62
254
10
0.0
20
0.0
30
0.0
70
128
71
73
72
74
73
71
74
72
0
VERTEX
8
Meshes
62
254
10
0.0
20
0.0
30
0.0
70
128
71
72
72
71
73
70
74
69
0
VERTEX
8
Meshes
62
254
10
0.0
20
0.0
30
0.0
70
128
71
69
72
70
73
67
74
68
0
VERTEX
8
Meshes
62
254
10
0.0
20
0.0
30
0.0
70
128
71
68
72
67
73
66
74
65
0
VERTEX
8
Meshes
62
254
10
0.0
20
0.0
30
0.0
70
128
71
65
72
66
73
63
74
64
0
VERTEX
8
Meshes
62
254
10
0.0
20
0.0
30
0.0
70
128
71
64
72
63
73
62
74
61
0
SEQEND
0
ENDBLK
0
BLOCK
2
Cube_002
8
Meshes
70
64
10
0.0
20
0.0
30
0.0
3
Cube_002
0
POLYLINE
66
1
8
Meshes
70
64
71
160
72
156
0
VERTEX
8
Meshes
10
-0.583659
20
0.531226
30
-3.504125
70
192
0
VERTEX
8
Meshes
10
-0.583659
20
-0.000329
30
-3.504125
70
192
0
VERTEX
8
Meshes
10
-1.115214
20
-0.000328
30
-3.504125
70
192
0
VERTEX
8
Meshes
10
-1.115214
20
0.531226
30
-3.504125
70
192
0
VERTEX
8
Meshes
10
-0.583659
20
0.531226
30
0.265777
70
192
0
VERTEX
8
Meshes
10
-0.583659
20
-0.000329
30
0.265777
70
192
0
VERTEX
8
Meshes
10
-1.115214
20
-0.000329
30
0.265777
70
192
0
VERTEX
8
Meshes
10
-1.115214
20
0.531226
30
0.265777
70
192
0
VERTEX
8
Meshes
10
0.584316
20
-0.318868
30
0.265777
70
192
0
VERTEX
8
Meshes
10
0.584316
20
0.212687
30
0.265777
70
192
0
VERTEX
8
Meshes
10
0.584316
20
-0.318868
30
-3.504125
70
192
0
VERTEX
8
Meshes
10
0.584316
20
0.212687
30
-3.504125
70
192
0
VERTEX
8
Meshes
10
2.230100
20
-0.636750
30
-3.504125
70
192
0
VERTEX
8
Meshes
10
2.230100
20
-1.168305
30
-3.504125
70
192
0
VERTEX
8
Meshes
10
2.230100
20
-0.636750
30
0.265778
70
192
0
VERTEX
8
Meshes
10
2.230099
20
-1.168305
30
0.265778
70
192
0
VERTEX
8
Meshes
10
6.371102
20
-1.168307
30
0.265779
70
192
0
VERTEX
8
Meshes
10
6.371103
20
-0.636752
30
0.265779
70
192
0
VERTEX
8
Meshes
10
6.371103
20
-1.168307
30
-3.504123
70
192
0
VERTEX
8
Meshes
10
6.371103
20
-0.636752
30
-3.504123
70
192
0
VERTEX
8
Meshes
10
17.413778
20
-0.636762
30
-3.504113
70
192
0
VERTEX
8
Meshes
10
17.413778
20
-1.168316
30
-3.504113
70
192
0
VERTEX
8
Meshes
10
17.413778
20
-0.636762
30
0.265789
70
192
0
VERTEX
8
Meshes
10
17.413776
20
-1.168317
30
0.265789
70
192
0
VERTEX
8
Meshes
10
23.094383
20
-1.168327
30
0.265800
70
192
0
VERTEX
8
Meshes
10
23.094385
20
-0.636772
30
0.265800
70
192
0
VERTEX
8
Meshes
10
23.094385
20
-1.168327
30
-3.504103
70
192
0
VERTEX
8
Meshes
10
23.094385
20
-0.636772
30
-3.504103
70
192
0
VERTEX
8
Meshes
10
29.305891
20
-0.636783
30
-3.504092
70
192
0
VERTEX
8
Meshes
10
29.305891
20
-1.168338
30
-3.504092
70
192
0
VERTEX
8
Meshes
10
29.305891
20
-0.636783
30
0.265811
70
192
0
VERTEX
8
Meshes
10
29.305889
20
-1.168338
30
0.265811
70
192
0
VERTEX
8
Meshes
10
32.597458
20
-1.380703
30
0.265817
70
192
0
VERTEX
8
Meshes
10
32.597458
20
-0.849148
30
0.265817
70
192
0
VERTEX
8
Meshes
10
32.597458
20
-1.380703
30
-3.504086
70
192
0
VERTEX
8
Meshes
10
32.597458
20
-0.849148
30
-3.504086
70
192
0
VERTEX
8
Meshes
10
33.926617
20
-2.283938
30
-3.504086
70
192
0
VERTEX
8
Meshes
10
33.604244
20
-2.706582
30
-3.504086
70
192
0
VERTEX
8
Meshes
10
33.926617
20
-2.283938
30
0.265817
70
192
0
VERTEX
8
Meshes
10
33.604244
20
-2.706582
30
0.265817
70
192
0
VERTEX
8
Meshes
10
33.515553
20
-4.459027
30
0.265816
70
192
0
VERTEX
8
Meshes
10
34.038898
20
-4.552068
30
0.265816
70
192
0
VERTEX
8
Meshes
10
33.515553
20
-4.459027
30
-3.504086
70
192
0
VERTEX
8
Meshes
10
34.038898
20
-4.552068
30
-3.504086
70
192
0
VERTEX
8
Meshes
10
32.010635
20
-6.100853
30
-3.504087
70
192
0
VERTEX
8
Meshes
10
31.758791
20
-5.632748
30
-3.504087
70
192
0
VERTEX
8
Meshes
10
32.010635
20
-6.100853
30
0.265816
70
192
0
VERTEX
8
Meshes
10
31.758791
20
-5.632748
30
0.265816
70
192
0
VERTEX
8
Meshes
10
29.075605
20
-6.007453
30
0.265816
70
192
0
VERTEX
8
Meshes
10
29.053188
20
-6.538532
30
0.265816
70
192
0
VERTEX
8
Meshes
10
29.075605
20
-6.007453
30
-3.504087
70
192
0
VERTEX
8
Meshes
10
29.053188
20
-6.538532
30
-3.504087
70
192
0
VERTEX
8
Meshes
10
22.757679
20
-6.650249
30
-3.504086
70
192
0
VERTEX
8
Meshes
10
22.780096
20
-6.119170
30
-3.504086
70
192
0
VERTEX
8
Meshes
10
22.757679
20
-6.650249
30
0.265817
70
192
0
VERTEX
8
Meshes
10
22.780096
20
-6.119170
30
0.265817
70
192
0
VERTEX
8
Meshes
10
15.204752
20
-6.153113
30
0.265817
70
192
0
VERTEX
8
Meshes
10
15.182335
20
-6.684192
30
0.265817
70
192
0
VERTEX
8
Meshes
10
15.204752
20
-6.153113
30
-3.504086
70
192
0
VERTEX
8
Meshes
10
15.182335
20
-6.684192
30
-3.504086
70
192
0
VERTEX
8
Meshes
10
1.928680
20
-6.610666
30
-3.504086
70
192
0
VERTEX
8
Meshes
10
1.951097
20
-6.079587
30
-3.504086
70
192
0
VERTEX
8
Meshes
10
1.928680
20
-6.610666
30
0.265817
70
192
0
VERTEX
8
Meshes
10
1.951097
20
-6.079587
30
0.265817
70
192
0
VERTEX
8
Meshes
10
-2.969826
20
-3.450170
30
0.265817
70
192
0
VERTEX
8
Meshes
10
-3.485624
20
-3.578622
30
0.265817
70
192
0
VERTEX
8
Meshes
10
-2.969826
20
-3.450170
30
-3.504086
70
192
0
VERTEX
8
Meshes
10
-3.485624
20
-3.578622
30
-3.504086
70
192
0
VERTEX
8
Meshes
10
-3.763636
20
-1.213285
30
-3.504086
70
192
0
VERTEX
8
Meshes
10
-3.250880
20
-1.353390
30
-3.504086
70
192
0
VERTEX
8
Meshes
10
-3.763636
20
-1.213285
30
0.265817
70
192
0
VERTEX
8
Meshes
10
-3.250880
20
-1.353390
30
0.265817
70
192
0
VERTEX
8
Meshes
10
-1.998585
20
0.040775
30
0.265817
70
192
0
VERTEX
8
Meshes
10
-2.314035
20
0.468607
30
0.265817
70
192
0
VERTEX
8
Meshes
10
-1.998585
20
0.040775
30
-3.504086
70
192
0
VERTEX
8
Meshes
10
-2.314035
20
0.468607
30
-3.504086
70
192
0
VERTEX
8
Meshes
10
-1.118752
20
0.533919
30
-3.504086
70
192
0
VERTEX
8
Meshes
10
-1.116446
20
0.002371
30
-3.504086
70
192
0
VERTEX
8
Meshes
10
-1.118752
20
0.533918
30
0.265817
70
192
0
VERTEX
8
Meshes
10
-1.116446
20
0.002371
30
0.265817
70
192
0
VERTEX
8
Meshes
10
-1.116446
20
0.002371
30
14.292838
70
192
0
VERTEX
8
Meshes
10
-1.118752
20
0.533919
30
14.292838
70
192
0
VERTEX
8
Meshes
10
-1.116446
20
0.002371
30
10.522935
70
192
0
VERTEX
8
Meshes
10
-1.118752
20
0.533919
30
10.522935
70
192
0
VERTEX
8
Meshes
10
-2.314035
20
0.468607
30
10.522935
70
192
0
VERTEX
8
Meshes
10
-1.998585
20
0.040776
30
10.522935
70
192
0
VERTEX
8
Meshes
10
-2.314035
20
0.468607
30
14.292838
70
192
0
VERTEX
8
Meshes
10
-1.998585
20
0.040776
30
14.292838
70
192
0
VERTEX
8
Meshes
10
-3.250880
20
-1.353390
30
14.292837
70
192
0
VERTEX
8
Meshes
10
-3.763636
20
-1.213285
30
14.292837
70
192
0
VERTEX
8
Meshes
10
-3.250880
20
-1.353390
30
10.522935
70
192
0
VERTEX
8
Meshes
10
-3.763636
20
-1.213285
30
10.522935
70
192
0
VERTEX
8
Meshes
10
-3.485624
20
-3.578621
30
10.522935
70
192
0
VERTEX
8
Meshes
10
-2.969826
20
-3.450169
30
10.522935
70
192
0
VERTEX
8
Meshes
10
-3.485624
20
-3.578621
30
14.292837
70
192
0
VERTEX
8
Meshes
10
-2.969826
20
-3.450169
30
14.292837
70
192
0
VERTEX
8
Meshes
10
1.951097
20
-6.079587
30
14.292837
70
192
0
VERTEX
8
Meshes
10
1.928680
20
-6.610666
30
14.292837
70
192
0
VERTEX
8
Meshes
10
1.951097
20
-6.079587
30
10.522935
70
192
0
VERTEX
8
Meshes
10
1.928680
20
-6.610666
30
10.522935
70
192
0
VERTEX
8
Meshes
10
15.182335
20
-6.684192
30
10.522935
70
192
0
VERTEX
8
Meshes
10
15.204752
20
-6.153112
30
10.522935
70
192
0
VERTEX
8
Meshes
10
15.182335
20
-6.684192
30
14.292838
70
192
0
VERTEX
8
Meshes
10
15.204752
20
-6.153112
30
14.292838
70
192
0
VERTEX
8
Meshes
10
22.780096
20
-6.119170
30
14.292837
70
192
0
VERTEX
8
Meshes
10
22.757679
20
-6.650249
30
14.292837
70
192
0
VERTEX
8
Meshes
10
22.780096
20
-6.119170
30
10.522935
70
192
0
VERTEX
8
Meshes
10
22.757679
20
-6.650249
30
10.522935
70
192
0
VERTEX
8
Meshes
10
29.053188
20
-6.538532
30
10.522934
70
192
0
VERTEX
8
Meshes
10
29.075605
20
-6.007452
30
10.522934
70
192
0
VERTEX
8
Meshes
10
29.053188
20
-6.538532
30
14.292837
70
192
0
VERTEX
8
Meshes
10
29.075605
20
-6.007452
30
14.292837
70
192
0
VERTEX
8
Meshes
10
31.758791
20
-5.632748
30
14.292836
70
192
0
VERTEX
8
Meshes
10
32.010635
20
-6.100852
30
14.292836
70
192
0
VERTEX
8
Meshes
10
31.758791
20
-5.632748
30
10.522934
70
192
0
VERTEX
8
Meshes
10
32.010635
20
-6.100852
30
10.522934
70
192
0
VERTEX
8
Meshes
10
34.038898
20
-4.552067
30
10.522934
70
192
0
VERTEX
8
Meshes
10
33.515553
20
-4.459026
30
10.522934
70
192
0
VERTEX
8
Meshes
10
34.038898
20
-4.552067
30
14.292837
70
192
0
VERTEX
8
Meshes
10
33.515553
20
-4.459026
30
14.292837
70
192
0
VERTEX
8
Meshes
10
33.604244
20
-2.706581
30
14.292837
70
192
0
VERTEX
8
Meshes
10
33.926617
20
-2.283938
30
14.292837
70
192
0
VERTEX
8
Meshes
10
33.604244
20
-2.706581
30
10.522934
70
192
0
VERTEX
8
Meshes
10
33.926617
20
-2.283938
30
10.522934
70
192
0
VERTEX
8
Meshes
10
32.597458
20
-0.849148
30
10.522934
70
192
0
VERTEX
8
Meshes
10
32.597458
20
-1.380702
30
10.522934
70
192
0
VERTEX
8
Meshes
10
32.597458
20
-0.849148
30
14.292837
70
192
0
VERTEX
8
Meshes
10
32.597458
20
-1.380702
30
14.292837
70
192
0
VERTEX
8
Meshes
10
29.305889
20
-1.168337
30
14.292831
70
192
0
VERTEX
8
Meshes
10
29.305891
20
-0.636783
30
14.292831
70
192
0
VERTEX
8
Meshes
10
29.305891
20
-1.168337
30
10.522928
70
192
0
VERTEX
8
Meshes
10
29.305891
20
-0.636783
30
10.522928
70
192
0
VERTEX
8
Meshes
10
23.094385
20
-0.636771
30
10.522917
70
192
0
VERTEX
8
Meshes
10
23.094385
20
-1.168326
30
10.522917
70
192
0
VERTEX
8
Meshes
10
23.094385
20
-0.636772
30
14.292820
70
192
0
VERTEX
8
Meshes
10
23.094383
20
-1.168326
30
14.292820
70
192
0
VERTEX
8
Meshes
10
17.413776
20
-1.168316
30
14.292809
70
192
0
VERTEX
8
Meshes
10
17.413778
20
-0.636761
30
14.292809
70
192
0
VERTEX
8
Meshes
10
17.413778
20
-1.168316
30
10.522907
70
192
0
VERTEX
8
Meshes
10
17.413778
20
-0.636761
30
10.522907
70
192
0
VERTEX
8
Meshes
10
6.371103
20
-0.636751
30
10.522897
70
192
0
VERTEX
8
Meshes
10
6.371103
20
-1.168306
30
10.522897
70
192
0
VERTEX
8
Meshes
10
6.371103
20
-0.636751
30
14.292800
70
192
0
VERTEX
8
Meshes
10
6.371102
20
-1.168306
30
14.292800
70
192
0
VERTEX
8
Meshes
10
2.230099
20
-1.168304
30
14.292798
70
192
0
VERTEX
8
Meshes
10
2.230100
20
-0.636750
30
14.292798
70
192
0
VERTEX
8
Meshes
10
2.230100
20
-1.168304
30
10.522896
70
192
0
VERTEX
8
Meshes
10
2.230100
20
-0.636749
30
10.522896
70
192
0
VERTEX
8
Meshes
10
0.584316
20
0.212688
30
10.522895
70
192
0
VERTEX
8
Meshes
10
0.584316
20
-0.318867
30
10.522895
70
192
0
VERTEX
8
Meshes
10
0.584316
20
0.212687
30
14.292798
70
192
0
VERTEX
8
Meshes
10
0.584316
20
-0.318867
30
14.292798
70
192
0
VERTEX
8
Meshes
10
-1.115214
20
0.531227
30
14.292798
70
192
0
VERTEX
8
Meshes
10
-1.115214
20
-0.000328
30
14.292798
70
192
0
VERTEX
8
Meshes
10
-0.583659
20
-0.000328
30
14.292798
70
192
0
VERTEX
8
Meshes
10
-0.583659
20
0.531227
30
14.292798
70
192
0
VERTEX
8
Meshes
10
-1.115214
20
0.531227
30
10.522895
70
192
0
VERTEX
8
Meshes
10
-1.115214
20
-0.000328
30
10.522895
70
192
0
VERTEX
8
Meshes
10
-0.583659
20
-0.000328
30
10.522895
70
192
0
VERTEX
8
Meshes
10
-0.583659
20
0.531227
30
10.522895
70
192
0
VERTEX
8
Meshes
62
254
10
0.0
20
0.0
30
0.0
70
128
71
1
72
2
73
3
74
4
0
VERTEX
8
Meshes
62
254
10
0.0
20
0.0
30
0.0
70
128
71
5
72
8
73
7
74
6
0
VERTEX
8
Meshes
62
254
10
0.0
20
0.0
30
0.0
70
128
71
2
72
6
73
7
74
3
0
VERTEX
8
Meshes
62
254
10
0.0
20
0.0
30
0.0
70
128
71
3
72
7
73
8
74
4
0
VERTEX
8
Meshes
62
254
10
0.0
20
0.0
30
0.0
70
128
71
5
72
1
73
4
74
8
0
VERTEX
8
Meshes
62
254
10
0.0
20
0.0
30
0.0
70
128
71
1
72
5
73
10
74
12
0
VERTEX
8
Meshes
62
254
10
0.0
20
0.0
30
0.0
70
128
71
6
72
2
73
11
74
9
0
VERTEX
8
Meshes
62
254
10
0.0
20
0.0
30
0.0
70
128
71
5
72
6
73
9
74
10
0
VERTEX
8
Meshes
62
254
10
0.0
20
0.0
30
0.0
70
128
71
2
72
1
73
12
74
11
0
VERTEX
8
Meshes
62
254
10
0.0
20
0.0
30
0.0
70
128
71
11
72
12
73
13
74
14
0
VERTEX
8
Meshes
62
254
10
0.0
20
0.0
30
0.0
70
128
71
10
72
9
73
16
74
15
0
VERTEX
8
Meshes
62
254
10
0.0
20
0.0
30
0.0
70
128
71
9
72
11
73
14
74
16
0
VERTEX
8
Meshes
62
254
10
0.0
20
0.0
30
0.0
70
128
71
12
72
10
73
15
74
13
0
VERTEX
8
Meshes
62
254
10
0.0
20
0.0
30
0.0
70
128
71
13
72
15
73
18
74
20
0
VERTEX
8
Meshes
62
254
10
0.0
20
0.0
30
0.0
70
128
71
16
72
14
73
19
74
17
0
VERTEX
8
Meshes
62
254
10
0.0
20
0.0
30
0.0
70
128
71
15
72
16
73
17
74
18
0
VERTEX
8
Meshes
62
254
10
0.0
20
0.0
30
0.0
70
128
71
14
72
13
73
20
74
19
0
VERTEX
8
Meshes
62
254
10
0.0
20
0.0
30
0.0
70
128
71
19
72
20
73
21
74
22
0
VERTEX
8
Meshes
62
254
10
0.0
20
0.0
30
0.0
70
128
71
18
72
17
73
24
74
23
0
VERTEX
8
Meshes
62
254
10
0.0
20
0.0
30
0.0
70
128
71
17
72
19
73
22
74
24
0
VERTEX
8
Meshes
62
254
10
0.0
20
0.0
30
0.0
70
128
71
20
72
18
73
23
74
21
0
VERTEX
8
Meshes
62
254
10
0.0
20
0.0
30
0.0
70
128
71
21
72
23
73
26
74
28
0
VERTEX
8
Meshes
62
254
10
0.0
20
0.0
30
0.0
70
128
71
24
72
22
73
27
74
25
0
VERTEX
8
Meshes
62
254
10
0.0
20
0.0
30
0.0
70
128
71
23
72
24
73
25
74
26
0
VERTEX
8
Meshes
62
254
10
0.0
20
0.0
30
0.0
70
128
71
22
72
21
73
28
74
27
0
VERTEX
8
Meshes
62
254
10
0.0
20
0.0
30
0.0
70
128
71
27
72
28
73
29
74
30
0
VERTEX
8
Meshes
62
254
10
0.0
20
0.0
30
0.0
70
128
71
26
72
25
73
32
74
31
0
VERTEX
8
Meshes
62
254
10
0.0
20
0.0
30
0.0
70
128
71
25
72
27
73
30
74
32
0
VERTEX
8
Meshes
62
254
10
0.0
20
0.0
30
0.0
70
128
71
28
72
26
73
31
74
29
0
VERTEX
8
Meshes
62
254
10
0.0
20
0.0
30
0.0
70
128
71
29
72
31
73
34
74
36
0
VERTEX
8
Meshes
62
254
10
0.0
20
0.0
30
0.0
70
128
71
32
72
30
73
35
74
33
0
VERTEX
8
Meshes
62
254
10
0.0
20
0.0
30
0.0
70
128
71
31
72
32
73
33
74
34
0
VERTEX
8
Meshes
62
254
10
0.0
20
0.0
30
0.0
70
128
71
30
72
29
73
36
74
35
0
VERTEX
8
Meshes
62
254
10
0.0
20
0.0
30
0.0
70
128
71
35
72
36
73
37
74
38
0
VERTEX
8
Meshes
62
254
10
0.0
20
0.0
30
0.0
70
128
71
34
72
33
73
40
74
39
0
VERTEX
8
Meshes
62
254
10
0.0
20
0.0
30
0.0
70
128
71
33
72
35
73
38
74
40
0
VERTEX
8
Meshes
62
254
10
0.0
20
0.0
30
0.0
70
128
71
36
72
34
73
39
74
37
0
VERTEX
8
Meshes
62
254
10
0.0
20
0.0
30
0.0
70
128
71
37
72
39
73
42
74
44
0
VERTEX
8
Meshes
62
254
10
0.0
20
0.0
30
0.0
70
128
71
40
72
38
73
43
74
41
0
VERTEX
8
Meshes
62
254
10
0.0
20
0.0
30
0.0
70
128
71
39
72
40
73
41
74
42
0
VERTEX
8
Meshes
62
254
10
0.0
20
0.0
30
0.0
70
128
71
38
72
37
73
44
74
43
0
VERTEX
8
Meshes
62
254
10
0.0
20
0.0
30
0.0
70
128
71
43
72
44
73
45
74
46
0
VERTEX
8
Meshes
62
254
10
0.0
20
0.0
30
0.0
70
128
71
42
72
41
73
48
74
47
0
VERTEX
8
Meshes
62
254
10
0.0
20
0.0
30
0.0
70
128
71
41
72
43
73
46
74
48
0
VERTEX
8
Meshes
62
254
10
0.0
20
0.0
30
0.0
70
128
71
44
72
42
73
47
74
45
0
VERTEX
8
Meshes
62
254
10
0.0
20
0.0
30
0.0
70
128
71
45
72
47
73
50
74
52
0
VERTEX
8
Meshes
62
254
10
0.0
20
0.0
30
0.0
70
128
71
48
72
46
73
51
74
49
0
VERTEX
8
Meshes
62
254
10
0.0
20
0.0
30
0.0
70
128
71
47
72
48
73
49
74
50
0
VERTEX
8
Meshes
62
254
10
0.0
20
0.0
30
0.0
70
128
71
46
72
45
73
52
74
51
0
VERTEX
8
Meshes
62
254
10
0.0
20
0.0
30
0.0
70
128
71
51
72
52
73
53
74
54
0
VERTEX
8
Meshes
62
254
10
0.0
20
0.0
30
0.0
70
128
71
50
72
49
73
56
74
55
0
VERTEX
8
Meshes
62
254
10
0.0
20
0.0
30
0.0
70
128
71
49
72
51
73
54
74
56
0
VERTEX
8
Meshes
62
254
10
0.0
20
0.0
30
0.0
70
128
71
52
72
50
73
55
74
53
0
VERTEX
8
Meshes
62
254
10
0.0
20
0.0
30
0.0
70
128
71
53
72
55
73
58
74
60
0
VERTEX
8
Meshes
62
254
10
0.0
20
0.0
30
0.0
70
128
71
56
72
54
73
59
74
57
0
VERTEX
8
Meshes
62
254
10
0.0
20
0.0
30
0.0
70
128
71
55
72
56
73
57
74
58
0
VERTEX
8
Meshes
62
254
10
0.0
20
0.0
30
0.0
70
128
71
54
72
53
73
60
74
59
0
VERTEX
8
Meshes
62
254
10
0.0
20
0.0
30
0.0
70
128
71
59
72
60
73
61
74
62
0
VERTEX
8
Meshes
62
254
10
0.0
20
0.0
30
0.0
70
128
71
58
72
57
73
64
74
63
0
VERTEX
8
Meshes
62
254
10
0.0
20
0.0
30
0.0
70
128
71
57
72
59
73
62
74
64
0
VERTEX
8
Meshes
62
254
10
0.0
20
0.0
30
0.0
70
128
71
60
72
58
73
63
74
61
0
VERTEX
8
Meshes
62
254
10
0.0
20
0.0
30
0.0
70
128
71
61
72
63
73
66
74
68
0
VERTEX
8
Meshes
62
254
10
0.0
20
0.0
30
0.0
70
128
71
64
72
62
73
67
74
65
0
VERTEX
8
Meshes
62
254
10
0.0
20
0.0
30
0.0
70
128
71
63
72
64
73
65
74
66
0
VERTEX
8
Meshes
62
254
10
0.0
20
0.0
30
0.0
70
128
71
62
72
61
73
68
74
67
0
VERTEX
8
Meshes
62
254
10
0.0
20
0.0
30
0.0
70
128
71
67
72
68
73
69
74
70
0
VERTEX
8
Meshes
62
254
10
0.0
20
0.0
30
0.0
70
128
71
66
72
65
73
72
74
71
0
VERTEX
8
Meshes
62
254
10
0.0
20
0.0
30
0.0
70
128
71
65
72
67
73
70
74
72
0
VERTEX
8
Meshes
62
254
10
0.0
20
0.0
30
0.0
70
128
71
68
72
66
73
71
74
69
0
VERTEX
8
Meshes
62
254
10
0.0
20
0.0
30
0.0
70
128
71
69
72
71
73
74
74
76
0
VERTEX
8
Meshes
62
254
10
0.0
20
0.0
30
0.0
70
128
71
72
72
70
73
75
74
73
0
VERTEX
8
Meshes
62
254
10
0.0
20
0.0
30
0.0
70
128
71
71
72
72
73
73
74
74
0
VERTEX
8
Meshes
62
254
10
0.0
20
0.0
30
0.0
70
128
71
70
72
69
73
76
74
75
0
VERTEX
8
Meshes
62
254
10
0.0
20
0.0
30
0.0
70
128
71
75
72
76
73
77
74
78
0
VERTEX
8
Meshes
62
254
10
0.0
20
0.0
30
0.0
70
128
71
74
72
73
73
80
74
79
0
VERTEX
8
Meshes
62
254
10
0.0
20
0.0
30
0.0
70
128
71
73
72
75
73
78
74
80
0
VERTEX
8
Meshes
62
254
10
0.0
20
0.0
30
0.0
70
128
71
76
72
74
73
79
74
77
0
VERTEX
8
Meshes
62
254
10
0.0
20
0.0
30
0.0
70
128
71
77
72
79
73
80
74
78
0
VERTEX
8
Meshes
62
254
10
0.0
20
0.0
30
0.0
70
128
71
84
72
82
73
81
74
83
0
VERTEX
8
Meshes
62
254
10
0.0
20
0.0
30
0.0
70
128
71
85
72
87
73
82
74
84
0
VERTEX
8
Meshes
62
254
10
0.0
20
0.0
30
0.0
70
128
71
88
72
86
73
83
74
81
0
VERTEX
8
Meshes
62
254
10
0.0
20
0.0
30
0.0
70
128
71
87
72
88
73
81
74
82
0
VERTEX
8
Meshes
62
254
10
0.0
20
0.0
30
0.0
70
128
71
86
72
85
73
84
74
83
0
VERTEX
8
Meshes
62
254
10
0.0
20
0.0
30
0.0
70
128
71
91
72
92
73
85
74
86
0
VERTEX
8
Meshes
62
254
10
0.0
20
0.0
30
0.0
70
128
71
90
72
89
73
88
74
87
0
VERTEX
8
Meshes
62
254
10
0.0
20
0.0
30
0.0
70
128
71
89
72
91
73
86
74
88
0
VERTEX
8
Meshes
62
254
10
0.0
20
0.0
30
0.0
70
128
71
92
72
90
73
87
74
85
0
VERTEX
8
Meshes
62
254
10
0.0
20
0.0
30
0.0
70
128
71
93
72
95
73
90
74
92
0
VERTEX
8
Meshes
62
254
10
0.0
20
0.0
30
0.0
70
128
71
96
72
94
73
91
74
89
0
VERTEX
8
Meshes
62
254
10
0.0
20
0.0
30
0.0
70
128
71
95
72
96
73
89
74
90
0
VERTEX
8
Meshes
62
254
10
0.0
20
0.0
30
0.0
70
128
71
94
72
93
73
92
74
91
0
VERTEX
8
Meshes
62
254
10
0.0
20
0.0
30
0.0
70
128
71
99
72
100
73
93
74
94
0
VERTEX
8
Meshes
62
254
10
0.0
20
0.0
30
0.0
70
128
71
98
72
97
73
96
74
95
0
VERTEX
8
Meshes
62
254
10
0.0
20
0.0
30
0.0
70
128
71
97
72
99
73
94
74
96
0
VERTEX
8
Meshes
62
254
10
0.0
20
0.0
30
0.0
70
128
71
100
72
98
73
95
74
93
0
VERTEX
8
Meshes
62
254
10
0.0
20
0.0
30
0.0
70
128
71
101
72
103
73
98
74
100
0
VERTEX
8
Meshes
62
254
10
0.0
20
0.0
30
0.0
70
128
71
104
72
102
73
99
74
97
0
VERTEX
8
Meshes
62
254
10
0.0
20
0.0
30
0.0
70
128
71
103
72
104
73
97
74
98
0
VERTEX
8
Meshes
62
254
10
0.0
20
0.0
30
0.0
70
128
71
102
72
101
73
100
74
99
0
VERTEX
8
Meshes
62
254
10
0.0
20
0.0
30
0.0
70
128
71
107
72
108
73
101
74
102
0
VERTEX
8
Meshes
62
254
10
0.0
20
0.0
30
0.0
70
128
71
106
72
105
73
104
74
103
0
VERTEX
8
Meshes
62
254
10
0.0
20
0.0
30
0.0
70
128
71
105
72
107
73
102
74
104
0
VERTEX
8
Meshes
62
254
10
0.0
20
0.0
30
0.0
70
128
71
108
72
106
73
103
74
101
0
VERTEX
8
Meshes
62
254
10
0.0
20
0.0
30
0.0
70
128
71
109
72
111
73
106
74
108
0
VERTEX
8
Meshes
62
254
10
0.0
20
0.0
30
0.0
70
128
71
112
72
110
73
107
74
105
0
VERTEX
8
Meshes
62
254
10
0.0
20
0.0
30
0.0
70
128
71
111
72
112
73
105
74
106
0
VERTEX
8
Meshes
62
254
10
0.0
20
0.0
30
0.0
70
128
71
110
72
109
73
108
74
107
0
VERTEX
8
Meshes
62
254
10
0.0
20
0.0
30
0.0
70
128
71
115
72
116
73
109
74
110
0
VERTEX
8
Meshes
62
254
10
0.0
20
0.0
30
0.0
70
128
71
114
72
113
73
112
74
111
0
VERTEX
8
Meshes
62
254
10
0.0
20
0.0
30
0.0
70
128
71
113
72
115
73
110
74
112
0
VERTEX
8
Meshes
62
254
10
0.0
20
0.0
30
0.0
70
128
71
116
72
114
73
111
74
109
0
VERTEX
8
Meshes
62
254
10
0.0
20
0.0
30
0.0
70
128
71
117
72
119
73
114
74
116
0
VERTEX
8
Meshes
62
254
10
0.0
20
0.0
30
0.0
70
128
71
120
72
118
73
115
74
113
0
VERTEX
8
Meshes
62
254
10
0.0
20
0.0
30
0.0
70
128
71
119
72
120
73
113
74
114
0
VERTEX
8
Meshes
62
254
10
0.0
20
0.0
30
0.0
70
128
71
118
72
117
73
116
74
115
0
VERTEX
8
Meshes
62
254
10
0.0
20
0.0
30
0.0
70
128
71
123
72
124
73
117
74
118
0
VERTEX
8
Meshes
62
254
10
0.0
20
0.0
30
0.0
70
128
71
122
72
121
73
120
74
119
0
VERTEX
8
Meshes
62
254
10
0.0
20
0.0
30
0.0
70
128
71
121
72
123
73
118
74
120
0
VERTEX
8
Meshes
62
254
10
0.0
20
0.0
30
0.0
70
128
71
124
72
122
73
119
74
117
0
VERTEX
8
Meshes
62
254
10
0.0
20
0.0
30
0.0
70
128
71
125
72
127
73
122
74
124
0
VERTEX
8
Meshes
62
254
10
0.0
20
0.0
30
0.0
70
128
71
128
72
126
73
123
74
121
0
VERTEX
8
Meshes
62
254
10
0.0
20
0.0
30
0.0
70
128
71
127
72
128
73
121
74
122
0
VERTEX
8
Meshes
62
254
10
0.0
20
0.0
30
0.0
70
128
71
126
72
125
73
124
74
123
0
VERTEX
8
Meshes
62
254
10
0.0
20
0.0
30
0.0
70
128
71
131
72
132
73
125
74
126
0
VERTEX
8
Meshes
62
254
10
0.0
20
0.0
30
0.0
70
128
71
130
72
129
73
128
74
127
0
VERTEX
8
Meshes
62
254
10
0.0
20
0.0
30
0.0
70
128
71
129
72
131
73
126
74
128
0
VERTEX
8
Meshes
62
254
10
0.0
20
0.0
30
0.0
70
128
71
132
72
130
73
127
74
125
0
VERTEX
8
Meshes
62
254
10
0.0
20
0.0
30
0.0
70
128
71
133
72
135
73
130
74
132
0
VERTEX
8
Meshes
62
254
10
0.0
20
0.0
30
0.0
70
128
71
136
72
134
73
131
74
129
0
VERTEX
8
Meshes
62
254
10
0.0
20
0.0
30
0.0
70
128
71
135
72
136
73
129
74
130
0
VERTEX
8
Meshes
62
254
10
0.0
20
0.0
30
0.0
70
128
71
134
72
133
73
132
74
131
0
VERTEX
8
Meshes
62
254
10
0.0
20
0.0
30
0.0
70
128
71
139
72
140
73
133
74
134
0
VERTEX
8
Meshes
62
254
10
0.0
20
0.0
30
0.0
70
128
71
138
72
137
73
136
74
135
0
VERTEX
8
Meshes
62
254
10
0.0
20
0.0
30
0.0
70
128
71
137
72
139
73
134
74
136
0
VERTEX
8
Meshes
62
254
10
0.0
20
0.0
30
0.0
70
128
71
140
72
138
73
135
74
133
0
VERTEX
8
Meshes
62
254
10
0.0
20
0.0
30
0.0
70
128
71
141
72
143
73
138
74
140
0
VERTEX
8
Meshes
62
254
10
0.0
20
0.0
30
0.0
70
128
71
144
72
142
73
139
74
137
0
VERTEX
8
Meshes
62
254
10
0.0
20
0.0
30
0.0
70
128
71
143
72
144
73
137
74
138
0
VERTEX
8
Meshes
62
254
10
0.0
20
0.0
30
0.0
70
128
71
142
72
141
73
140
74
139
0
VERTEX
8
Meshes
62
254
10
0.0
20
0.0
30
0.0
70
128
71
147
72
148
73
141
74
142
0
VERTEX
8
Meshes
62
254
10
0.0
20
0.0
30
0.0
70
128
71
146
72
145
73
144
74
143
0
VERTEX
8
Meshes
62
254
10
0.0
20
0.0
30
0.0
70
128
71
145
72
147
73
142
74
144
0
VERTEX
8
Meshes
62
254
10
0.0
20
0.0
30
0.0
70
128
71
148
72
146
73
143
74
141
0
VERTEX
8
Meshes
62
254
10
0.0
20
0.0
30
0.0
70
128
71
149
72
151
73
146
74
148
0
VERTEX
8
Meshes
62
254
10
0.0
20
0.0
30
0.0
70
128
71
152
72
150
73
147
74
145
0
VERTEX
8
Meshes
62
254
10
0.0
20
0.0
30
0.0
70
128
71
151
72
152
73
145
74
146
0
VERTEX
8
Meshes
62
254
10
0.0
20
0.0
30
0.0
70
128
71
150
72
149
73
148
74
147
0
VERTEX
8
Meshes
62
254
10
0.0
20
0.0
30
0.0
70
128
71
159
72
160
73
149
74
150
0
VERTEX
8
Meshes
62
254
10
0.0
20
0.0
30
0.0
70
128
71
156
72
155
73
152
74
151
0
VERTEX
8
Meshes
62
254
10
0.0
20
0.0
30
0.0
70
128
71
155
72
159
73
150
74
152
0
VERTEX
8
Meshes
62
254
10
0.0
20
0.0
30
0.0
70
128
71
160
72
156
73
151
74
149
0
VERTEX
8
Meshes
62
254
10
0.0
20
0.0
30
0.0
70
128
71
156
72
160
73
157
74
153
0
VERTEX
8
Meshes
62
254
10
0.0
20
0.0
30
0.0
70
128
71
158
72
154
73
153
74
157
0
VERTEX
8
Meshes
62
254
10
0.0
20
0.0
30
0.0
70
128
71
159
72
155
73
154
74
158
0
VERTEX
8
Meshes
62
254
10
0.0
20
0.0
30
0.0
70
128
71
156
72
153
73
154
74
155
0
VERTEX
8
Meshes
62
254
10
0.0
20
0.0
30
0.0
70
128
71
160
72
159
73
158
74
157
0
SEQEND
0
ENDBLK
0
BLOCK
2
Cube_003
8
Meshes
70
64
10
0.0
20
0.0
30
0.0
3
Cube_003
0
POLYLINE
66
1
8
Meshes
70
64
71
38
72
36
0
VERTEX
8
Meshes
10
1.279948
20
1.190972
30
0.795139
70
192
0
VERTEX
8
Meshes
10
1.152633
20
-3.609956
30
0.795139
70
192
0
VERTEX
8
Meshes
10
-1.381945
20
-3.609955
30
0.795139
70
192
0
VERTEX
8
Meshes
10
-1.254629
20
1.190973
30
0.795139
70
192
0
VERTEX
8
Meshes
10
1.279948
20
1.190972
30
10.510429
70
192
0
VERTEX
8
Meshes
10
1.152632
20
-3.609956
30
10.510429
70
192
0
VERTEX
8
Meshes
10
-1.381945
20
-3.609955
30
10.510429
70
192
0
VERTEX
8
Meshes
10
-1.254630
20
1.190973
30
10.510429
70
192
0
VERTEX
8
Meshes
10
-1.254629
20
0.745371
30
-3.291668
70
192
0
VERTEX
8
Meshes
10
-1.381945
20
-3.164353
30
-3.291668
70
192
0
VERTEX
8
Meshes
10
0.618055
20
-3.164353
30
-3.291668
70
192
0
VERTEX
8
Meshes
10
0.745370
20
0.745370
30
-3.291668
70
192
0
VERTEX
8
Meshes
10
-1.254630
20
0.681713
30
14.559038
70
192
0
VERTEX
8
Meshes
10
-1.381945
20
-2.909723
30
14.495380
70
192
0
VERTEX
8
Meshes
10
0.618055
20
-2.909724
30
14.495380
70
192
0
VERTEX
8
Meshes
10
0.745371
20
0.681713
30
14.559038
70
192
0
VERTEX
8
Meshes
10
-1.381947
20
-8.727912
30
10.510429
70
192
0
VERTEX
8
Meshes
10
-0.069434
20
-7.849469
30
10.510429
70
192
0
VERTEX
8
Meshes
10
-1.381946
20
-8.727913
30
0.795139
70
192
0
VERTEX
8
Meshes
10
-0.069433
20
-7.849469
30
0.795139
70
192
0
VERTEX
8
Meshes
10
-32.597580
20
-8.207637
30
0.789801
70
192
0
VERTEX
8
Meshes
10
-32.597580
20
-8.207636
30
10.505093
70
192
0
VERTEX
8
Meshes
10
-31.920950
20
-2.149265
30
14.490044
70
192
0
VERTEX
8
Meshes
10
-30.252947
20
0.745794
30
14.553701
70
192
0
VERTEX
8
Meshes
10
-31.920950
20
-2.403895
30
-3.297006
70
192
0
VERTEX
8
Meshes
10
-30.252947
20
0.809452
30
-3.297006
70
192
0
VERTEX
8
Meshes
10
-30.252947
20
1.255054
30
10.505093
70
192
0
VERTEX
8
Meshes
10
-31.920950
20
-2.849497
30
10.505093
70
192
0
VERTEX
8
Meshes
10
-30.252947
20
1.255054
30
0.789802
70
192
0
VERTEX
8
Meshes
10
-31.920950
20
-2.849497
30
0.789802
70
192
0
VERTEX
8
Meshes
10
-35.803444
20
-3.235005
30
0.789802
70
192
0
VERTEX
8
Meshes
10
-35.803444
20
-3.235004
30
10.505093
70
192
0
VERTEX
8
Meshes
10
-35.832916
20
-6.418257
30
10.505093
70
192
0
VERTEX
8
Meshes
10
-35.832916
20
-6.418258
30
0.789801
70
192
0
VERTEX
8
Meshes
10
-36.657402
20
-6.027516
30
0.789801
70
192
0
VERTEX
8
Meshes
10
-36.657402
20
-6.027515
30
10.505093
70
192
0
VERTEX
8
Meshes
10
-36.702194
20
-4.234066
30
10.505093
70
192
0
VERTEX
8
Meshes
10
-36.702194
20
-4.234066
30
0.789802
70
192
0
VERTEX
8
Meshes
62
254
10
0.0
20
0.0
30
0.0
70
128
71
1
72
5
73
6
74
2
0
VERTEX
8
Meshes
62
254
10
0.0
20
0.0
30
0.0
70
128
71
5
72
1
73
4
74
8
0
VERTEX
8
Meshes
62
254
10
0.0
20
0.0
30
0.0
70
128
71
4
72
1
73
12
74
9
0
VERTEX
8
Meshes
62
254
10
0.0
20
0.0
30
0.0
70
128
71
1
72
2
73
11
74
12
0
VERTEX
8
Meshes
62
254
10
0.0
20
0.0
30
0.0
70
128
71
2
72
3
73
10
74
11
0
VERTEX
8
Meshes
62
254
10
0.0
20
0.0
30
0.0
70
128
71
10
72
9
73
12
74
11
0
VERTEX
8
Meshes
62
254
10
0.0
20
0.0
30
0.0
70
128
71
5
72
8
73
13
74
16
0
VERTEX
8
Meshes
62
254
10
0.0
20
0.0
30
0.0
70
128
71
7
72
6
73
15
74
14
0
VERTEX
8
Meshes
62
254
10
0.0
20
0.0
30
0.0
70
128
71
6
72
5
73
16
74
15
0
VERTEX
8
Meshes
62
254
10
0.0
20
0.0
30
0.0
70
128
71
16
72
13
73
14
74
15
0
VERTEX
8
Meshes
62
254
10
0.0
20
0.0
30
0.0
70
128
71
3
72
2
73
20
74
19
0
VERTEX
8
Meshes
62
254
10
0.0
20
0.0
30
0.0
70
128
71
6
72
7
73
17
74
18
0
VERTEX
8
Meshes
62
254
10
0.0
20
0.0
30
0.0
70
128
71
2
72
6
73
18
74
20
0
VERTEX
8
Meshes
62
254
10
0.0
20
0.0
30
0.0
70
128
71
20
72
18
73
17
74
19
0
VERTEX
8
Meshes
62
254
10
0.0
20
0.0
30
0.0
70
128
71
17
72
7
73
28
74
22
0
VERTEX
8
Meshes
62
254
10
0.0
20
0.0
30
0.0
70
128
71
19
72
17
73
22
74
21
0
VERTEX
8
Meshes
62
254
10
0.0
20
0.0
30
0.0
70
128
71
3
72
19
73
21
74
30
0
VERTEX
8
Meshes
62
254
10
0.0
20
0.0
30
0.0
70
128
71
14
72
13
73
24
74
23
0
VERTEX
8
Meshes
62
254
10
0.0
20
0.0
30
0.0
70
128
71
7
72
14
73
23
74
28
0
VERTEX
8
Meshes
62
254
10
0.0
20
0.0
30
0.0
70
128
71
13
72
8
73
27
74
24
0
VERTEX
8
Meshes
62
254
10
0.0
20
0.0
30
0.0
70
128
71
10
72
3
73
30
74
25
0
VERTEX
8
Meshes
62
254
10
0.0
20
0.0
30
0.0
70
128
71
9
72
10
73
25
74
26
0
VERTEX
8
Meshes
62
254
10
0.0
20
0.0
30
0.0
70
128
71
4
72
9
73
26
74
29
0
VERTEX
8
Meshes
62
254
10
0.0
20
0.0
30
0.0
70
128
71
8
72
4
73
29
74
27
0
VERTEX
8
Meshes
62
254
10
0.0
20
0.0
30
0.0
70
128
71
30
72
28
73
27
74
29
0
VERTEX
8
Meshes
62
254
10
0.0
20
0.0
30
0.0
70
128
71
30
72
29
73
26
74
25
0
VERTEX
8
Meshes
62
254
10
0.0
20
0.0
30
0.0
70
128
71
27
72
28
73
23
74
24
0
VERTEX
8
Meshes
62
254
10
0.0
20
0.0
30
0.0
70
128
71
28
72
30
73
31
74
32
0
VERTEX
8
Meshes
62
254
10
0.0
20
0.0
30
0.0
70
128
71
30
72
21
73
34
74
31
0
VERTEX
8
Meshes
62
254
10
0.0
20
0.0
30
0.0
70
128
71
21
72
22
73
33
74
34
0
VERTEX
8
Meshes
62
254
10
0.0
20
0.0
30
0.0
70
128
71
22
72
28
73
32
74
33
0
VERTEX
8
Meshes
62
254
10
0.0
20
0.0
30
0.0
70
128
71
33
72
32
73
37
74
36
0
VERTEX
8
Meshes
62
254
10
0.0
20
0.0
30
0.0
70
128
71
34
72
33
73
36
74
35
0
VERTEX
8
Meshes
62
254
10
0.0
20
0.0
30
0.0
70
128
71
31
72
34
73
35
74
38
0
VERTEX
8
Meshes
62
254
10
0.0
20
0.0
30
0.0
70
128
71
32
72
31
73
38
74
37
0
VERTEX
8
Meshes
62
254
10
0.0
20
0.0
30
0.0
70
128
71
37
72
38
73
35
74
36
0
SEQEND
0
ENDBLK
0
BLOCK
2
Cylinder
8
Meshes
70
64
10
0.0
20
0.0
30
0.0
3
Cylinder
0
POLYLINE
66
1
8
Meshes
70
64
71
30
72
35
0
VERTEX
8
Meshes
10
0.787006
20
0.595866
30
-5.126668
70
192
0
VERTEX
8
Meshes
10
1.129612
20
-0.383244
30
-5.126668
70
192
0
VERTEX
8
Meshes
10
0.577724
20
-1.261569
30
-5.126668
70
192
0
VERTEX
8
Meshes
10
-0.453075
20
-1.377712
30
-5.126668
70
192
0
VERTEX
8
Meshes
10
-1.186573
20
-0.644215
30
-5.126668
70
192
0
VERTEX
8
Meshes
10
-1.070430
20
0.386584
30
-5.126668
70
192
0
VERTEX
8
Meshes
10
-0.192105
20
0.938472
30
-5.126668
70
192
0
VERTEX
8
Meshes
10
0.787007
20
0.595867
30
0.603005
70
192
0
VERTEX
8
Meshes
10
1.129613
20
-0.383243
30
0.603005
70
192
0
VERTEX
8
Meshes
10
0.577725
20
-1.261569
30
0.603005
70
192
0
VERTEX
8
Meshes
10
-0.453075
20
-1.377712
30
0.603005
70
192
0
VERTEX
8
Meshes
10
-1.186572
20
-0.644215
30
0.603005
70
192
0
VERTEX
8
Meshes
10
-1.070428
20
0.386585
30
0.603005
70
192
0
VERTEX
8
Meshes
10
-0.192102
20
0.938473
30
0.603005
70
192
0
VERTEX
8
Meshes
10
-0.058262
20
-0.249402
30
0.603005
70
192
0
VERTEX
8
Meshes
10
-0.143469
20
0.594244
30
-5.700090
70
192
0
VERTEX
8
Meshes
10
-0.760724
20
0.206397
30
-5.700090
70
192
0
VERTEX
8
Meshes
10
-0.842345
20
-0.518010
30
-5.700090
70
192
0
VERTEX
8
Meshes
10
-0.326870
20
-1.033484
30
-5.700090
70
192
0
VERTEX
8
Meshes
10
0.397537
20
-0.951863
30
-5.700090
70
192
0
VERTEX
8
Meshes
10
0.785384
20
-0.334609
30
-5.700090
70
192
0
VERTEX
8
Meshes
10
0.544613
20
0.353474
30
-5.700090
70
192
0
VERTEX
8
Meshes
10
0.544613
20
0.353474
30
-16.340258
70
192
0
VERTEX
8
Meshes
10
0.785384
20
-0.334609
30
-16.340258
70
192
0
VERTEX
8
Meshes
10
0.397537
20
-0.951863
30
-16.340258
70
192
0
VERTEX
8
Meshes
10
-0.326870
20
-1.033484
30
-16.340258
70
192
0
VERTEX
8
Meshes
10
-0.842345
20
-0.518010
30
-16.340258
70
192
0
VERTEX
8
Meshes
10
-0.760724
20
0.206397
30
-16.340258
70
192
0
VERTEX
8
Meshes
10
-0.143469
20
0.594244
30
-16.340258
70
192
0
VERTEX
8
Meshes
10
-0.049410
20
-0.240550
30
-16.340258
70
192
0
VERTEX
8
Meshes
62
254
10
0.0
20
0.0
30
0.0
70
128
71
15
72
9
73
8
0
VERTEX
8
Meshes
62
254
10
0.0
20
0.0
30
0.0
70
128
71
15
72
10
73
9
0
VERTEX
8
Meshes
62
254
10
0.0
20
0.0
30
0.0
70
128
71
15
72
11
73
10
0
VERTEX
8
Meshes
62
254
10
0.0
20
0.0
30
0.0
70
128
71
15
72
12
73
11
0
VERTEX
8
Meshes
62
254
10
0.0
20
0.0
30
0.0
70
128
71
15
72
13
73
12
0
VERTEX
8
Meshes
62
254
10
0.0
20
0.0
30
0.0
70
128
71
15
72
14
73
13
0
VERTEX
8
Meshes
62
254
10
0.0
20
0.0
30
0.0
70
128
71
15
72
8
73
14
0
VERTEX
8
Meshes
62
254
10
0.0
20
0.0
30
0.0
70
128
71
1
72
8
73
9
74
2
0
VERTEX
8
Meshes
62
254
10
0.0
20
0.0
30
0.0
70
128
71
2
72
9
73
10
74
3
0
VERTEX
8
Meshes
62
254
10
0.0
20
0.0
30
0.0
70
128
71
3
72
10
73
11
74
4
0
VERTEX
8
Meshes
62
254
10
0.0
20
0.0
30
0.0
70
128
71
4
72
11
73
12
74
5
0
VERTEX
8
Meshes
62
254
10
0.0
20
0.0
30
0.0
70
128
71
5
72
12
73
13
74
6
0
VERTEX
8
Meshes
62
254
10
0.0
20
0.0
30
0.0
70
128
71
6
72
13
73
14
74
7
0
VERTEX
8
Meshes
62
254
10
0.0
20
0.0
30
0.0
70
128
71
8
72
1
73
7
74
14
0
VERTEX
8
Meshes
62
254
10
0.0
20
0.0
30
0.0
70
128
71
7
72
1
73
22
74
16
0
VERTEX
8
Meshes
62
254
10
0.0
20
0.0
30
0.0
70
128
71
6
72
7
73
16
74
17
0
VERTEX
8
Meshes
62
254
10
0.0
20
0.0
30
0.0
70
128
71
5
72
6
73
17
74
18
0
VERTEX
8
Meshes
62
254
10
0.0
20
0.0
30
0.0
70
128
71
4
72
5
73
18
74
19
0
VERTEX
8
Meshes
62
254
10
0.0
20
0.0
30
0.0
70
128
71
3
72
4
73
19
74
20
0
VERTEX
8
Meshes
62
254
10
0.0
20
0.0
30
0.0
70
128
71
2
72
3
73
20
74
21
0
VERTEX
8
Meshes
62
254
10
0.0
20
0.0
30
0.0
70
128
71
1
72
2
73
21
74
22
0
VERTEX
8
Meshes
62
254
10
0.0
20
0.0
30
0.0
70
128
71
22
72
21
73
24
74
23
0
VERTEX
8
Meshes
62
254
10
0.0
20
0.0
30
0.0
70
128
71
21
72
20
73
25
74
24
0
VERTEX
8
Meshes
62
254
10
0.0
20
0.0
30
0.0
70
128
71
20
72
19
73
26
74
25
0
VERTEX
8
Meshes
62
254
10
0.0
20
0.0
30
0.0
70
128
71
19
72
18
73
27
74
26
0
VERTEX
8
Meshes
62
254
10
0.0
20
0.0
30
0.0
70
128
71
18
72
17
73
28
74
27
0
VERTEX
8
Meshes
62
254
10
0.0
20
0.0
30
0.0
70
128
71
17
72
16
73
29
74
28
0
VERTEX
8
Meshes
62
254
10
0.0
20
0.0
30
0.0
70
128
71
16
72
22
73
23
74
29
0
VERTEX
8
Meshes
62
254
10
0.0
20
0.0
30
0.0
70
128
71
30
72
23
73
24
0
VERTEX
8
Meshes
62
254
10
0.0
20
0.0
30
0.0
70
128
71
30
72
24
73
25
0
VERTEX
8
Meshes
62
254
10
0.0
20
0.0
30
0.0
70
128
71
30
72
25
73
26
0
VERTEX
8
Meshes
62
254
10
0.0
20
0.0
30
0.0
70
128
71
30
72
26
73
27
0
VERTEX
8
Meshes
62
254
10
0.0
20
0.0
30
0.0
70
128
71
30
72
27
73
28
0
VERTEX
8
Meshes
62
254
10
0.0
20
0.0
30
0.0
70
128
71
30
72
28
73
29
0
VERTEX
8
Meshes
62
254
10
0.0
20
0.0
30
0.0
70
128
71
30
72
29
73
23
0
SEQEND
0
ENDBLK
0
BLOCK
2
Cylinder_001
8
Meshes
70
64
10
0.0
20
0.0
30
0.0
3
Cylinder_001
0
POLYLINE
66
1
8
Meshes
70
64
71
18
72
24
0
VERTEX
8
Meshes
10
-0.081746
20
0.300030
30
-16.177090
70
192
0
VERTEX
8
Meshes
10
0.016175
20
0.063629
30
-16.177090
70
192
0
VERTEX
8
Meshes
10
-0.081746
20
-0.172772
30
-16.177090
70
192
0
VERTEX
8
Meshes
10
-0.318147
20
-0.270693
30
-16.177090
70
192
0
VERTEX
8
Meshes
10
-0.554548
20
-0.172772
30
-16.177090
70
192
0
VERTEX
8
Meshes
10
-0.652469
20
0.063629
30
-16.177090
70
192
0
VERTEX
8
Meshes
10
-0.554548
20
0.300030
30
-16.177090
70
192
0
VERTEX
8
Meshes
10
-0.318147
20
0.397951
30
-16.177090
70
192
0
VERTEX
8
Meshes
10
-0.081746
20
0.300030
30
-12.519830
70
192
0
VERTEX
8
Meshes
10
0.016175
20
0.063629
30
-12.519830
70
192
0
VERTEX
8
Meshes
10
-0.081746
20
-0.172772
30
-12.519830
70
192
0
VERTEX
8
Meshes
10
-0.318147
20
-0.270693
30
-12.519830
70
192
0
VERTEX
8
Meshes
10
-0.554548
20
-0.172772
30
-12.519830
70
192
0
VERTEX
8
Meshes
10
-0.652469
20
0.063629
30
-12.519830
70
192
0
VERTEX
8
Meshes
10
-0.554548
20
0.300031
30
-12.519830
70
192
0
VERTEX
8
Meshes
10
-0.318147
20
0.397951
30
-12.519830
70
192
0
VERTEX
8
Meshes
10
-0.318147
20
0.063629
30
-16.177090
70
192
0
VERTEX
8
Meshes
10
-0.318147
20
0.063629
30
-12.519830
70
192
0
VERTEX
8
Meshes
62
254
10
0.0
20
0.0
30
0.0
70
128
71
17
72
1
73
2
0
VERTEX
8
Meshes
62
254
10
0.0
20
0.0
30
0.0
70
128
71
18
72
10
73
9
0
VERTEX
8
Meshes
62
254
10
0.0
20
0.0
30
0.0
70
128
71
17
72
2
73
3
0
VERTEX
8
Meshes
62
254
10
0.0
20
0.0
30
0.0
70
128
71
18
72
11
73
10
0
VERTEX
8
Meshes
62
254
10
0.0
20
0.0
30
0.0
70
128
71
17
72
3
73
4
0
VERTEX
8
Meshes
62
254
10
0.0
20
0.0
30
0.0
70
128
71
18
72
12
73
11
0
VERTEX
8
Meshes
62
254
10
0.0
20
0.0
30
0.0
70
128
71
17
72
4
73
5
0
VERTEX
8
Meshes
62
254
10
0.0
20
0.0
30
0.0
70
128
71
18
72
13
73
12
0
VERTEX
8
Meshes
62
254
10
0.0
20
0.0
30
0.0
70
128
71
17
72
5
73
6
0
VERTEX
8
Meshes
62
254
10
0.0
20
0.0
30
0.0
70
128
71
18
72
14
73
13
0
VERTEX
8
Meshes
62
254
10
0.0
20
0.0
30
0.0
70
128
71
17
72
6
73
7
0
VERTEX
8
Meshes
62
254
10
0.0
20
0.0
30
0.0
70
128
71
18
72
15
73
14
0
VERTEX
8
Meshes
62
254
10
0.0
20
0.0
30
0.0
70
128
71
17
72
7
73
8
0
VERTEX
8
Meshes
62
254
10
0.0
20
0.0
30
0.0
70
128
71
18
72
16
73
15
0
VERTEX
8
Meshes
62
254
10
0.0
20
0.0
30
0.0
70
128
71
8
72
1
73
17
0
VERTEX
8
Meshes
62
254
10
0.0
20
0.0
30
0.0
70
128
71
18
72
9
73
16
0
VERTEX
8
Meshes
62
254
10
0.0
20
0.0
30
0.0
70
128
71
1
72
9
73
10
74
2
0
VERTEX
8
Meshes
62
254
10
0.0
20
0.0
30
0.0
70
128
71
2
72
10
73
11
74
3
0
VERTEX
8
Meshes
62
254
10
0.0
20
0.0
30
0.0
70
128
71
3
72
11
73
12
74
4
0
VERTEX
8
Meshes
62
254
10
0.0
20
0.0
30
0.0
70
128
71
4
72
12
73
13
74
5
0
VERTEX
8
Meshes
62
254
10
0.0
20
0.0
30
0.0
70
128
71
5
72
13
73
14
74
6
0
VERTEX
8
Meshes
62
254
10
0.0
20
0.0
30
0.0
70
128
71
6
72
14
73
15
74
7
0
VERTEX
8
Meshes
62
254
10
0.0
20
0.0
30
0.0
70
128
71
7
72
15
73
16
74
8
0
VERTEX
8
Meshes
62
254
10
0.0
20
0.0
30
0.0
70
128
71
9
72
1
73
8
74
16
0
SEQEND
0
ENDBLK
0
BLOCK
2
Circle
8
Meshes
70
64
10
0.0
20
0.0
30
0.0
3
Circle
0
POLYLINE
66
1
8
Meshes
70
64
71
183
72
259
0
VERTEX
8
Meshes
10
-0.140005
20
3.234229
30
8.938538
70
192
0
VERTEX
8
Meshes
10
0.461274
20
1.782614
30
8.938538
70
192
0
VERTEX
8
Meshes
10
-0.140005
20
0.330999
30
8.938538
70
192
0
VERTEX
8
Meshes
10
-1.591620
20
-0.270279
30
8.938538
70
192
0
VERTEX
8
Meshes
10
-3.043235
20
0.331000
30
8.938538
70
192
0
VERTEX
8
Meshes
10
-3.644513
20
1.782614
30
8.938538
70
192
0
VERTEX
8
Meshes
10
-3.043235
20
3.234229
30
8.938538
70
192
0
VERTEX
8
Meshes
10
-1.591620
20
3.835508
30
8.938538
70
192
0
VERTEX
8
Meshes
10
2.291932
20
1.918949
30
8.938538
70
192
0
VERTEX
8
Meshes
10
1.115102
20
1.431490
30
8.938538
70
192
0
VERTEX
8
Meshes
10
0.627643
20
0.254659
30
8.938538
70
192
0
VERTEX
8
Meshes
10
1.115102
20
-0.922171
30
8.938538
70
192
0
VERTEX
8
Meshes
10
2.291932
20
-1.409630
30
8.938538
70
192
0
VERTEX
8
Meshes
10
3.468763
20
-0.922171
30
8.938538
70
192
0
VERTEX
8
Meshes
10
3.956222
20
0.254659
30
8.938538
70
192
0
VERTEX
8
Meshes
10
3.468763
20
1.431490
30
8.938538
70
192
0
VERTEX
8
Meshes
10
7.602364
20
1.745203
30
8.938538
70
192
0
VERTEX
8
Meshes
10
8.219768
20
0.254659
30
8.938538
70
192
0
VERTEX
8
Meshes
10
7.602364
20
-1.235884
30
8.938538
70
192
0
VERTEX
8
Meshes
10
6.111820
20
-1.853288
30
8.938538
70
192
0
VERTEX
8
Meshes
10
4.621275
20
-1.235884
30
8.938538
70
192
0
VERTEX
8
Meshes
10
4.003873
20
0.254659
30
8.938538
70
192
0
VERTEX
8
Meshes
10
4.621275
20
1.745203
30
8.938538
70
192
0
VERTEX
8
Meshes
10
6.111819
20
2.362607
30
8.938538
70
192
0
VERTEX
8
Meshes
10
12.923951
20
2.298942
30
8.938538
70
192
0
VERTEX
8
Meshes
10
11.433408
20
1.681539
30
8.938538
70
192
0
VERTEX
8
Meshes
10
10.816006
20
0.190995
30
8.938538
70
192
0
VERTEX
8
Meshes
10
11.433408
20
-1.299549
30
8.938538
70
192
0
VERTEX
8
Meshes
10
12.923952
20
-1.916953
30
8.938538
70
192
0
VERTEX
8
Meshes
10
14.414495
20
-1.299549
30
8.938538
70
192
0
VERTEX
8
Meshes
10
15.031900
20
0.190995
30
8.938538
70
192
0
VERTEX
8
Meshes
10
14.414495
20
1.681539
30
8.938538
70
192
0
VERTEX
8
Meshes
10
21.226627
20
1.554209
30
8.938537
70
192
0
VERTEX
8
Meshes
10
21.844032
20
0.063665
30
8.938537
70
192
0
VERTEX
8
Meshes
10
21.226627
20
-1.426879
30
8.938537
70
192
0
VERTEX
8
Meshes
10
19.736084
20
-2.044282
30
8.938537
70
192
0
VERTEX
8
Meshes
10
18.245541
20
-1.426879
30
8.938537
70
192
0
VERTEX
8
Meshes
10
17.628138
20
0.063665
30
8.938537
70
192
0
VERTEX
8
Meshes
10
18.245541
20
1.554209
30
8.938537
70
192
0
VERTEX
8
Meshes
10
19.736084
20
2.171612
30
8.938537
70
192
0
VERTEX
8
Meshes
10
26.420887
20
2.362607
30
8.938537
70
192
0
VERTEX
8
Meshes
10
24.930344
20
1.745203
30
8.938537
70
192
0
VERTEX
8
Meshes
10
24.312941
20
0.254659
30
8.938537
70
192
0
VERTEX
8
Meshes
10
24.930344
20
-1.235884
30
8.938537
70
192
0
VERTEX
8
Meshes
10
26.420887
20
-1.853288
30
8.938537
70
192
0
VERTEX
8
Meshes
10
27.911430
20
-1.235884
30
8.938537
70
192
0
VERTEX
8
Meshes
10
28.528835
20
0.254659
30
8.938537
70
192
0
VERTEX
8
Meshes
10
27.911430
20
1.745203
30
8.938537
70
192
0
VERTEX
8
Meshes
10
31.915722
20
1.802278
30
8.938537
70
192
0
VERTEX
8
Meshes
10
32.372173
20
0.700313
30
8.938537
70
192
0
VERTEX
8
Meshes
10
31.915722
20
-0.401652
30
8.938537
70
192
0
VERTEX
8
Meshes
10
30.813757
20
-0.858101
30
8.938537
70
192
0
VERTEX
8
Meshes
10
29.711792
20
-0.401652
30
8.938537
70
192
0
VERTEX
8
Meshes
10
29.255344
20
0.700313
30
8.938537
70
192
0
VERTEX
8
Meshes
10
29.711792
20
1.802278
30
8.938537
70
192
0
VERTEX
8
Meshes
10
30.813757
20
2.258727
30
8.938537
70
192
0
VERTEX
8
Meshes
10
16.425516
20
1.610628
30
8.938537
70
192
0
VERTEX
8
Meshes
10
15.466700
20
1.213474
30
8.938537
70
192
0
VERTEX
8
Meshes
10
15.069547
20
0.254659
30
8.938537
70
192
0
VERTEX
8
Meshes
10
15.466700
20
-0.704155
30
8.938537
70
192
0
VERTEX
8
Meshes
10
16.425516
20
-1.101309
30
8.938537
70
192
0
VERTEX
8
Meshes
10
17.384329
20
-0.704155
30
8.938537
70
192
0
VERTEX
8
Meshes
10
17.781485
20
0.254659
30
8.938537
70
192
0
VERTEX
8
Meshes
10
17.384329
20
1.213474
30
8.938537
70
192
0
VERTEX
8
Meshes
10
23.941803
20
1.213474
30
8.938537
70
192
0
VERTEX
8
Meshes
10
24.338959
20
0.254659
30
8.938537
70
192
0
VERTEX
8
Meshes
10
23.941803
20
-0.704155
30
8.938537
70
192
0
VERTEX
8
Meshes
10
22.982990
20
-1.101309
30
8.938537
70
192
0
VERTEX
8
Meshes
10
22.024174
20
-0.704155
30
8.938537
70
192
0
VERTEX
8
Meshes
10
21.627020
20
0.254659
30
8.938537
70
192
0
VERTEX
8
Meshes
10
22.024174
20
1.213474
30
8.938537
70
192
0
VERTEX
8
Meshes
10
22.982988
20
1.631526
30
8.993235
70
192
0
VERTEX
8
Meshes
10
9.486055
20
1.674293
30
8.938538
70
192
0
VERTEX
8
Meshes
10
8.527239
20
1.277139
30
8.938538
70
192
0
VERTEX
8
Meshes
10
8.130085
20
0.318324
30
8.938538
70
192
0
VERTEX
8
Meshes
10
8.527239
20
-0.640490
30
8.938538
70
192
0
VERTEX
8
Meshes
10
9.486055
20
-1.037644
30
8.938538
70
192
0
VERTEX
8
Meshes
10
10.444868
20
-0.640490
30
8.938538
70
192
0
VERTEX
8
Meshes
10
10.842024
20
0.318324
30
8.938538
70
192
0
VERTEX
8
Meshes
10
10.444868
20
1.277139
30
8.938538
70
192
0
VERTEX
8
Meshes
10
2.315350
20
0.254260
30
8.938538
70
192
0
VERTEX
8
Meshes
10
2.315750
20
0.255225
30
8.938538
70
192
0
VERTEX
8
Meshes
10
6.088528
20
0.254676
30
8.938538
70
192
0
VERTEX
8
Meshes
10
6.087612
20
0.254270
30
8.938538
70
192
0
VERTEX
8
Meshes
10
-1.591654
20
1.782580
30
8.938538
70
192
0
VERTEX
8
Meshes
10
9.516752
20
0.318321
30
8.938538
70
192
0
VERTEX
8
Meshes
10
12.942532
20
0.190753
30
8.938538
70
192
0
VERTEX
8
Meshes
10
16.406504
20
0.254468
30
8.938538
70
192
0
VERTEX
8
Meshes
10
19.736057
20
0.063638
30
8.938537
70
192
0
VERTEX
8
Meshes
10
22.982910
20
0.254580
30
8.938537
70
192
0
VERTEX
8
Meshes
10
26.420683
20
0.254455
30
8.938537
70
192
0
VERTEX
8
Meshes
10
30.813713
20
0.700266
30
8.938537
70
192
0
VERTEX
8
Meshes
10
30.813673
20
0.700234
30
-8.535798
70
192
0
VERTEX
8
Meshes
10
26.420816
20
0.254597
30
-8.535798
70
192
0
VERTEX
8
Meshes
10
22.982943
20
0.234027
30
-8.590496
70
192
0
VERTEX
8
Meshes
10
19.735931
20
0.063519
30
-8.535798
70
192
0
VERTEX
8
Meshes
10
16.407249
20
0.254576
30
-8.535797
70
192
0
VERTEX
8
Meshes
10
16.406258
20
0.254223
30
-8.535797
70
192
0
VERTEX
8
Meshes
10
12.942548
20
0.190777
30
-8.535797
70
192
0
VERTEX
8
Meshes
10
9.516727
20
0.318303
30
-8.535797
70
192
0
VERTEX
8
Meshes
10
-1.591731
20
1.782511
30
-8.535797
70
192
0
VERTEX
8
Meshes
10
6.087918
20
0.254589
30
-8.535797
70
192
0
VERTEX
8
Meshes
10
2.315773
20
0.254747
30
-8.535797
70
192
0
VERTEX
8
Meshes
10
10.444864
20
1.277143
30
-8.535797
70
192
0
VERTEX
8
Meshes
10
10.842020
20
0.318328
30
-8.535797
70
192
0
VERTEX
8
Meshes
10
10.444864
20
-0.640486
30
-8.535797
70
192
0
VERTEX
8
Meshes
10
9.486052
20
-1.037640
30
-8.535797
70
192
0
VERTEX
8
Meshes
10
8.527235
20
-0.640486
30
-8.535797
70
192
0
VERTEX
8
Meshes
10
8.130081
20
0.318328
30
-8.535797
70
192
0
VERTEX
8
Meshes
10
8.527235
20
1.277143
30
-8.535797
70
192
0
VERTEX
8
Meshes
10
9.486052
20
1.674297
30
-8.535797
70
192
0
VERTEX
8
Meshes
10
22.982986
20
1.610632
30
-8.535798
70
192
0
VERTEX
8
Meshes
10
22.024170
20
1.213478
30
-8.535798
70
192
0
VERTEX
8
Meshes
10
21.627016
20
0.254663
30
-8.535798
70
192
0
VERTEX
8
Meshes
10
22.024170
20
-0.704151
30
-8.535798
70
192
0
VERTEX
8
Meshes
10
22.982986
20
-1.101305
30
-8.535798
70
192
0
VERTEX
8
Meshes
10
23.941799
20
-0.704151
30
-8.535798
70
192
0
VERTEX
8
Meshes
10
24.338955
20
0.254663
30
-8.535798
70
192
0
VERTEX
8
Meshes
10
23.941799
20
1.213478
30
-8.535798
70
192
0
VERTEX
8
Meshes
10
17.384325
20
1.213478
30
-8.535798
70
192
0
VERTEX
8
Meshes
10
17.781481
20
0.254663
30
-8.535798
70
192
0
VERTEX
8
Meshes
10
17.384325
20
-0.704151
30
-8.535798
70
192
0
VERTEX
8
Meshes
10
16.425512
20
-1.101305
30
-8.535798
70
192
0
VERTEX
8
Meshes
10
15.466696
20
-0.704151
30
-8.535798
70
192
0
VERTEX
8
Meshes
10
15.069543
20
0.254663
30
-8.535798
70
192
0
VERTEX
8
Meshes
10
15.466696
20
1.213478
30
-8.535798
70
192
0
VERTEX
8
Meshes
10
16.425512
20
1.610632
30
-8.535798
70
192
0
VERTEX
8
Meshes
10
30.813753
20
2.258730
30
-8.535798
70
192
0
VERTEX
8
Meshes
10
29.711788
20
1.802282
30
-8.535798
70
192
0
VERTEX
8
Meshes
10
29.255341
20
0.700317
30
-8.535798
70
192
0
VERTEX
8
Meshes
10
29.711788
20
-0.401648
30
-8.535798
70
192
0
VERTEX
8
Meshes
10
30.813753
20
-0.858097
30
-8.535798
70
192
0
VERTEX
8
Meshes
10
31.915718
20
-0.401648
30
-8.535798
70
192
0
VERTEX
8
Meshes
10
32.372169
20
0.700317
30
-8.535798
70
192
0
VERTEX
8
Meshes
10
31.915718
20
1.802282
30
-8.535798
70
192
0
VERTEX
8
Meshes
10
27.911427
20
1.745207
30
-8.535798
70
192
0
VERTEX
8
Meshes
10
28.528831
20
0.254663
30
-8.535798
70
192
0
VERTEX
8
Meshes
10
27.911427
20
-1.235880
30
-8.535798
70
192
0
VERTEX
8
Meshes
10
26.420883
20
-1.853284
30
-8.535798
70
192
0
VERTEX
8
Meshes
10
24.930340
20
-1.235880
30
-8.535798
70
192
0
VERTEX
8
Meshes
10
24.312937
20
0.254663
30
-8.535798
70
192
0
VERTEX
8
Meshes
10
24.930340
20
1.745207
30
-8.535798
70
192
0
VERTEX
8
Meshes
10
26.420883
20
2.362610
30
-8.535798
70
192
0
VERTEX
8
Meshes
10
19.736080
20
2.171616
30
-8.535798
70
192
0
VERTEX
8
Meshes
10
18.245537
20
1.554213
30
-8.535798
70
192
0
VERTEX
8
Meshes
10
17.628134
20
0.063669
30
-8.535798
70
192
0
VERTEX
8
Meshes
10
18.245537
20
-1.426875
30
-8.535798
70
192
0
VERTEX
8
Meshes
10
19.736080
20
-2.044278
30
-8.535798
70
192
0
VERTEX
8
Meshes
10
21.226624
20
-1.426875
30
-8.535798
70
192
0
VERTEX
8
Meshes
10
21.844028
20
0.063669
30
-8.535798
70
192
0
VERTEX
8
Meshes
10
21.226624
20
1.554213
30
-8.535798
70
192
0
VERTEX
8
Meshes
10
14.414492
20
1.681543
30
-8.535797
70
192
0
VERTEX
8
Meshes
10
15.031897
20
0.190999
30
-8.535797
70
192
0
VERTEX
8
Meshes
10
14.414492
20
-1.299545
30
-8.535797
70
192
0
VERTEX
8
Meshes
10
12.923948
20
-1.916949
30
-8.535797
70
192
0
VERTEX
8
Meshes
10
11.433404
20
-1.299545
30
-8.535797
70
192
0
VERTEX
8
Meshes
10
10.816002
20
0.190999
30
-8.535797
70
192
0
VERTEX
8
Meshes
10
11.433404
20
1.681543
30
-8.535797
70
192
0
VERTEX
8
Meshes
10
12.923947
20
2.298946
30
-8.535797
70
192
0
VERTEX
8
Meshes
10
6.111815
20
2.362611
30
-8.535797
70
192
0
VERTEX
8
Meshes
10
4.621272
20
1.745207
30
-8.535797
70
192
0
VERTEX
8
Meshes
10
4.003869
20
0.254663
30
-8.535797
70
192
0
VERTEX
8
Meshes
10
4.621272
20
-1.235880
30
-8.535797
70
192
0
VERTEX
8
Meshes
10
6.111816
20
-1.853284
30
-8.535797
70
192
0
VERTEX
8
Meshes
10
7.602360
20
-1.235880
30
-8.535797
70
192
0
VERTEX
8
Meshes
10
8.219764
20
0.254663
30
-8.535797
70
192
0
VERTEX
8
Meshes
10
7.602360
20
1.745207
30
-8.535797
70
192
0
VERTEX
8
Meshes
10
3.468759
20
1.431494
30
-8.535797
70
192
0
VERTEX
8
Meshes
10
3.956218
20
0.254663
30
-8.535797
70
192
0
VERTEX
8
Meshes
10
3.468759
20
-0.922167
30
-8.535797
70
192
0
VERTEX
8
Meshes
10
2.291928
20
-1.409626
30
-8.535797
70
192
0
VERTEX
8
Meshes
10
1.115098
20
-0.922167
30
-8.535797
70
192
0
VERTEX
8
Meshes
10
0.627639
20
0.254663
30
-8.535797
70
192
0
VERTEX
8
Meshes
10
1.115098
20
1.431494
30
-8.535797
70
192
0
VERTEX
8
Meshes
10
2.291928
20
1.918953
30
-8.535797
70
192
0
VERTEX
8
Meshes
10
-1.591624
20
3.835512
30
-8.535797
70
192
0
VERTEX
8
Meshes
10
-3.043239
20
3.234233
30
-8.535797
70
192
0
VERTEX
8
Meshes
10
-3.644517
20
1.782618
30
-8.535797
70
192
0
VERTEX
8
Meshes
10
-3.043239
20
0.331003
30
-8.535797
70
192
0
VERTEX
8
Meshes
10
-1.591624
20
-0.270275
30
-8.535797
70
192
0
VERTEX
8
Meshes
10
-0.140009
20
0.331003
30
-8.535797
70
192
0
VERTEX
8
Meshes
10
0.461270
20
1.782618
30
-8.535797
70
192
0
VERTEX
8
Meshes
10
-0.140009
20
3.234233
30
-8.535797
70
192
0
VERTEX
8
Meshes
62
254
10
0.0
20
0.0
30
0.0
70
128
71
9
72
16
73
82
0
VERTEX
8
Meshes
62
254
10
0.0
20
0.0
30
0.0
70
128
71
9
72
10
73
81
74
82
0
VERTEX
8
Meshes
62
254
10
0.0
20
0.0
30
0.0
70
128
71
11
72
10
73
81
0
VERTEX
8
Meshes
62
254
10
0.0
20
0.0
30
0.0
70
128
71
11
72
12
73
81
0
VERTEX
8
Meshes
62
254
10
0.0
20
0.0
30
0.0
70
128
71
12
72
13
73
81
0
VERTEX
8
Meshes
62
254
10
0.0
20
0.0
30
0.0
70
128
71
13
72
14
73
81
0
VERTEX
8
Meshes
62
254
10
0.0
20
0.0
30
0.0
70
128
71
14
72
15
73
82
74
81
0
VERTEX
8
Meshes
62
254
10
0.0
20
0.0
30
0.0
70
128
71
15
72
16
73
82
0
VERTEX
8
Meshes
62
254
10
0.0
20
0.0
30
0.0
70
128
71
18
72
17
73
83
0
VERTEX
8
Meshes
62
254
10
0.0
20
0.0
30
0.0
70
128
71
18
72
19
73
84
74
83
0
VERTEX
8
Meshes
62
254
10
0.0
20
0.0
30
0.0
70
128
71
19
72
20
73
84
0
VERTEX
8
Meshes
62
254
10
0.0
20
0.0
30
0.0
70
128
71
20
72
21
73
84
0
VERTEX
8
Meshes
62
254
10
0.0
20
0.0
30
0.0
70
128
71
22
72
21
73
84
0
VERTEX
8
Meshes
62
254
10
0.0
20
0.0
30
0.0
70
128
71
22
72
23
73
84
0
VERTEX
8
Meshes
62
254
10
0.0
20
0.0
30
0.0
70
128
71
23
72
24
73
83
74
84
0
VERTEX
8
Meshes
62
254
10
0.0
20
0.0
30
0.0
70
128
71
24
72
17
73
83
0
VERTEX
8
Meshes
62
254
10
0.0
20
0.0
30
0.0
70
128
71
1
72
2
73
85
0
VERTEX
8
Meshes
62
254
10
0.0
20
0.0
30
0.0
70
128
71
2
72
3
73
85
0
VERTEX
8
Meshes
62
254
10
0.0
20
0.0
30
0.0
70
128
71
3
72
4
73
85
0
VERTEX
8
Meshes
62
254
10
0.0
20
0.0
30
0.0
70
128
71
4
72
5
73
85
0
VERTEX
8
Meshes
62
254
10
0.0
20
0.0
30
0.0
70
128
71
5
72
6
73
85
0
VERTEX
8
Meshes
62
254
10
0.0
20
0.0
30
0.0
70
128
71
6
72
7
73
85
0
VERTEX
8
Meshes
62
254
10
0.0
20
0.0
30
0.0
70
128
71
7
72
8
73
85
0
VERTEX
8
Meshes
62
254
10
0.0
20
0.0
30
0.0
70
128
71
8
72
1
73
85
0
VERTEX
8
Meshes
62
254
10
0.0
20
0.0
30
0.0
70
128
71
80
72
73
73
86
0
VERTEX
8
Meshes
62
254
10
0.0
20
0.0
30
0.0
70
128
71
74
72
73
73
86
0
VERTEX
8
Meshes
62
254
10
0.0
20
0.0
30
0.0
70
128
71
74
72
75
73
86
0
VERTEX
8
Meshes
62
254
10
0.0
20
0.0
30
0.0
70
128
71
75
72
76
73
86
0
VERTEX
8
Meshes
62
254
10
0.0
20
0.0
30
0.0
70
128
71
76
72
77
73
86
0
VERTEX
8
Meshes
62
254
10
0.0
20
0.0
30
0.0
70
128
71
78
72
77
73
86
0
VERTEX
8
Meshes
62
254
10
0.0
20
0.0
30
0.0
70
128
71
78
72
79
73
86
0
VERTEX
8
Meshes
62
254
10
0.0
20
0.0
30
0.0
70
128
71
80
72
79
73
86
0
VERTEX
8
Meshes
62
254
10
0.0
20
0.0
30
0.0
70
128
71
25
72
32
73
87
0
VERTEX
8
Meshes
62
254
10
0.0
20
0.0
30
0.0
70
128
71
25
72
26
73
87
0
VERTEX
8
Meshes
62
254
10
0.0
20
0.0
30
0.0
70
128
71
26
72
27
73
87
0
VERTEX
8
Meshes
62
254
10
0.0
20
0.0
30
0.0
70
128
71
28
72
27
73
87
0
VERTEX
8
Meshes
62
254
10
0.0
20
0.0
30
0.0
70
128
71
28
72
29
73
87
0
VERTEX
8
Meshes
62
254
10
0.0
20
0.0
30
0.0
70
128
71
30
72
29
73
87
0
VERTEX
8
Meshes
62
254
10
0.0
20
0.0
30
0.0
70
128
71
30
72
31
73
87
0
VERTEX
8
Meshes
62
254
10
0.0
20
0.0
30
0.0
70
128
71
31
72
32
73
87
0
VERTEX
8
Meshes
62
254
10
0.0
20
0.0
30
0.0
70
128
71
64
72
57
73
88
0
VERTEX
8
Meshes
62
254
10
0.0
20
0.0
30
0.0
70
128
71
57
72
58
73
88
0
VERTEX
8
Meshes
62
254
10
0.0
20
0.0
30
0.0
70
128
71
58
72
59
73
88
0
VERTEX
8
Meshes
62
254
10
0.0
20
0.0
30
0.0
70
128
71
59
72
60
73
88
0
VERTEX
8
Meshes
62
254
10
0.0
20
0.0
30
0.0
70
128
71
61
72
60
73
88
0
VERTEX
8
Meshes
62
254
10
0.0
20
0.0
30
0.0
70
128
71
62
72
61
73
88
0
VERTEX
8
Meshes
62
254
10
0.0
20
0.0
30
0.0
70
128
71
62
72
63
73
88
0
VERTEX
8
Meshes
62
254
10
0.0
20
0.0
30
0.0
70
128
71
64
72
63
73
88
0
VERTEX
8
Meshes
62
254
10
0.0
20
0.0
30
0.0
70
128
71
34
72
33
73
89
0
VERTEX
8
Meshes
62
254
10
0.0
20
0.0
30
0.0
70
128
71
34
72
35
73
89
0
VERTEX
8
Meshes
62
254
10
0.0
20
0.0
30
0.0
70
128
71
36
72
35
73
89
0
VERTEX
8
Meshes
62
254
10
0.0
20
0.0
30
0.0
70
128
71
36
72
37
73
89
0
VERTEX
8
Meshes
62
254
10
0.0
20
0.0
30
0.0
70
128
71
37
72
38
73
89
0
VERTEX
8
Meshes
62
254
10
0.0
20
0.0
30
0.0
70
128
71
38
72
39
73
89
0
VERTEX
8
Meshes
62
254
10
0.0
20
0.0
30
0.0
70
128
71
39
72
40
73
89
0
VERTEX
8
Meshes
62
254
10
0.0
20
0.0
30
0.0
70
128
71
40
72
33
73
89
0
VERTEX
8
Meshes
62
254
10
0.0
20
0.0
30
0.0
70
128
71
65
72
66
73
90
0
VERTEX
8
Meshes
62
254
10
0.0
20
0.0
30
0.0
70
128
71
67
72
66
73
90
0
VERTEX
8
Meshes
62
254
10
0.0
20
0.0
30
0.0
70
128
71
68
72
67
73
90
0
VERTEX
8
Meshes
62
254
10
0.0
20
0.0
30
0.0
70
128
71
68
72
69
73
90
0
VERTEX
8
Meshes
62
254
10
0.0
20
0.0
30
0.0
70
128
71
70
72
69
73
90
0
VERTEX
8
Meshes
62
254
10
0.0
20
0.0
30
0.0
70
128
71
70
72
71
73
90
0
VERTEX
8
Meshes
62
254
10
0.0
20
0.0
30
0.0
70
128
71
72
72
71
73
90
0
VERTEX
8
Meshes
62
254
10
0.0
20
0.0
30
0.0
70
128
71
65
72
72
73
90
0
VERTEX
8
Meshes
62
254
10
0.0
20
0.0
30
0.0
70
128
71
41
72
48
73
91
0
VERTEX
8
Meshes
62
254
10
0.0
20
0.0
30
0.0
70
128
71
41
72
42
73
91
0
VERTEX
8
Meshes
62
254
10
0.0
20
0.0
30
0.0
70
128
71
42
72
43
73
91
0
VERTEX
8
Meshes
62
254
10
0.0
20
0.0
30
0.0
70
128
71
44
72
43
73
91
0
VERTEX
8
Meshes
62
254
10
0.0
20
0.0
30
0.0
70
128
71
44
72
45
73
91
0
VERTEX
8
Meshes
62
254
10
0.0
20
0.0
30
0.0
70
128
71
46
72
45
73
91
0
VERTEX
8
Meshes
62
254
10
0.0
20
0.0
30
0.0
70
128
71
47
72
46
73
91
0
VERTEX
8
Meshes
62
254
10
0.0
20
0.0
30
0.0
70
128
71
47
72
48
73
91
0
VERTEX
8
Meshes
62
254
10
0.0
20
0.0
30
0.0
70
128
71
49
72
50
73
92
0
VERTEX
8
Meshes
62
254
10
0.0
20
0.0
30
0.0
70
128
71
51
72
50
73
92
0
VERTEX
8
Meshes
62
254
10
0.0
20
0.0
30
0.0
70
128
71
51
72
52
73
92
0
VERTEX
8
Meshes
62
254
10
0.0
20
0.0
30
0.0
70
128
71
53
72
52
73
92
0
VERTEX
8
Meshes
62
254
10
0.0
20
0.0
30
0.0
70
128
71
54
72
53
73
92
0
VERTEX
8
Meshes
62
254
10
0.0
20
0.0
30
0.0
70
128
71
54
72
55
73
92
0
VERTEX
8
Meshes
62
254
10
0.0
20
0.0
30
0.0
70
128
71
56
72
55
73
92
0
VERTEX
8
Meshes
62
254
10
0.0
20
0.0
30
0.0
70
128
71
49
72
56
73
92
0
VERTEX
8
Meshes
62
254
10
0.0
20
0.0
30
0.0
70
128
71
91
72
66
73
118
74
94
0
VERTEX
8
Meshes
62
254
10
0.0
20
0.0
30
0.0
70
128
71
90
72
34
73
150
74
95
0
VERTEX
8
Meshes
62
254
10
0.0
20
0.0
30
0.0
70
128
71
90
72
43
73
141
74
95
0
VERTEX
8
Meshes
62
254
10
0.0
20
0.0
30
0.0
70
128
71
89
72
63
73
121
74
96
0
VERTEX
8
Meshes
62
254
10
0.0
20
0.0
30
0.0
70
128
71
89
72
70
73
114
74
96
0
VERTEX
8
Meshes
62
254
10
0.0
20
0.0
30
0.0
70
128
71
88
72
31
73
153
74
98
0
VERTEX
8
Meshes
62
254
10
0.0
20
0.0
30
0.0
70
128
71
88
72
38
73
146
74
97
0
VERTEX
8
Meshes
62
254
10
0.0
20
0.0
30
0.0
70
128
71
88
72
98
73
97
0
VERTEX
8
Meshes
62
254
10
0.0
20
0.0
30
0.0
70
128
71
87
72
59
73
125
74
99
0
VERTEX
8
Meshes
62
254
10
0.0
20
0.0
30
0.0
70
128
71
87
72
79
73
105
74
99
0
VERTEX
8
Meshes
62
254
10
0.0
20
0.0
30
0.0
70
128
71
86
72
18
73
166
74
100
0
VERTEX
8
Meshes
62
254
10
0.0
20
0.0
30
0.0
70
128
71
86
72
27
73
157
74
100
0
VERTEX
8
Meshes
62
254
10
0.0
20
0.0
30
0.0
70
128
71
84
72
15
73
169
74
102
0
VERTEX
8
Meshes
62
254
10
0.0
20
0.0
30
0.0
70
128
71
83
72
75
73
109
74
102
0
VERTEX
8
Meshes
62
254
10
0.0
20
0.0
30
0.0
70
128
71
83
72
84
73
102
0
VERTEX
8
Meshes
62
254
10
0.0
20
0.0
30
0.0
70
128
71
82
72
22
73
162
74
103
0
VERTEX
8
Meshes
62
254
10
0.0
20
0.0
30
0.0
70
128
71
81
72
82
73
103
0
VERTEX
8
Meshes
62
254
10
0.0
20
0.0
30
0.0
70
128
71
1
72
2
73
182
74
183
0
VERTEX
8
Meshes
62
254
10
0.0
20
0.0
30
0.0
70
128
71
2
72
3
73
181
74
182
0
VERTEX
8
Meshes
62
254
10
0.0
20
0.0
30
0.0
70
128
71
3
72
4
73
180
74
181
0
VERTEX
8
Meshes
62
254
10
0.0
20
0.0
30
0.0
70
128
71
4
72
5
73
179
74
180
0
VERTEX
8
Meshes
62
254
10
0.0
20
0.0
30
0.0
70
128
71
5
72
6
73
178
74
179
0
VERTEX
8
Meshes
62
254
10
0.0
20
0.0
30
0.0
70
128
71
6
72
7
73
177
74
178
0
VERTEX
8
Meshes
62
254
10
0.0
20
0.0
30
0.0
70
128
71
7
72
8
73
176
74
177
0
VERTEX
8
Meshes
62
254
10
0.0
20
0.0
30
0.0
70
128
71
8
72
1
73
183
74
176
0
VERTEX
8
Meshes
62
254
10
0.0
20
0.0
30
0.0
70
128
71
9
72
16
73
168
74
175
0
VERTEX
8
Meshes
62
254
10
0.0
20
0.0
30
0.0
70
128
71
9
72
10
73
174
74
175
0
VERTEX
8
Meshes
62
254
10
0.0
20
0.0
30
0.0
70
128
71
11
72
10
73
174
74
173
0
VERTEX
8
Meshes
62
254
10
0.0
20
0.0
30
0.0
70
128
71
11
72
12
73
172
74
173
0
VERTEX
8
Meshes
62
254
10
0.0
20
0.0
30
0.0
70
128
71
12
72
13
73
171
74
172
0
VERTEX
8
Meshes
62
254
10
0.0
20
0.0
30
0.0
70
128
71
13
72
14
73
170
74
171
0
VERTEX
8
Meshes
62
254
10
0.0
20
0.0
30
0.0
70
128
71
14
72
15
73
169
74
170
0
VERTEX
8
Meshes
62
254
10
0.0
20
0.0
30
0.0
70
128
71
15
72
16
73
168
74
169
0
VERTEX
8
Meshes
62
254
10
0.0
20
0.0
30
0.0
70
128
71
18
72
17
73
167
74
166
0
VERTEX
8
Meshes
62
254
10
0.0
20
0.0
30
0.0
70
128
71
18
72
19
73
165
74
166
0
VERTEX
8
Meshes
62
254
10
0.0
20
0.0
30
0.0
70
128
71
19
72
20
73
164
74
165
0
VERTEX
8
Meshes
62
254
10
0.0
20
0.0
30
0.0
70
128
71
20
72
21
73
163
74
164
0
VERTEX
8
Meshes
62
254
10
0.0
20
0.0
30
0.0
70
128
71
22
72
21
73
163
74
162
0
VERTEX
8
Meshes
62
254
10
0.0
20
0.0
30
0.0
70
128
71
22
72
23
73
161
74
162
0
VERTEX
8
Meshes
62
254
10
0.0
20
0.0
30
0.0
70
128
71
23
72
24
73
160
74
161
0
VERTEX
8
Meshes
62
254
10
0.0
20
0.0
30
0.0
70
128
71
24
72
17
73
167
74
160
0
VERTEX
8
Meshes
62
254
10
0.0
20
0.0
30
0.0
70
128
71
25
72
32
73
152
74
159
0
VERTEX
8
Meshes
62
254
10
0.0
20
0.0
30
0.0
70
128
71
25
72
26
73
158
74
159
0
VERTEX
8
Meshes
62
254
10
0.0
20
0.0
30
0.0
70
128
71
26
72
27
73
157
74
158
0
VERTEX
8
Meshes
62
254
10
0.0
20
0.0
30
0.0
70
128
71
28
72
27
73
157
74
156
0
VERTEX
8
Meshes
62
254
10
0.0
20
0.0
30
0.0
70
128
71
28
72
29
73
155
74
156
0
VERTEX
8
Meshes
62
254
10
0.0
20
0.0
30
0.0
70
128
71
30
72
29
73
155
74
154
0
VERTEX
8
Meshes
62
254
10
0.0
20
0.0
30
0.0
70
128
71
30
72
31
73
153
74
154
0
VERTEX
8
Meshes
62
254
10
0.0
20
0.0
30
0.0
70
128
71
31
72
32
73
152
74
153
0
VERTEX
8
Meshes
62
254
10
0.0
20
0.0
30
0.0
70
128
71
34
72
33
73
151
74
150
0
VERTEX
8
Meshes
62
254
10
0.0
20
0.0
30
0.0
70
128
71
34
72
35
73
149
74
150
0
VERTEX
8
Meshes
62
254
10
0.0
20
0.0
30
0.0
70
128
71
36
72
35
73
149
74
148
0
VERTEX
8
Meshes
62
254
10
0.0
20
0.0
30
0.0
70
128
71
36
72
37
73
147
74
148
0
VERTEX
8
Meshes
62
254
10
0.0
20
0.0
30
0.0
70
128
71
37
72
38
73
146
74
147
0
VERTEX
8
Meshes
62
254
10
0.0
20
0.0
30
0.0
70
128
71
38
72
39
73
145
74
146
0
VERTEX
8
Meshes
62
254
10
0.0
20
0.0
30
0.0
70
128
71
39
72
40
73
144
74
145
0
VERTEX
8
Meshes
62
254
10
0.0
20
0.0
30
0.0
70
128
71
40
72
33
73
151
74
144
0
VERTEX
8
Meshes
62
254
10
0.0
20
0.0
30
0.0
70
128
71
41
72
48
73
136
74
143
0
VERTEX
8
Meshes
62
254
10
0.0
20
0.0
30
0.0
70
128
71
41
72
42
73
142
74
143
0
VERTEX
8
Meshes
62
254
10
0.0
20
0.0
30
0.0
70
128
71
42
72
43
73
141
74
142
0
VERTEX
8
Meshes
62
254
10
0.0
20
0.0
30
0.0
70
128
71
44
72
43
73
141
74
140
0
VERTEX
8
Meshes
62
254
10
0.0
20
0.0
30
0.0
70
128
71
44
72
45
73
139
74
140
0
VERTEX
8
Meshes
62
254
10
0.0
20
0.0
30
0.0
70
128
71
46
72
45
73
139
74
138
0
VERTEX
8
Meshes
62
254
10
0.0
20
0.0
30
0.0
70
128
71
47
72
46
73
138
74
137
0
VERTEX
8
Meshes
62
254
10
0.0
20
0.0
30
0.0
70
128
71
47
72
48
73
136
74
137
0
VERTEX
8
Meshes
62
254
10
0.0
20
0.0
30
0.0
70
128
71
49
72
50
73
134
74
135
0
VERTEX
8
Meshes
62
254
10
0.0
20
0.0
30
0.0
70
128
71
51
72
50
73
134
74
133
0
VERTEX
8
Meshes
62
254
10
0.0
20
0.0
30
0.0
70
128
71
51
72
52
73
132
74
133
0
VERTEX
8
Meshes
62
254
10
0.0
20
0.0
30
0.0
70
128
71
53
72
52
73
132
74
131
0
VERTEX
8
Meshes
62
254
10
0.0
20
0.0
30
0.0
70
128
71
54
72
53
73
131
74
130
0
VERTEX
8
Meshes
62
254
10
0.0
20
0.0
30
0.0
70
128
71
54
72
55
73
129
74
130
0
VERTEX
8
Meshes
62
254
10
0.0
20
0.0
30
0.0
70
128
71
56
72
55
73
129
74
128
0
VERTEX
8
Meshes
62
254
10
0.0
20
0.0
30
0.0
70
128
71
49
72
56
73
128
74
135
0
VERTEX
8
Meshes
62
254
10
0.0
20
0.0
30
0.0
70
128
71
64
72
57
73
127
74
120
0
VERTEX
8
Meshes
62
254
10
0.0
20
0.0
30
0.0
70
128
71
57
72
58
73
126
74
127
0
VERTEX
8
Meshes
62
254
10
0.0
20
0.0
30
0.0
70
128
71
58
72
59
73
125
74
126
0
VERTEX
8
Meshes
62
254
10
0.0
20
0.0
30
0.0
70
128
71
59
72
60
73
124
74
125
0
VERTEX
8
Meshes
62
254
10
0.0
20
0.0
30
0.0
70
128
71
61
72
60
73
124
74
123
0
VERTEX
8
Meshes
62
254
10
0.0
20
0.0
30
0.0
70
128
71
62
72
61
73
123
74
122
0
VERTEX
8
Meshes
62
254
10
0.0
20
0.0
30
0.0
70
128
71
62
72
63
73
121
74
122
0
VERTEX
8
Meshes
62
254
10
0.0
20
0.0
30
0.0
70
128
71
64
72
63
73
121
74
120
0
VERTEX
8
Meshes
62
254
10
0.0
20
0.0
30
0.0
70
128
71
65
72
66
73
118
74
119
0
VERTEX
8
Meshes
62
254
10
0.0
20
0.0
30
0.0
70
128
71
67
72
66
73
118
74
117
0
VERTEX
8
Meshes
62
254
10
0.0
20
0.0
30
0.0
70
128
71
68
72
67
73
117
74
116
0
VERTEX
8
Meshes
62
254
10
0.0
20
0.0
30
0.0
70
128
71
68
72
69
73
115
74
116
0
VERTEX
8
Meshes
62
254
10
0.0
20
0.0
30
0.0
70
128
71
70
72
69
73
115
74
114
0
VERTEX
8
Meshes
62
254
10
0.0
20
0.0
30
0.0
70
128
71
70
72
71
73
113
74
114
0
VERTEX
8
Meshes
62
254
10
0.0
20
0.0
30
0.0
70
128
71
72
72
71
73
113
74
112
0
VERTEX
8
Meshes
62
254
10
0.0
20
0.0
30
0.0
70
128
71
65
72
72
73
112
74
119
0
VERTEX
8
Meshes
62
254
10
0.0
20
0.0
30
0.0
70
128
71
80
72
73
73
111
74
104
0
VERTEX
8
Meshes
62
254
10
0.0
20
0.0
30
0.0
70
128
71
74
72
73
73
111
74
110
0
VERTEX
8
Meshes
62
254
10
0.0
20
0.0
30
0.0
70
128
71
74
72
75
73
109
74
110
0
VERTEX
8
Meshes
62
254
10
0.0
20
0.0
30
0.0
70
128
71
75
72
76
73
108
74
109
0
VERTEX
8
Meshes
62
254
10
0.0
20
0.0
30
0.0
70
128
71
76
72
77
73
107
74
108
0
VERTEX
8
Meshes
62
254
10
0.0
20
0.0
30
0.0
70
128
71
78
72
77
73
107
74
106
0
VERTEX
8
Meshes
62
254
10
0.0
20
0.0
30
0.0
70
128
71
78
72
79
73
105
74
106
0
VERTEX
8
Meshes
62
254
10
0.0
20
0.0
30
0.0
70
128
71
80
72
79
73
105
74
104
0
VERTEX
8
Meshes
62
254
10
0.0
20
0.0
30
0.0
70
128
71
175
72
168
73
103
0
VERTEX
8
Meshes
62
254
10
0.0
20
0.0
30
0.0
70
128
71
175
72
174
73
103
0
VERTEX
8
Meshes
62
254
10
0.0
20
0.0
30
0.0
70
128
71
173
72
174
73
103
0
VERTEX
8
Meshes
62
254
10
0.0
20
0.0
30
0.0
70
128
71
173
72
172
73
103
0
VERTEX
8
Meshes
62
254
10
0.0
20
0.0
30
0.0
70
128
71
172
72
171
73
103
0
VERTEX
8
Meshes
62
254
10
0.0
20
0.0
30
0.0
70
128
71
171
72
170
73
103
0
VERTEX
8
Meshes
62
254
10
0.0
20
0.0
30
0.0
70
128
71
170
72
169
73
103
0
VERTEX
8
Meshes
62
254
10
0.0
20
0.0
30
0.0
70
128
71
169
72
168
73
103
0
VERTEX
8
Meshes
62
254
10
0.0
20
0.0
30
0.0
70
128
71
166
72
167
73
102
0
VERTEX
8
Meshes
62
254
10
0.0
20
0.0
30
0.0
70
128
71
166
72
165
73
102
0
VERTEX
8
Meshes
62
254
10
0.0
20
0.0
30
0.0
70
128
71
165
72
164
73
102
0
VERTEX
8
Meshes
62
254
10
0.0
20
0.0
30
0.0
70
128
71
164
72
163
73
102
0
VERTEX
8
Meshes
62
254
10
0.0
20
0.0
30
0.0
70
128
71
162
72
163
73
102
0
VERTEX
8
Meshes
62
254
10
0.0
20
0.0
30
0.0
70
128
71
162
72
161
73
102
0
VERTEX
8
Meshes
62
254
10
0.0
20
0.0
30
0.0
70
128
71
161
72
160
73
102
0
VERTEX
8
Meshes
62
254
10
0.0
20
0.0
30
0.0
70
128
71
160
72
167
73
102
0
VERTEX
8
Meshes
62
254
10
0.0
20
0.0
30
0.0
70
128
71
183
72
182
73
101
0
VERTEX
8
Meshes
62
254
10
0.0
20
0.0
30
0.0
70
128
71
182
72
181
73
101
0
VERTEX
8
Meshes
62
254
10
0.0
20
0.0
30
0.0
70
128
71
181
72
180
73
101
0
VERTEX
8
Meshes
62
254
10
0.0
20
0.0
30
0.0
70
128
71
180
72
179
73
101
0
VERTEX
8
Meshes
62
254
10
0.0
20
0.0
30
0.0
70
128
71
179
72
178
73
101
0
VERTEX
8
Meshes
62
254
10
0.0
20
0.0
30
0.0
70
128
71
178
72
177
73
101
0
VERTEX
8
Meshes
62
254
10
0.0
20
0.0
30
0.0
70
128
71
177
72
176
73
101
0
VERTEX
8
Meshes
62
254
10
0.0
20
0.0
30
0.0
70
128
71
176
72
183
73
101
0
VERTEX
8
Meshes
62
254
10
0.0
20
0.0
30
0.0
70
128
71
104
72
111
73
100
0
VERTEX
8
Meshes
62
254
10
0.0
20
0.0
30
0.0
70
128
71
110
72
111
73
100
0
VERTEX
8
Meshes
62
254
10
0.0
20
0.0
30
0.0
70
128
71
110
72
109
73
100
0
VERTEX
8
Meshes
62
254
10
0.0
20
0.0
30
0.0
70
128
71
109
72
108
73
100
0
VERTEX
8
Meshes
62
254
10
0.0
20
0.0
30
0.0
70
128
71
108
72
107
73
100
0
VERTEX
8
Meshes
62
254
10
0.0
20
0.0
30
0.0
70
128
71
106
72
107
73
100
0
VERTEX
8
Meshes
62
254
10
0.0
20
0.0
30
0.0
70
128
71
106
72
105
73
100
0
VERTEX
8
Meshes
62
254
10
0.0
20
0.0
30
0.0
70
128
71
104
72
105
73
100
0
VERTEX
8
Meshes
62
254
10
0.0
20
0.0
30
0.0
70
128
71
159
72
152
73
99
0
VERTEX
8
Meshes
62
254
10
0.0
20
0.0
30
0.0
70
128
71
159
72
158
73
99
0
VERTEX
8
Meshes
62
254
10
0.0
20
0.0
30
0.0
70
128
71
158
72
157
73
99
0
VERTEX
8
Meshes
62
254
10
0.0
20
0.0
30
0.0
70
128
71
156
72
157
73
99
0
VERTEX
8
Meshes
62
254
10
0.0
20
0.0
30
0.0
70
128
71
156
72
155
73
99
0
VERTEX
8
Meshes
62
254
10
0.0
20
0.0
30
0.0
70
128
71
154
72
155
73
99
0
VERTEX
8
Meshes
62
254
10
0.0
20
0.0
30
0.0
70
128
71
154
72
153
73
99
0
VERTEX
8
Meshes
62
254
10
0.0
20
0.0
30
0.0
70
128
71
153
72
152
73
99
0
VERTEX
8
Meshes
62
254
10
0.0
20
0.0
30
0.0
70
128
71
120
72
127
73
97
0
VERTEX
8
Meshes
62
254
10
0.0
20
0.0
30
0.0
70
128
71
127
72
126
73
98
74
97
0
VERTEX
8
Meshes
62
254
10
0.0
20
0.0
30
0.0
70
128
71
126
72
125
73
98
0
VERTEX
8
Meshes
62
254
10
0.0
20
0.0
30
0.0
70
128
71
125
72
124
73
98
0
VERTEX
8
Meshes
62
254
10
0.0
20
0.0
30
0.0
70
128
71
123
72
124
73
98
0
VERTEX
8
Meshes
62
254
10
0.0
20
0.0
30
0.0
70
128
71
122
72
123
73
98
0
VERTEX
8
Meshes
62
254
10
0.0
20
0.0
30
0.0
70
128
71
122
72
121
73
97
74
98
0
VERTEX
8
Meshes
62
254
10
0.0
20
0.0
30
0.0
70
128
71
120
72
121
73
97
0
VERTEX
8
Meshes
62
254
10
0.0
20
0.0
30
0.0
70
128
71
150
72
151
73
96
0
VERTEX
8
Meshes
62
254
10
0.0
20
0.0
30
0.0
70
128
71
150
72
149
73
96
0
VERTEX
8
Meshes
62
254
10
0.0
20
0.0
30
0.0
70
128
71
148
72
149
73
96
0
VERTEX
8
Meshes
62
254
10
0.0
20
0.0
30
0.0
70
128
71
148
72
147
73
96
0
VERTEX
8
Meshes
62
254
10
0.0
20
0.0
30
0.0
70
128
71
147
72
146
73
96
0
VERTEX
8
Meshes
62
254
10
0.0
20
0.0
30
0.0
70
128
71
146
72
145
73
96
0
VERTEX
8
Meshes
62
254
10
0.0
20
0.0
30
0.0
70
128
71
145
72
144
73
96
0
VERTEX
8
Meshes
62
254
10
0.0
20
0.0
30
0.0
70
128
71
144
72
151
73
96
0
VERTEX
8
Meshes
62
254
10
0.0
20
0.0
30
0.0
70
128
71
119
72
118
73
95
0
VERTEX
8
Meshes
62
254
10
0.0
20
0.0
30
0.0
70
128
71
117
72
118
73
95
0
VERTEX
8
Meshes
62
254
10
0.0
20
0.0
30
0.0
70
128
71
116
72
117
73
95
0
VERTEX
8
Meshes
62
254
10
0.0
20
0.0
30
0.0
70
128
71
116
72
115
73
95
0
VERTEX
8
Meshes
62
254
10
0.0
20
0.0
30
0.0
70
128
71
114
72
115
73
95
0
VERTEX
8
Meshes
62
254
10
0.0
20
0.0
30
0.0
70
128
71
114
72
113
73
95
0
VERTEX
8
Meshes
62
254
10
0.0
20
0.0
30
0.0
70
128
71
112
72
113
73
95
0
VERTEX
8
Meshes
62
254
10
0.0
20
0.0
30
0.0
70
128
71
119
72
112
73
95
0
VERTEX
8
Meshes
62
254
10
0.0
20
0.0
30
0.0
70
128
71
143
72
136
73
94
0
VERTEX
8
Meshes
62
254
10
0.0
20
0.0
30
0.0
70
128
71
143
72
142
73
94
0
VERTEX
8
Meshes
62
254
10
0.0
20
0.0
30
0.0
70
128
71
142
72
141
73
94
0
VERTEX
8
Meshes
62
254
10
0.0
20
0.0
30
0.0
70
128
71
140
72
141
73
94
0
VERTEX
8
Meshes
62
254
10
0.0
20
0.0
30
0.0
70
128
71
140
72
139
73
94
0
VERTEX
8
Meshes
62
254
10
0.0
20
0.0
30
0.0
70
128
71
138
72
139
73
94
0
VERTEX
8
Meshes
62
254
10
0.0
20
0.0
30
0.0
70
128
71
137
72
138
73
94
0
VERTEX
8
Meshes
62
254
10
0.0
20
0.0
30
0.0
70
128
71
137
72
136
73
94
0
VERTEX
8
Meshes
62
254
10
0.0
20
0.0
30
0.0
70
128
71
135
72
134
73
93
0
VERTEX
8
Meshes
62
254
10
0.0
20
0.0
30
0.0
70
128
71
133
72
134
73
93
0
VERTEX
8
Meshes
62
254
10
0.0
20
0.0
30
0.0
70
128
71
133
72
132
73
93
0
VERTEX
8
Meshes
62
254
10
0.0
20
0.0
30
0.0
70
128
71
131
72
132
73
93
0
VERTEX
8
Meshes
62
254
10
0.0
20
0.0
30
0.0
70
128
71
130
72
131
73
93
0
VERTEX
8
Meshes
62
254
10
0.0
20
0.0
30
0.0
70
128
71
130
72
129
73
93
0
VERTEX
8
Meshes
62
254
10
0.0
20
0.0
30
0.0
70
128
71
128
72
129
73
93
0
VERTEX
8
Meshes
62
254
10
0.0
20
0.0
30
0.0
70
128
71
135
72
128
73
93
0
SEQEND
0
ENDBLK
0
BLOCK
2
Mesh_001
8
Meshes
70
64
10
0.0
20
0.0
30
0.0
3
Mesh_001
0
POLYLINE
66
1
8
Meshes
70
64
71
46
72
45
0
VERTEX
8
Meshes
10
0.559015
20
-0.846931
30
-1.666346
70
192
0
VERTEX
8
Meshes
10
0.417121
20
-0.457080
30
-1.666346
70
192
0
VERTEX
8
Meshes
10
0.825689
20
-0.114250
30
-1.358418
70
192
0
VERTEX
8
Meshes
10
1.128939
20
0.140207
30
-0.886644
70
192
0
VERTEX
8
Meshes
10
1.290295
20
0.275600
30
-0.307928
70
192
0
VERTEX
8
Meshes
10
1.290295
20
0.275600
30
0.307929
70
192
0
VERTEX
8
Meshes
10
0.255764
20
0.872887
30
0.307928
70
192
0
VERTEX
8
Meshes
10
0.255764
20
0.872887
30
-0.307928
70
192
0
VERTEX
8
Meshes
10
0.219188
20
0.665452
30
-0.886644
70
192
0
VERTEX
8
Meshes
10
0.150447
20
0.275601
30
-1.358418
70
192
0
VERTEX
8
Meshes
10
0.057832
20
-0.249644
30
-1.666346
70
192
0
VERTEX
8
Meshes
10
-0.350736
20
-0.321685
30
-1.666346
70
192
0
VERTEX
8
Meshes
10
-0.617410
20
0.140207
30
-1.358418
70
192
0
VERTEX
8
Meshes
10
-0.815343
20
0.483036
30
-0.886644
70
192
0
VERTEX
8
Meshes
10
-0.920660
20
0.665452
30
-0.307928
70
192
0
VERTEX
8
Meshes
10
-0.920660
20
0.665452
30
0.307928
70
192
0
VERTEX
8
Meshes
10
-1.688517
20
-0.249644
30
0.307928
70
192
0
VERTEX
8
Meshes
10
-1.688517
20
-0.249644
30
-0.307928
70
192
0
VERTEX
8
Meshes
10
-1.490585
20
-0.321685
30
-0.886644
70
192
0
VERTEX
8
Meshes
10
-1.118593
20
-0.457079
30
-1.358418
70
192
0
VERTEX
8
Meshes
10
-0.617411
20
-0.639495
30
-1.666346
70
192
0
VERTEX
8
Meshes
10
-0.047487
20
-0.846931
30
-1.773289
70
192
0
VERTEX
8
Meshes
10
-0.617411
20
-1.054366
30
-1.666346
70
192
0
VERTEX
8
Meshes
10
-1.118593
20
-1.236782
30
-1.358418
70
192
0
VERTEX
8
Meshes
10
-1.490585
20
-1.372175
30
-0.886644
70
192
0
VERTEX
8
Meshes
10
-1.688517
20
-1.444217
30
-0.307928
70
192
0
VERTEX
8
Meshes
10
-1.688517
20
-1.444217
30
0.307928
70
192
0
VERTEX
8
Meshes
10
-0.920661
20
-2.359313
30
0.307929
70
192
0
VERTEX
8
Meshes
10
-0.920661
20
-2.359313
30
-0.307928
70
192
0
VERTEX
8
Meshes
10
-0.815343
20
-2.176898
30
-0.886644
70
192
0
VERTEX
8
Meshes
10
-0.617411
20
-1.834069
30
-1.358418
70
192
0
VERTEX
8
Meshes
10
-0.350737
20
-1.372176
30
-1.666346
70
192
0
VERTEX
8
Meshes
10
0.057832
20
-1.444218
30
-1.666346
70
192
0
VERTEX
8
Meshes
10
0.150446
20
-1.969463
30
-1.358418
70
192
0
VERTEX
8
Meshes
10
0.219187
20
-2.359314
30
-0.886644
70
192
0
VERTEX
8
Meshes
10
0.255764
20
-2.566749
30
-0.307928
70
192
0
VERTEX
8
Meshes
10
0.255764
20
-2.566749
30
0.307929
70
192
0
VERTEX
8
Meshes
10
1.290294
20
-1.969463
30
0.307929
70
192
0
VERTEX
8
Meshes
10
1.290294
20
-1.969463
30
-0.307928
70
192
0
VERTEX
8
Meshes
10
1.128938
20
-1.834069
30
-0.886644
70
192
0
VERTEX
8
Meshes
10
0.825688
20
-1.579612
30
-1.358418
70
192
0
VERTEX
8
Meshes
10
0.417121
20
-1.236783
30
-1.666346
70
192
0
VERTEX
8
Meshes
10
1.092363
20
-0.846932
30
-1.358418
70
192
0
VERTEX
8
Meshes
10
1.488228
20
-0.846932
30
-0.886644
70
192
0
VERTEX
8
Meshes
10
1.698863
20
-0.846932
30
-0.307928
70
192
0
VERTEX
8
Meshes
10
1.698863
20
-0.846932
30
0.307929
70
192
0
VERTEX
8
Meshes
62
254
10
0.0
20
0.0
30
0.0
70
128
71
2
72
1
73
22
0
VERTEX
8
Meshes
62
254
10
0.0
20
0.0
30
0.0
70
128
71
1
72
2
73
3
74
43
0
VERTEX
8
Meshes
62
254
10
0.0
20
0.0
30
0.0
70
128
71
43
72
3
73
4
74
44
0
VERTEX
8
Meshes
62
254
10
0.0
20
0.0
30
0.0
70
128
71
44
72
4
73
5
74
45
0
VERTEX
8
Meshes
62
254
10
0.0
20
0.0
30
0.0
70
128
71
45
72
5
73
6
74
46
0
VERTEX
8
Meshes
62
254
10
0.0
20
0.0
30
0.0
70
128
71
5
72
8
73
7
74
6
0
VERTEX
8
Meshes
62
254
10
0.0
20
0.0
30
0.0
70
128
71
4
72
9
73
8
74
5
0
VERTEX
8
Meshes
62
254
10
0.0
20
0.0
30
0.0
70
128
71
3
72
10
73
9
74
4
0
VERTEX
8
Meshes
62
254
10
0.0
20
0.0
30
0.0
70
128
71
2
72
11
73
10
74
3
0
VERTEX
8
Meshes
62
254
10
0.0
20
0.0
30
0.0
70
128
71
22
72
11
73
2
0
VERTEX
8
Meshes
62
254
10
0.0
20
0.0
30
0.0
70
128
71
22
72
12
73
11
0
VERTEX
8
Meshes
62
254
10
0.0
20
0.0
30
0.0
70
128
71
11
72
12
73
13
74
10
0
VERTEX
8
Meshes
62
254
10
0.0
20
0.0
30
0.0
70
128
71
10
72
13
73
14
74
9
0
VERTEX
8
Meshes
62
254
10
0.0
20
0.0
30
0.0
70
128
71
9
72
14
73
15
74
8
0
VERTEX
8
Meshes
62
254
10
0.0
20
0.0
30
0.0
70
128
71
8
72
15
73
16
74
7
0
VERTEX
8
Meshes
62
254
10
0.0
20
0.0
30
0.0
70
128
71
15
72
18
73
17
74
16
0
VERTEX
8
Meshes
62
254
10
0.0
20
0.0
30
0.0
70
128
71
14
72
19
73
18
74
15
0
VERTEX
8
Meshes
62
254
10
0.0
20
0.0
30
0.0
70
128
71
13
72
20
73
19
74
14
0
VERTEX
8
Meshes
62
254
10
0.0
20
0.0
30
0.0
70
128
71
12
72
21
73
20
74
13
0
VERTEX
8
Meshes
62
254
10
0.0
20
0.0
30
0.0
70
128
71
22
72
21
73
12
0
VERTEX
8
Meshes
62
254
10
0.0
20
0.0
30
0.0
70
128
71
22
72
23
73
21
0
VERTEX
8
Meshes
62
254
10
0.0
20
0.0
30
0.0
70
128
71
21
72
23
73
24
74
20
0
VERTEX
8
Meshes
62
254
10
0.0
20
0.0
30
0.0
70
128
71
20
72
24
73
25
74
19
0
VERTEX
8
Meshes
62
254
10
0.0
20
0.0
30
0.0
70
128
71
19
72
25
73
26
74
18
0
VERTEX
8
Meshes
62
254
10
0.0
20
0.0
30
0.0
70
128
71
18
72
26
73
27
74
17
0
VERTEX
8
Meshes
62
254
10
0.0
20
0.0
30
0.0
70
128
71
26
72
29
73
28
74
27
0
VERTEX
8
Meshes
62
254
10
0.0
20
0.0
30
0.0
70
128
71
25
72
30
73
29
74
26
0
VERTEX
8
Meshes
62
254
10
0.0
20
0.0
30
0.0
70
128
71
24
72
31
73
30
74
25
0
VERTEX
8
Meshes
62
254
10
0.0
20
0.0
30
0.0
70
128
71
23
72
32
73
31
74
24
0
VERTEX
8
Meshes
62
254
10
0.0
20
0.0
30
0.0
70
128
71
22
72
32
73
23
0
VERTEX
8
Meshes
62
254
10
0.0
20
0.0
30
0.0
70
128
71
22
72
33
73
32
0
VERTEX
8
Meshes
62
254
10
0.0
20
0.0
30
0.0
70
128
71
32
72
33
73
34
74
31
0
VERTEX
8
Meshes
62
254
10
0.0
20
0.0
30
0.0
70
128
71
31
72
34
73
35
74
30
0
VERTEX
8
Meshes
62
254
10
0.0
20
0.0
30
0.0
70
128
71
30
72
35
73
36
74
29
0
VERTEX
8
Meshes
62
254
10
0.0
20
0.0
30
0.0
70
128
71
29
72
36
73
37
74
28
0
VERTEX
8
Meshes
62
254
10
0.0
20
0.0
30
0.0
70
128
71
36
72
39
73
38
74
37
0
VERTEX
8
Meshes
62
254
10
0.0
20
0.0
30
0.0
70
128
71
35
72
40
73
39
74
36
0
VERTEX
8
Meshes
62
254
10
0.0
20
0.0
30
0.0
70
128
71
34
72
41
73
40
74
35
0
VERTEX
8
Meshes
62
254
10
0.0
20
0.0
30
0.0
70
128
71
33
72
42
73
41
74
34
0
VERTEX
8
Meshes
62
254
10
0.0
20
0.0
30
0.0
70
128
71
22
72
42
73
33
0
VERTEX
8
Meshes
62
254
10
0.0
20
0.0
30
0.0
70
128
71
22
72
1
73
42
0
VERTEX
8
Meshes
62
254
10
0.0
20
0.0
30
0.0
70
128
71
42
72
1
73
43
74
41
0
VERTEX
8
Meshes
62
254
10
0.0
20
0.0
30
0.0
70
128
71
41
72
43
73
44
74
40
0
VERTEX
8
Meshes
62
254
10
0.0
20
0.0
30
0.0
70
128
71
40
72
44
73
45
74
39
0
VERTEX
8
Meshes
62
254
10
0.0
20
0.0
30
0.0
70
128
71
39
72
45
73
46
74
38
0
SEQEND
0
ENDBLK
0
BLOCK
2
Plane
8
Meshes
70
64
10
0.0
20
0.0
30
0.0
3
Plane
0
POLYLINE
66
1
8
Meshes
70
64
71
32
72
14
0
VERTEX
8
Meshes
10
17.552254
20
1.445638
30
-0.733392
70
192
0
VERTEX
8
Meshes
10
17.552254
20
-0.554362
30
-0.733392
70
192
0
VERTEX
8
Meshes
10
15.997891
20
-1.636625
30
-0.733392
70
192
0
VERTEX
8
Meshes
10
16.252541
20
2.909876
30
-0.733392
70
192
0
VERTEX
8
Meshes
10
14.024352
20
2.973539
30
-0.733392
70
192
0
VERTEX
8
Meshes
10
13.769703
20
-2.273250
30
-0.733392
70
192
0
VERTEX
8
Meshes
10
-14.050819
20
-2.336913
30
-0.733392
70
192
0
VERTEX
8
Meshes
10
-13.796170
20
3.037201
30
-0.733392
70
192
0
VERTEX
8
Meshes
10
-15.642384
20
3.737489
30
-0.733392
70
192
0
VERTEX
8
Meshes
10
-15.897033
20
-1.636625
30
-0.733392
70
192
0
VERTEX
8
Meshes
10
-17.233946
20
-1.063662
30
-0.733392
70
192
0
VERTEX
8
Meshes
10
-16.979296
20
4.310452
30
-0.733392
70
192
0
VERTEX
8
Meshes
10
-18.379871
20
4.246789
30
-0.733392
70
192
0
VERTEX
8
Meshes
10
-18.634521
20
-0.108724
30
-0.733392
70
192
0
VERTEX
8
Meshes
10
-19.589458
20
0.591564
30
-0.733392
70
192
0
VERTEX
8
Meshes
10
-19.589458
20
2.909876
30
-0.733392
70
192
0
VERTEX
8
Meshes
10
-19.589458
20
2.909876
30
15.515831
70
192
0
VERTEX
8
Meshes
10
-19.589458
20
0.591564
30
15.515831
70
192
0
VERTEX
8
Meshes
10
-18.634521
20
-0.108724
30
15.515831
70
192
0
VERTEX
8
Meshes
10
-18.379871
20
4.246789
30
15.515831
70
192
0
VERTEX
8
Meshes
10
-16.979296
20
4.310452
30
15.515831
70
192
0
VERTEX
8
Meshes
10
-17.233946
20
-1.063662
30
15.515831
70
192
0
VERTEX
8
Meshes
10
-15.897033
20
-1.636625
30
15.515831
70
192
0
VERTEX
8
Meshes
10
-15.642384
20
3.737489
30
15.515831
70
192
0
VERTEX
8
Meshes
10
-13.796170
20
3.037202
30
15.515831
70
192
0
VERTEX
8
Meshes
10
-14.050819
20
-2.336912
30
15.515831
70
192
0
VERTEX
8
Meshes
10
13.769703
20
-2.273250
30
15.515831
70
192
0
VERTEX
8
Meshes
10
14.024352
20
2.973539
30
15.515831
70
192
0
VERTEX
8
Meshes
10
16.252541
20
2.909877
30
15.515831
70
192
0
VERTEX
8
Meshes
10
15.997891
20
-1.636625
30
15.515831
70
192
0
VERTEX
8
Meshes
10
17.552254
20
-0.554362
30
15.515831
70
192
0
VERTEX
8
Meshes
10
17.552254
20
1.445638
30
15.515831
70
192
0
VERTEX
8
Meshes
62
254
10
0.0
20
0.0
30
0.0
70
128
71
1
72
4
73
3
74
2
0
VERTEX
8
Meshes
62
254
10
0.0
20
0.0
30
0.0
70
128
71
3
72
4
73
5
74
6
0
VERTEX
8
Meshes
62
254
10
0.0
20
0.0
30
0.0
70
128
71
6
72
5
73
8
74
7
0
VERTEX
8
Meshes
62
254
10
0.0
20
0.0
30
0.0
70
128
71
7
72
8
73
9
74
10
0
VERTEX
8
Meshes
62
254
10
0.0
20
0.0
30
0.0
70
128
71
10
72
9
73
12
74
11
0
VERTEX
8
Meshes
62
254
10
0.0
20
0.0
30
0.0
70
128
71
11
72
12
73
13
74
14
0
VERTEX
8
Meshes
62
254
10
0.0
20
0.0
30
0.0
70
128
71
14
72
13
73
16
74
15
0
VERTEX
8
Meshes
62
254
10
0.0
20
0.0
30
0.0
70
128
71
19
72
20
73
17
74
18
0
VERTEX
8
Meshes
62
254
10
0.0
20
0.0
30
0.0
70
128
71
22
72
21
73
20
74
19
0
VERTEX
8
Meshes
62
254
10
0.0
20
0.0
30
0.0
70
128
71
23
72
24
73
21
74
22
0
VERTEX
8
Meshes
62
254
10
0.0
20
0.0
30
0.0
70
128
71
26
72
25
73
24
74
23
0
VERTEX
8
Meshes
62
254
10
0.0
20
0.0
30
0.0
70
128
71
27
72
28
73
25
74
26
0
VERTEX
8
Meshes
62
254
10
0.0
20
0.0
30
0.0
70
128
71
30
72
29
73
28
74
27
0
VERTEX
8
Meshes
62
254
10
0.0
20
0.0
30
0.0
70
128
71
32
72
29
73
30
74
31
0
SEQEND
0
ENDBLK
0
ENDSEC
0
SECTION
2
ENTITIES
0
INSERT
8
1
2
Cylinder_001
10
-1.273144
20
0.503099
30
1.707085
41
1.000000
42
1.000000
43
1.000000
50
90.000003
0
INSERT
8
1
2
Mesh_001
10
-12.909239
20
-0.120313
30
2.696664
41
1.000000
42
1.000000
43
1.000000
50
75.047530
0
INSERT
8
1
2
Cube_003
10
17.350845
20
0.647534
30
1.203915
41
1.000000
42
1.000000
43
1.000000
50
0.000000
0
INSERT
8
1
2
Plane
10
0.339959
20
-5.993374
30
-0.514973
41
1.000000
42
1.000000
43
1.000000
50
0.000000
0
INSERT
8
1
2
Circle
10
-15.080792
20
-6.086831
30
6.628156
41
1.000000
42
1.000000
43
1.000000
50
0.000000
0
INSERT
8
1
2
Cube_002
10
-15.851784
20
-2.097913
30
1.444704
41
1.000000
42
1.000000
43
1.000000
50
0.000000
0
INSERT
8
1
2
Cylinder
10
-9.690012
20
5.336540
30
7.351017
41
1.000000
42
1.000000
43
1.000000
50
90.000003
0
INSERT
8
1
2
Cube_001
10
-4.975208
20
3.633606
30
1.083131
41
1.000000
42
1.000000
43
1.000000
50
0.000000
0
ENDSEC
0
EOF
