0
SECTION
2
HEADER
0
ENDSEC
0
SECTION
2
BLOCKS
0
BLOCK
2
Cube_001
8
Meshes
70
64
10
0.0
20
0.0
30
0.0
3
Cube_001
0
POLYLINE
66
1
8
Meshes
70
64
71
8
72
6
0
VERTEX
8
Meshes
10
-5.315575
20
0.298270
30
-1.000000
70
192
0
VERTEX
8
Meshes
10
-5.315575
20
-1.701730
30
-1.000000
70
192
0
VERTEX
8
Meshes
10
-7.315575
20
-1.701730
30
-1.000000
70
192
0
VERTEX
8
Meshes
10
-7.315574
20
0.298270
30
-1.000000
70
192
0
VERTEX
8
Meshes
10
-5.315574
20
0.298269
30
1.000000
70
192
0
VERTEX
8
Meshes
10
-5.315575
20
-1.701731
30
1.000000
70
192
0
VERTEX
8
Meshes
10
-7.315575
20
-1.701730
30
1.000000
70
192
0
VERTEX
8
Meshes
10
-7.315575
20
0.298269
30
1.000000
70
192
0
VERTEX
8
Meshes
62
254
10
0.0
20
0.0
30
0.0
70
128
71
1
72
2
73
3
74
4
0
VERTEX
8
Meshes
62
254
10
0.0
20
0.0
30
0.0
70
128
71
5
72
8
73
7
74
6
0
VERTEX
8
Meshes
62
254
10
0.0
20
0.0
30
0.0
70
128
71
1
72
5
73
6
74
2
0
VERTEX
8
Meshes
62
254
10
0.0
20
0.0
30
0.0
70
128
71
2
72
6
73
7
74
3
0
VERTEX
8
Meshes
62
254
10
0.0
20
0.0
30
0.0
70
128
71
3
72
7
73
8
74
4
0
VERTEX
8
Meshes
62
254
10
0.0
20
0.0
30
0.0
70
128
71
5
72
1
73
4
74
8
0
SEQEND
0
ENDBLK
0
BLOCK
2
on
8
Meshes
70
64
10
0.0
20
0.0
30
0.0
3
on
0
POLYLINE
66
1
8
Meshes
70
64
71
4
72
1
0
VERTEX
8
Meshes
10
1.000000
20
1.000000
30
0.000000
70
192
0
VERTEX
8
Meshes
10
1.000000
20
-1.000000
30
0.000000
70
192
0
VERTEX
8
Meshes
10
-1.000000
20
-1.000000
30
-0.000000
70
192
0
VERTEX
8
Meshes
10
-1.000000
20
1.000000
30
-0.000000
70
192
0
VERTEX
8
Meshes
62
254
10
0.0
20
0.0
30
0.0
70
128
71
1
72
4
73
3
74
2
0
SEQEND
0
ENDBLK
0
BLOCK
2
on_001
8
Meshes
70
64
10
0.0
20
0.0
30
0.0
3
on_001
0
POLYLINE
66
1
8
Meshes
70
64
71
4
72
1
0
VERTEX
8
Meshes
10
1.000000
20
1.000000
30
0.000000
70
192
0
VERTEX
8
Meshes
10
1.000000
20
-1.000000
30
0.000000
70
192
0
VERTEX
8
Meshes
10
-1.000000
20
-1.000000
30
-0.000000
70
192
0
VERTEX
8
Meshes
10
-1.000000
20
1.000000
30
-0.000000
70
192
0
VERTEX
8
Meshes
62
254
10
0.0
20
0.0
30
0.0
70
128
71
1
72
4
73
3
74
2
0
SEQEND
0
ENDBLK
0
BLOCK
2
on_002
8
Meshes
70
64
10
0.0
20
0.0
30
0.0
3
on_002
0
POLYLINE
66
1
8
Meshes
70
64
71
4
72
1
0
VERTEX
8
Meshes
10
1.000000
20
1.000000
30
0.000000
70
192
0
VERTEX
8
Meshes
10
1.000000
20
-1.000000
30
0.000000
70
192
0
VERTEX
8
Meshes
10
-1.000000
20
-1.000000
30
-0.000000
70
192
0
VERTEX
8
Meshes
10
-1.000000
20
1.000000
30
-0.000000
70
192
0
VERTEX
8
Meshes
62
254
10
0.0
20
0.0
30
0.0
70
128
71
1
72
4
73
3
74
2
0
SEQEND
0
ENDBLK
0
BLOCK
2
on_003
8
Meshes
70
64
10
0.0
20
0.0
30
0.0
3
on_003
0
POLYLINE
66
1
8
Meshes
70
64
71
4
72
1
0
VERTEX
8
Meshes
10
1.000000
20
1.000000
30
0.000000
70
192
0
VERTEX
8
Meshes
10
1.000000
20
-1.000000
30
0.000000
70
192
0
VERTEX
8
Meshes
10
-1.000000
20
-1.000000
30
-0.000000
70
192
0
VERTEX
8
Meshes
10
-1.000000
20
1.000000
30
-0.000000
70
192
0
VERTEX
8
Meshes
62
254
10
0.0
20
0.0
30
0.0
70
128
71
1
72
4
73
3
74
2
0
SEQEND
0
ENDBLK
0
BLOCK
2
on_004
8
Meshes
70
64
10
0.0
20
0.0
30
0.0
3
on_004
0
POLYLINE
66
1
8
Meshes
70
64
71
4
72
1
0
VERTEX
8
Meshes
10
1.000000
20
1.000000
30
0.000000
70
192
0
VERTEX
8
Meshes
10
1.000000
20
-1.000000
30
0.000000
70
192
0
VERTEX
8
Meshes
10
-1.000000
20
-1.000000
30
-0.000000
70
192
0
VERTEX
8
Meshes
10
-1.000000
20
1.000000
30
-0.000000
70
192
0
VERTEX
8
Meshes
62
254
10
0.0
20
0.0
30
0.0
70
128
71
1
72
4
73
3
74
2
0
SEQEND
0
ENDBLK
0
BLOCK
2
onclic
8
Meshes
70
64
10
0.0
20
0.0
30
0.0
3
onclic
0
POLYLINE
66
1
8
Meshes
70
64
71
4
72
1
0
VERTEX
8
Meshes
10
1.000000
20
1.000000
30
0.000000
70
192
0
VERTEX
8
Meshes
10
1.000000
20
-1.000000
30
0.000000
70
192
0
VERTEX
8
Meshes
10
-1.000000
20
-1.000000
30
-0.000000
70
192
0
VERTEX
8
Meshes
10
-1.000000
20
1.000000
30
-0.000000
70
192
0
VERTEX
8
Meshes
62
254
10
0.0
20
0.0
30
0.0
70
128
71
1
72
4
73
3
74
2
0
SEQEND
0
ENDBLK
0
BLOCK
2
optclic
8
Meshes
70
64
10
0.0
20
0.0
30
0.0
3
optclic
0
POLYLINE
66
1
8
Meshes
70
64
71
4
72
1
0
VERTEX
8
Meshes
10
1.000000
20
1.000000
30
0.000000
70
192
0
VERTEX
8
Meshes
10
1.000000
20
-1.000000
30
0.000000
70
192
0
VERTEX
8
Meshes
10
-1.000000
20
-1.000000
30
-0.000000
70
192
0
VERTEX
8
Meshes
10
-1.000000
20
1.000000
30
-0.000000
70
192
0
VERTEX
8
Meshes
62
254
10
0.0
20
0.0
30
0.0
70
128
71
1
72
4
73
3
74
2
0
SEQEND
0
ENDBLK
0
BLOCK
2
Plane_001
8
Meshes
70
64
10
0.0
20
0.0
30
0.0
3
Plane_001
0
POLYLINE
66
1
8
Meshes
70
64
71
4
72
1
0
VERTEX
8
Meshes
10
1.000000
20
1.000000
30
0.000000
70
192
0
VERTEX
8
Meshes
10
1.000000
20
-1.000000
30
0.000000
70
192
0
VERTEX
8
Meshes
10
-1.000000
20
-1.000000
30
-0.000000
70
192
0
VERTEX
8
Meshes
10
-1.000000
20
1.000000
30
-0.000000
70
192
0
VERTEX
8
Meshes
62
254
10
0.0
20
0.0
30
0.0
70
128
71
1
72
4
73
3
74
2
0
SEQEND
0
ENDBLK
0
BLOCK
2
Plane_002
8
Meshes
70
64
10
0.0
20
0.0
30
0.0
3
Plane_002
0
POLYLINE
66
1
8
Meshes
70
64
71
4
72
1
0
VERTEX
8
Meshes
10
2.254407
20
2.254407
30
0.000000
70
192
0
VERTEX
8
Meshes
10
2.251739
20
-2.998475
30
-0.000000
70
192
0
VERTEX
8
Meshes
10
-2.257077
20
-2.998474
30
-0.000000
70
192
0
VERTEX
8
Meshes
10
-2.254407
20
2.254408
30
0.000000
70
192
0
VERTEX
8
Meshes
62
254
10
0.0
20
0.0
30
0.0
70
128
71
1
72
4
73
3
74
2
0
SEQEND
0
ENDBLK
0
BLOCK
2
Plane_003
8
Meshes
70
64
10
0.0
20
0.0
30
0.0
3
Plane_003
0
POLYLINE
66
1
8
Meshes
70
64
71
4
72
1
0
VERTEX
8
Meshes
10
1.000000
20
1.000000
30
0.000000
70
192
0
VERTEX
8
Meshes
10
1.000000
20
-1.000000
30
0.000000
70
192
0
VERTEX
8
Meshes
10
-1.000000
20
-1.000000
30
-0.000000
70
192
0
VERTEX
8
Meshes
10
-1.000000
20
1.000000
30
-0.000000
70
192
0
VERTEX
8
Meshes
62
254
10
0.0
20
0.0
30
0.0
70
128
71
1
72
4
73
3
74
2
0
SEQEND
0
ENDBLK
0
BLOCK
2
Plane_004
8
Meshes
70
64
10
0.0
20
0.0
30
0.0
3
Plane_004
0
POLYLINE
66
1
8
Meshes
70
64
71
4
72
1
0
VERTEX
8
Meshes
10
1.000000
20
1.000000
30
0.000000
70
192
0
VERTEX
8
Meshes
10
1.000000
20
-1.000000
30
0.000000
70
192
0
VERTEX
8
Meshes
10
-1.000000
20
-1.000000
30
-0.000000
70
192
0
VERTEX
8
Meshes
10
-1.000000
20
1.000000
30
-0.000000
70
192
0
VERTEX
8
Meshes
62
254
10
0.0
20
0.0
30
0.0
70
128
71
1
72
4
73
3
74
2
0
SEQEND
0
ENDBLK
0
BLOCK
2
Plane_005
8
Meshes
70
64
10
0.0
20
0.0
30
0.0
3
Plane_005
0
POLYLINE
66
1
8
Meshes
70
64
71
4
72
1
0
VERTEX
8
Meshes
10
1.000000
20
1.000000
30
0.000000
70
192
0
VERTEX
8
Meshes
10
1.000000
20
-1.000000
30
0.000000
70
192
0
VERTEX
8
Meshes
10
-1.000000
20
-1.000000
30
-0.000000
70
192
0
VERTEX
8
Meshes
10
-1.000000
20
1.000000
30
-0.000000
70
192
0
VERTEX
8
Meshes
62
254
10
0.0
20
0.0
30
0.0
70
128
71
1
72
4
73
3
74
2
0
SEQEND
0
ENDBLK
0
BLOCK
2
Plane_006
8
Meshes
70
64
10
0.0
20
0.0
30
0.0
3
Plane_006
0
POLYLINE
66
1
8
Meshes
70
64
71
4
72
1
0
VERTEX
8
Meshes
10
1.000000
20
1.000000
30
0.000000
70
192
0
VERTEX
8
Meshes
10
1.000000
20
-1.000000
30
0.000000
70
192
0
VERTEX
8
Meshes
10
-1.000000
20
-1.000000
30
-0.000000
70
192
0
VERTEX
8
Meshes
10
-1.000000
20
1.000000
30
-0.000000
70
192
0
VERTEX
8
Meshes
62
254
10
0.0
20
0.0
30
0.0
70
128
71
1
72
4
73
3
74
2
0
SEQEND
0
ENDBLK
0
BLOCK
2
Plane_007
8
Meshes
70
64
10
0.0
20
0.0
30
0.0
3
Plane_007
0
POLYLINE
66
1
8
Meshes
70
64
71
4
72
1
0
VERTEX
8
Meshes
10
1.000000
20
1.000000
30
0.000000
70
192
0
VERTEX
8
Meshes
10
1.000000
20
-1.000000
30
0.000000
70
192
0
VERTEX
8
Meshes
10
-1.000000
20
-1.000000
30
-0.000000
70
192
0
VERTEX
8
Meshes
10
-1.000000
20
1.000000
30
-0.000000
70
192
0
VERTEX
8
Meshes
62
254
10
0.0
20
0.0
30
0.0
70
128
71
1
72
4
73
3
74
2
0
SEQEND
0
ENDBLK
0
BLOCK
2
Plane_008
8
Meshes
70
64
10
0.0
20
0.0
30
0.0
3
Plane_008
0
POLYLINE
66
1
8
Meshes
70
64
71
4
72
1
0
VERTEX
8
Meshes
10
14.325125
20
14.325123
30
0.000001
70
192
0
VERTEX
8
Meshes
10
14.325125
20
-14.325129
30
-0.000001
70
192
0
VERTEX
8
Meshes
10
-14.325127
20
-14.325125
30
-0.000001
70
192
0
VERTEX
8
Meshes
10
-14.325121
20
14.325130
30
0.000001
70
192
0
VERTEX
8
Meshes
62
254
10
0.0
20
0.0
30
0.0
70
128
71
1
72
4
73
3
74
2
0
SEQEND
0
ENDBLK
0
BLOCK
2
Plane_009
8
Meshes
70
64
10
0.0
20
0.0
30
0.0
3
Plane_009
0
POLYLINE
66
1
8
Meshes
70
64
71
4
72
1
0
VERTEX
8
Meshes
10
1.000000
20
1.000000
30
0.000000
70
192
0
VERTEX
8
Meshes
10
1.000000
20
-1.000000
30
0.000000
70
192
0
VERTEX
8
Meshes
10
-1.000000
20
-1.000000
30
-0.000000
70
192
0
VERTEX
8
Meshes
10
-1.000000
20
1.000000
30
-0.000000
70
192
0
VERTEX
8
Meshes
62
254
10
0.0
20
0.0
30
0.0
70
128
71
1
72
4
73
3
74
2
0
SEQEND
0
ENDBLK
0
BLOCK
2
Plane_010
8
Meshes
70
64
10
0.0
20
0.0
30
0.0
3
Plane_010
0
POLYLINE
66
1
8
Meshes
70
64
71
4
72
1
0
VERTEX
8
Meshes
10
1.000000
20
1.000000
30
0.000000
70
192
0
VERTEX
8
Meshes
10
1.000000
20
-1.000000
30
0.000000
70
192
0
VERTEX
8
Meshes
10
-1.000000
20
-1.000000
30
-0.000000
70
192
0
VERTEX
8
Meshes
10
-1.000000
20
1.000000
30
-0.000000
70
192
0
VERTEX
8
Meshes
62
254
10
0.0
20
0.0
30
0.0
70
128
71
1
72
4
73
3
74
2
0
SEQEND
0
ENDBLK
0
BLOCK
2
Plane_011
8
Meshes
70
64
10
0.0
20
0.0
30
0.0
3
Plane_011
0
POLYLINE
66
1
8
Meshes
70
64
71
4
72
1
0
VERTEX
8
Meshes
10
1.000000
20
1.000000
30
0.000000
70
192
0
VERTEX
8
Meshes
10
1.000000
20
-1.000000
30
0.000000
70
192
0
VERTEX
8
Meshes
10
-1.000000
20
-1.000000
30
-0.000000
70
192
0
VERTEX
8
Meshes
10
-1.000000
20
1.000000
30
-0.000000
70
192
0
VERTEX
8
Meshes
62
254
10
0.0
20
0.0
30
0.0
70
128
71
1
72
4
73
3
74
2
0
SEQEND
0
ENDBLK
0
BLOCK
2
Plane_012
8
Meshes
70
64
10
0.0
20
0.0
30
0.0
3
Plane_012
0
POLYLINE
66
1
8
Meshes
70
64
71
4
72
1
0
VERTEX
8
Meshes
10
1.000000
20
1.000000
30
0.000000
70
192
0
VERTEX
8
Meshes
10
1.000000
20
-1.000000
30
0.000000
70
192
0
VERTEX
8
Meshes
10
-1.000000
20
-1.000000
30
-0.000000
70
192
0
VERTEX
8
Meshes
10
-1.000000
20
1.000000
30
-0.000000
70
192
0
VERTEX
8
Meshes
62
254
10
0.0
20
0.0
30
0.0
70
128
71
1
72
4
73
3
74
2
0
SEQEND
0
ENDBLK
0
BLOCK
2
Plane_013
8
Meshes
70
64
10
0.0
20
0.0
30
0.0
3
Plane_013
0
POLYLINE
66
1
8
Meshes
70
64
71
4
72
1
0
VERTEX
8
Meshes
10
1.000000
20
1.000000
30
0.000000
70
192
0
VERTEX
8
Meshes
10
1.000000
20
-1.000000
30
0.000000
70
192
0
VERTEX
8
Meshes
10
-1.000000
20
-1.000000
30
-0.000000
70
192
0
VERTEX
8
Meshes
10
-1.000000
20
1.000000
30
-0.000000
70
192
0
VERTEX
8
Meshes
62
254
10
0.0
20
0.0
30
0.0
70
128
71
1
72
4
73
3
74
2
0
SEQEND
0
ENDBLK
0
BLOCK
2
Plane_014
8
Meshes
70
64
10
0.0
20
0.0
30
0.0
3
Plane_014
0
POLYLINE
66
1
8
Meshes
70
64
71
4
72
1
0
VERTEX
8
Meshes
10
1.000000
20
1.000000
30
0.000000
70
192
0
VERTEX
8
Meshes
10
1.000000
20
-1.000000
30
0.000000
70
192
0
VERTEX
8
Meshes
10
-1.000000
20
-1.000000
30
-0.000000
70
192
0
VERTEX
8
Meshes
10
-1.000000
20
1.000000
30
-0.000000
70
192
0
VERTEX
8
Meshes
62
254
10
0.0
20
0.0
30
0.0
70
128
71
1
72
4
73
3
74
2
0
SEQEND
0
ENDBLK
0
BLOCK
2
Plane_015
8
Meshes
70
64
10
0.0
20
0.0
30
0.0
3
Plane_015
0
POLYLINE
66
1
8
Meshes
70
64
71
4
72
1
0
VERTEX
8
Meshes
10
25.180651
20
25.180651
30
0.000001
70
192
0
VERTEX
8
Meshes
10
25.180651
20
-25.180656
30
-0.000001
70
192
0
VERTEX
8
Meshes
10
-25.180660
20
-25.180651
30
-0.000001
70
192
0
VERTEX
8
Meshes
10
-25.180645
20
25.180660
30
0.000001
70
192
0
VERTEX
8
Meshes
62
254
10
0.0
20
0.0
30
0.0
70
128
71
1
72
4
73
3
74
2
0
SEQEND
0
ENDBLK
0
BLOCK
2
Plane_016
8
Meshes
70
64
10
0.0
20
0.0
30
0.0
3
Plane_016
0
POLYLINE
66
1
8
Meshes
70
64
71
4
72
1
0
VERTEX
8
Meshes
10
1.000000
20
1.000000
30
0.000000
70
192
0
VERTEX
8
Meshes
10
1.000000
20
-1.000000
30
0.000000
70
192
0
VERTEX
8
Meshes
10
-1.000000
20
-1.000000
30
-0.000000
70
192
0
VERTEX
8
Meshes
10
-1.000000
20
1.000000
30
-0.000000
70
192
0
VERTEX
8
Meshes
62
254
10
0.0
20
0.0
30
0.0
70
128
71
1
72
4
73
3
74
2
0
SEQEND
0
ENDBLK
0
BLOCK
2
Plane_017
8
Meshes
70
64
10
0.0
20
0.0
30
0.0
3
Plane_017
0
POLYLINE
66
1
8
Meshes
70
64
71
4
72
1
0
VERTEX
8
Meshes
10
14.325125
20
14.325123
30
0.000001
70
192
0
VERTEX
8
Meshes
10
14.325125
20
-14.325129
30
-0.000001
70
192
0
VERTEX
8
Meshes
10
-14.325127
20
-14.325125
30
-0.000001
70
192
0
VERTEX
8
Meshes
10
-14.325121
20
14.325130
30
0.000001
70
192
0
VERTEX
8
Meshes
62
254
10
0.0
20
0.0
30
0.0
70
128
71
1
72
4
73
3
74
2
0
SEQEND
0
ENDBLK
0
BLOCK
2
Plane_018
8
Meshes
70
64
10
0.0
20
0.0
30
0.0
3
Plane_018
0
POLYLINE
66
1
8
Meshes
70
64
71
4
72
1
0
VERTEX
8
Meshes
10
25.180651
20
25.180651
30
0.000001
70
192
0
VERTEX
8
Meshes
10
25.180651
20
-25.180656
30
-0.000001
70
192
0
VERTEX
8
Meshes
10
-25.180660
20
-25.180651
30
-0.000001
70
192
0
VERTEX
8
Meshes
10
-25.180645
20
25.180660
30
0.000001
70
192
0
VERTEX
8
Meshes
62
254
10
0.0
20
0.0
30
0.0
70
128
71
1
72
4
73
3
74
2
0
SEQEND
0
ENDBLK
0
BLOCK
2
Plane_019
8
Meshes
70
64
10
0.0
20
0.0
30
0.0
3
Plane_019
0
POLYLINE
66
1
8
Meshes
70
64
71
4
72
1
0
VERTEX
8
Meshes
10
1.000000
20
1.000000
30
0.000000
70
192
0
VERTEX
8
Meshes
10
1.000000
20
-1.000000
30
0.000000
70
192
0
VERTEX
8
Meshes
10
-1.000000
20
-1.000000
30
-0.000000
70
192
0
VERTEX
8
Meshes
10
-1.000000
20
1.000000
30
-0.000000
70
192
0
VERTEX
8
Meshes
62
254
10
0.0
20
0.0
30
0.0
70
128
71
1
72
4
73
3
74
2
0
SEQEND
0
ENDBLK
0
BLOCK
2
Plane_020
8
Meshes
70
64
10
0.0
20
0.0
30
0.0
3
Plane_020
0
POLYLINE
66
1
8
Meshes
70
64
71
4
72
1
0
VERTEX
8
Meshes
10
1.000000
20
1.000000
30
0.000000
70
192
0
VERTEX
8
Meshes
10
1.000000
20
-1.000000
30
0.000000
70
192
0
VERTEX
8
Meshes
10
-1.000000
20
-1.000000
30
-0.000000
70
192
0
VERTEX
8
Meshes
10
-1.000000
20
1.000000
30
-0.000000
70
192
0
VERTEX
8
Meshes
62
254
10
0.0
20
0.0
30
0.0
70
128
71
1
72
4
73
3
74
2
0
SEQEND
0
ENDBLK
0
BLOCK
2
Plane_021
8
Meshes
70
64
10
0.0
20
0.0
30
0.0
3
Plane_021
0
POLYLINE
66
1
8
Meshes
70
64
71
4
72
1
0
VERTEX
8
Meshes
10
1.000000
20
1.000000
30
0.000000
70
192
0
VERTEX
8
Meshes
10
1.000000
20
-1.000000
30
0.000000
70
192
0
VERTEX
8
Meshes
10
-1.000000
20
-1.000000
30
-0.000000
70
192
0
VERTEX
8
Meshes
10
-1.000000
20
1.000000
30
-0.000000
70
192
0
VERTEX
8
Meshes
62
254
10
0.0
20
0.0
30
0.0
70
128
71
1
72
4
73
3
74
2
0
SEQEND
0
ENDBLK
0
BLOCK
2
Plane_022
8
Meshes
70
64
10
0.0
20
0.0
30
0.0
3
Plane_022
0
POLYLINE
66
1
8
Meshes
70
64
71
4
72
1
0
VERTEX
8
Meshes
10
1.000000
20
1.000000
30
0.000000
70
192
0
VERTEX
8
Meshes
10
1.000000
20
-1.000000
30
0.000000
70
192
0
VERTEX
8
Meshes
10
-1.000000
20
-1.000000
30
-0.000000
70
192
0
VERTEX
8
Meshes
10
-1.000000
20
1.000000
30
-0.000000
70
192
0
VERTEX
8
Meshes
62
254
10
0.0
20
0.0
30
0.0
70
128
71
1
72
4
73
3
74
2
0
SEQEND
0
ENDBLK
0
BLOCK
2
Plane_023
8
Meshes
70
64
10
0.0
20
0.0
30
0.0
3
Plane_023
0
POLYLINE
66
1
8
Meshes
70
64
71
4
72
1
0
VERTEX
8
Meshes
10
1.000000
20
1.000000
30
0.000000
70
192
0
VERTEX
8
Meshes
10
1.000000
20
-1.000000
30
0.000000
70
192
0
VERTEX
8
Meshes
10
-1.000000
20
-1.000000
30
-0.000000
70
192
0
VERTEX
8
Meshes
10
-1.000000
20
1.000000
30
-0.000000
70
192
0
VERTEX
8
Meshes
62
254
10
0.0
20
0.0
30
0.0
70
128
71
1
72
4
73
3
74
2
0
SEQEND
0
ENDBLK
0
BLOCK
2
Plane
8
Meshes
70
64
10
0.0
20
0.0
30
0.0
3
Plane
0
POLYLINE
66
1
8
Meshes
70
64
71
4
72
1
0
VERTEX
8
Meshes
10
1.000000
20
1.000000
30
0.000000
70
192
0
VERTEX
8
Meshes
10
1.000000
20
-1.000000
30
0.000000
70
192
0
VERTEX
8
Meshes
10
-1.000000
20
-1.000000
30
-0.000000
70
192
0
VERTEX
8
Meshes
10
-1.000000
20
1.000000
30
-0.000000
70
192
0
VERTEX
8
Meshes
62
254
10
0.0
20
0.0
30
0.0
70
128
71
1
72
4
73
3
74
2
0
SEQEND
0
ENDBLK
0
BLOCK
2
Plane_024
8
Meshes
70
64
10
0.0
20
0.0
30
0.0
3
Plane_024
0
POLYLINE
66
1
8
Meshes
70
64
71
4
72
1
0
VERTEX
8
Meshes
10
1.000000
20
1.000000
30
0.000000
70
192
0
VERTEX
8
Meshes
10
1.000000
20
-1.000000
30
0.000000
70
192
0
VERTEX
8
Meshes
10
-1.000000
20
-1.000000
30
-0.000000
70
192
0
VERTEX
8
Meshes
10
-1.000000
20
1.000000
30
-0.000000
70
192
0
VERTEX
8
Meshes
62
254
10
0.0
20
0.0
30
0.0
70
128
71
1
72
4
73
3
74
2
0
SEQEND
0
ENDBLK
0
BLOCK
2
Plane_025
8
Meshes
70
64
10
0.0
20
0.0
30
0.0
3
Plane_025
0
POLYLINE
66
1
8
Meshes
70
64
71
16
72
9
0
VERTEX
8
Meshes
10
1.968956
20
0.669785
30
0.000000
70
192
0
VERTEX
8
Meshes
10
1.968956
20
-1.330215
30
0.000000
70
192
0
VERTEX
8
Meshes
10
-1.000000
20
-1.330215
30
0.000000
70
192
0
VERTEX
8
Meshes
10
-1.000000
20
0.669785
30
-0.000000
70
192
0
VERTEX
8
Meshes
10
1.968956
20
-1.390254
30
0.000000
70
192
0
VERTEX
8
Meshes
10
-1.000000
20
-1.390254
30
0.000000
70
192
0
VERTEX
8
Meshes
10
1.968956
20
0.729824
30
0.000000
70
192
0
VERTEX
8
Meshes
10
-1.000000
20
0.729824
30
-0.000000
70
192
0
VERTEX
8
Meshes
10
-1.060039
20
-1.330215
30
0.000000
70
192
0
VERTEX
8
Meshes
10
-1.060039
20
0.669785
30
-0.000000
70
192
0
VERTEX
8
Meshes
10
-1.060039
20
-1.390254
30
0.000000
70
192
0
VERTEX
8
Meshes
10
-1.060039
20
0.729824
30
-0.000000
70
192
0
VERTEX
8
Meshes
10
2.044005
20
0.669785
30
0.000000
70
192
0
VERTEX
8
Meshes
10
2.044005
20
-1.330215
30
0.000000
70
192
0
VERTEX
8
Meshes
10
2.044005
20
-1.390254
30
0.000000
70
192
0
VERTEX
8
Meshes
10
2.044005
20
0.729824
30
0.000000
70
192
0
VERTEX
8
Meshes
62
254
10
0.0
20
0.0
30
0.0
70
128
71
1
72
4
73
3
74
2
0
VERTEX
8
Meshes
62
254
10
0.0
20
0.0
30
0.0
70
128
71
2
72
3
73
6
74
5
0
VERTEX
8
Meshes
62
254
10
0.0
20
0.0
30
0.0
70
128
71
4
72
1
73
7
74
8
0
VERTEX
8
Meshes
62
254
10
0.0
20
0.0
30
0.0
70
128
71
3
72
4
73
10
74
9
0
VERTEX
8
Meshes
62
254
10
0.0
20
0.0
30
0.0
70
128
71
6
72
3
73
9
74
11
0
VERTEX
8
Meshes
62
254
10
0.0
20
0.0
30
0.0
70
128
71
4
72
8
73
12
74
10
0
VERTEX
8
Meshes
62
254
10
0.0
20
0.0
30
0.0
70
128
71
1
72
2
73
14
74
13
0
VERTEX
8
Meshes
62
254
10
0.0
20
0.0
30
0.0
70
128
71
2
72
5
73
15
74
14
0
VERTEX
8
Meshes
62
254
10
0.0
20
0.0
30
0.0
70
128
71
7
72
1
73
13
74
16
0
SEQEND
0
ENDBLK
0
BLOCK
2
Plane_026
8
Meshes
70
64
10
0.0
20
0.0
30
0.0
3
Plane_026
0
POLYLINE
66
1
8
Meshes
70
64
71
4
72
1
0
VERTEX
8
Meshes
10
1.000000
20
1.000000
30
0.000000
70
192
0
VERTEX
8
Meshes
10
1.000000
20
-1.000000
30
0.000000
70
192
0
VERTEX
8
Meshes
10
-1.000000
20
-1.000000
30
-0.000000
70
192
0
VERTEX
8
Meshes
10
-1.000000
20
1.000000
30
-0.000000
70
192
0
VERTEX
8
Meshes
62
254
10
0.0
20
0.0
30
0.0
70
128
71
1
72
4
73
3
74
2
0
SEQEND
0
ENDBLK
0
BLOCK
2
Plane_027
8
Meshes
70
64
10
0.0
20
0.0
30
0.0
3
Plane_027
0
POLYLINE
66
1
8
Meshes
70
64
71
16
72
9
0
VERTEX
8
Meshes
10
0.332904
20
0.669785
30
-0.000000
70
192
0
VERTEX
8
Meshes
10
0.332904
20
-1.330215
30
0.000000
70
192
0
VERTEX
8
Meshes
10
-1.000000
20
-1.330215
30
0.000000
70
192
0
VERTEX
8
Meshes
10
-1.000000
20
0.669785
30
-0.000000
70
192
0
VERTEX
8
Meshes
10
0.332904
20
-1.390254
30
0.000000
70
192
0
VERTEX
8
Meshes
10
-1.000000
20
-1.390254
30
0.000000
70
192
0
VERTEX
8
Meshes
10
0.332904
20
0.729824
30
-0.000000
70
192
0
VERTEX
8
Meshes
10
-1.000000
20
0.729824
30
-0.000000
70
192
0
VERTEX
8
Meshes
10
-1.060039
20
-1.330215
30
0.000000
70
192
0
VERTEX
8
Meshes
10
-1.060039
20
0.669785
30
-0.000000
70
192
0
VERTEX
8
Meshes
10
-1.060039
20
-1.390254
30
0.000000
70
192
0
VERTEX
8
Meshes
10
-1.060039
20
0.729824
30
-0.000000
70
192
0
VERTEX
8
Meshes
10
0.407953
20
0.669785
30
-0.000000
70
192
0
VERTEX
8
Meshes
10
0.407953
20
-1.330215
30
0.000000
70
192
0
VERTEX
8
Meshes
10
0.407953
20
-1.390254
30
0.000000
70
192
0
VERTEX
8
Meshes
10
0.407953
20
0.729824
30
-0.000000
70
192
0
VERTEX
8
Meshes
62
254
10
0.0
20
0.0
30
0.0
70
128
71
1
72
4
73
3
74
2
0
VERTEX
8
Meshes
62
254
10
0.0
20
0.0
30
0.0
70
128
71
2
72
3
73
6
74
5
0
VERTEX
8
Meshes
62
254
10
0.0
20
0.0
30
0.0
70
128
71
4
72
1
73
7
74
8
0
VERTEX
8
Meshes
62
254
10
0.0
20
0.0
30
0.0
70
128
71
3
72
4
73
10
74
9
0
VERTEX
8
Meshes
62
254
10
0.0
20
0.0
30
0.0
70
128
71
6
72
3
73
9
74
11
0
VERTEX
8
Meshes
62
254
10
0.0
20
0.0
30
0.0
70
128
71
4
72
8
73
12
74
10
0
VERTEX
8
Meshes
62
254
10
0.0
20
0.0
30
0.0
70
128
71
1
72
2
73
14
74
13
0
VERTEX
8
Meshes
62
254
10
0.0
20
0.0
30
0.0
70
128
71
2
72
5
73
15
74
14
0
VERTEX
8
Meshes
62
254
10
0.0
20
0.0
30
0.0
70
128
71
7
72
1
73
13
74
16
0
SEQEND
0
ENDBLK
0
BLOCK
2
Plane_028
8
Meshes
70
64
10
0.0
20
0.0
30
0.0
3
Plane_028
0
POLYLINE
66
1
8
Meshes
70
64
71
4
72
1
0
VERTEX
8
Meshes
10
1.000000
20
1.000000
30
0.000000
70
192
0
VERTEX
8
Meshes
10
1.000000
20
-1.000000
30
0.000000
70
192
0
VERTEX
8
Meshes
10
-1.000000
20
-1.000000
30
-0.000000
70
192
0
VERTEX
8
Meshes
10
-1.000000
20
1.000000
30
-0.000000
70
192
0
VERTEX
8
Meshes
62
254
10
0.0
20
0.0
30
0.0
70
128
71
1
72
4
73
3
74
2
0
SEQEND
0
ENDBLK
0
BLOCK
2
Plane_029
8
Meshes
70
64
10
0.0
20
0.0
30
0.0
3
Plane_029
0
POLYLINE
66
1
8
Meshes
70
64
71
4
72
1
0
VERTEX
8
Meshes
10
1.000000
20
1.000000
30
0.000000
70
192
0
VERTEX
8
Meshes
10
1.000000
20
-1.000000
30
0.000000
70
192
0
VERTEX
8
Meshes
10
-1.000000
20
-1.000000
30
-0.000000
70
192
0
VERTEX
8
Meshes
10
-1.000000
20
1.000000
30
-0.000000
70
192
0
VERTEX
8
Meshes
62
254
10
0.0
20
0.0
30
0.0
70
128
71
1
72
4
73
3
74
2
0
SEQEND
0
ENDBLK
0
BLOCK
2
Plane_030
8
Meshes
70
64
10
0.0
20
0.0
30
0.0
3
Plane_030
0
POLYLINE
66
1
8
Meshes
70
64
71
4
72
1
0
VERTEX
8
Meshes
10
1.000000
20
1.000000
30
0.000000
70
192
0
VERTEX
8
Meshes
10
1.000000
20
-1.000000
30
0.000000
70
192
0
VERTEX
8
Meshes
10
-1.000000
20
-1.000000
30
-0.000000
70
192
0
VERTEX
8
Meshes
10
-1.000000
20
1.000000
30
-0.000000
70
192
0
VERTEX
8
Meshes
62
254
10
0.0
20
0.0
30
0.0
70
128
71
1
72
4
73
3
74
2
0
SEQEND
0
ENDBLK
0
BLOCK
2
Plane_031
8
Meshes
70
64
10
0.0
20
0.0
30
0.0
3
Plane_031
0
POLYLINE
66
1
8
Meshes
70
64
71
4
72
1
0
VERTEX
8
Meshes
10
2.786643
20
1.826671
30
-0.086088
70
192
0
VERTEX
8
Meshes
10
2.786643
20
-2.168980
30
-0.086088
70
192
0
VERTEX
8
Meshes
10
-2.400980
20
-2.168979
30
-0.000000
70
192
0
VERTEX
8
Meshes
10
-2.400979
20
1.826671
30
-0.000000
70
192
0
VERTEX
8
Meshes
62
254
10
0.0
20
0.0
30
0.0
70
128
71
1
72
4
73
3
74
2
0
SEQEND
0
ENDBLK
0
BLOCK
2
Plane_090
8
Meshes
70
64
10
0.0
20
0.0
30
0.0
3
Plane_090
0
POLYLINE
66
1
8
Meshes
70
64
71
4
72
1
0
VERTEX
8
Meshes
10
1.000000
20
1.000000
30
0.000000
70
192
0
VERTEX
8
Meshes
10
1.000000
20
-1.000000
30
0.000000
70
192
0
VERTEX
8
Meshes
10
-1.000000
20
-1.000000
30
-0.000000
70
192
0
VERTEX
8
Meshes
10
-1.000000
20
1.000000
30
-0.000000
70
192
0
VERTEX
8
Meshes
62
254
10
0.0
20
0.0
30
0.0
70
128
71
1
72
4
73
3
74
2
0
SEQEND
0
ENDBLK
0
BLOCK
2
Plane_093
8
Meshes
70
64
10
0.0
20
0.0
30
0.0
3
Plane_093
0
POLYLINE
66
1
8
Meshes
70
64
71
4
72
1
0
VERTEX
8
Meshes
10
1.000000
20
1.000000
30
0.000000
70
192
0
VERTEX
8
Meshes
10
1.000000
20
-1.000000
30
0.000000
70
192
0
VERTEX
8
Meshes
10
-1.000000
20
-1.000000
30
-0.000000
70
192
0
VERTEX
8
Meshes
10
-1.000000
20
1.000000
30
-0.000000
70
192
0
VERTEX
8
Meshes
62
254
10
0.0
20
0.0
30
0.0
70
128
71
1
72
4
73
3
74
2
0
SEQEND
0
ENDBLK
0
BLOCK
2
Plane_105
8
Meshes
70
64
10
0.0
20
0.0
30
0.0
3
Plane_105
0
POLYLINE
66
1
8
Meshes
70
64
71
2
72
1
0
VERTEX
8
Meshes
10
-0.950225
20
-3.769243
30
-0.000000
70
192
0
VERTEX
8
Meshes
10
1.049776
20
-3.769243
30
-0.000000
70
192
0
SEQEND
0
ENDBLK
0
BLOCK
2
Plane_123
8
Meshes
70
64
10
0.0
20
0.0
30
0.0
3
Plane_123
0
POLYLINE
66
1
8
Meshes
70
64
71
4
72
1
0
VERTEX
8
Meshes
10
2.254407
20
2.254407
30
0.000000
70
192
0
VERTEX
8
Meshes
10
2.251739
20
-2.998475
30
-0.000000
70
192
0
VERTEX
8
Meshes
10
-2.257077
20
-2.998474
30
-0.000000
70
192
0
VERTEX
8
Meshes
10
-2.254407
20
2.254408
30
0.000000
70
192
0
VERTEX
8
Meshes
62
254
10
0.0
20
0.0
30
0.0
70
128
71
1
72
4
73
3
74
2
0
SEQEND
0
ENDBLK
0
BLOCK
2
Plane_125
8
Meshes
70
64
10
0.0
20
0.0
30
0.0
3
Plane_125
0
POLYLINE
66
1
8
Meshes
62
255
70
64
71
4
72
1
0
VERTEX
8
Meshes
10
6.778872
20
5.625380
30
0.438993
70
192
0
VERTEX
8
Meshes
10
6.778872
20
4.369596
30
0.438993
70
192
0
VERTEX
8
Meshes
10
5.523089
20
4.369596
30
0.440032
70
192
0
VERTEX
8
Meshes
10
5.523089
20
5.625381
30
0.440032
70
192
0
VERTEX
8
Meshes
62
255
10
0.0
20
0.0
30
0.0
70
128
71
1
72
4
73
3
74
2
0
SEQEND
0
ENDBLK
0
BLOCK
2
Plane_126
8
Meshes
70
64
10
0.0
20
0.0
30
0.0
3
Plane_126
0
POLYLINE
66
1
8
Meshes
62
255
70
64
71
4
72
1
0
VERTEX
8
Meshes
10
2.802464
20
5.594221
30
0.438993
70
192
0
VERTEX
8
Meshes
10
2.802464
20
4.338437
30
0.438993
70
192
0
VERTEX
8
Meshes
10
1.546681
20
4.338437
30
0.440032
70
192
0
VERTEX
8
Meshes
10
1.546681
20
5.594221
30
0.440032
70
192
0
VERTEX
8
Meshes
62
255
10
0.0
20
0.0
30
0.0
70
128
71
1
72
4
73
3
74
2
0
SEQEND
0
ENDBLK
0
BLOCK
2
Plane_127
8
Meshes
70
64
10
0.0
20
0.0
30
0.0
3
Plane_127
0
POLYLINE
66
1
8
Meshes
62
255
70
64
71
4
72
1
0
VERTEX
8
Meshes
10
4.263747
20
8.046545
30
0.438993
70
192
0
VERTEX
8
Meshes
10
4.263747
20
6.790761
30
0.438993
70
192
0
VERTEX
8
Meshes
10
3.007963
20
6.790761
30
0.440032
70
192
0
VERTEX
8
Meshes
10
3.007963
20
8.046546
30
0.440032
70
192
0
VERTEX
8
Meshes
62
255
10
0.0
20
0.0
30
0.0
70
128
71
1
72
4
73
3
74
2
0
SEQEND
0
ENDBLK
0
BLOCK
2
Plane_128
8
Meshes
70
64
10
0.0
20
0.0
30
0.0
3
Plane_128
0
POLYLINE
66
1
8
Meshes
62
255
70
64
71
4
72
1
0
VERTEX
8
Meshes
10
1.468547
20
5.594221
30
0.438993
70
192
0
VERTEX
8
Meshes
10
1.468547
20
4.338437
30
0.438993
70
192
0
VERTEX
8
Meshes
10
0.212763
20
4.338437
30
0.440032
70
192
0
VERTEX
8
Meshes
10
0.212764
20
5.594221
30
0.440032
70
192
0
VERTEX
8
Meshes
62
255
10
0.0
20
0.0
30
0.0
70
128
71
1
72
4
73
3
74
2
0
SEQEND
0
ENDBLK
0
BLOCK
2
Plane_129
8
Meshes
70
64
10
0.0
20
0.0
30
0.0
3
Plane_129
0
POLYLINE
66
1
8
Meshes
62
255
70
64
71
4
72
1
0
VERTEX
8
Meshes
10
0.150432
20
5.594221
30
0.438993
70
192
0
VERTEX
8
Meshes
10
0.150432
20
4.338437
30
0.438993
70
192
0
VERTEX
8
Meshes
10
-1.105352
20
4.338437
30
0.440032
70
192
0
VERTEX
8
Meshes
10
-1.105352
20
5.594221
30
0.440032
70
192
0
VERTEX
8
Meshes
62
255
10
0.0
20
0.0
30
0.0
70
128
71
1
72
4
73
3
74
2
0
SEQEND
0
ENDBLK
0
BLOCK
2
Plane_130
8
Meshes
70
64
10
0.0
20
0.0
30
0.0
3
Plane_130
0
POLYLINE
66
1
8
Meshes
62
255
70
64
71
4
72
1
0
VERTEX
8
Meshes
10
4.107680
20
5.594221
30
0.438993
70
192
0
VERTEX
8
Meshes
10
4.107680
20
4.338437
30
0.438993
70
192
0
VERTEX
8
Meshes
10
2.851897
20
4.338437
30
0.440032
70
192
0
VERTEX
8
Meshes
10
2.851897
20
5.594221
30
0.440032
70
192
0
VERTEX
8
Meshes
62
255
10
0.0
20
0.0
30
0.0
70
128
71
1
72
4
73
3
74
2
0
SEQEND
0
ENDBLK
0
BLOCK
2
Plane_131
8
Meshes
70
64
10
0.0
20
0.0
30
0.0
3
Plane_131
0
POLYLINE
66
1
8
Meshes
62
255
70
64
71
4
72
1
0
VERTEX
8
Meshes
10
5.425796
20
5.594221
30
0.438993
70
192
0
VERTEX
8
Meshes
10
5.425796
20
4.338437
30
0.438993
70
192
0
VERTEX
8
Meshes
10
4.170012
20
4.338437
30
0.440032
70
192
0
VERTEX
8
Meshes
10
4.170012
20
5.594221
30
0.440032
70
192
0
VERTEX
8
Meshes
62
255
10
0.0
20
0.0
30
0.0
70
128
71
1
72
4
73
3
74
2
0
SEQEND
0
ENDBLK
0
BLOCK
2
Plane_132
8
Meshes
70
64
10
0.0
20
0.0
30
0.0
3
Plane_132
0
POLYLINE
66
1
8
Meshes
62
255
70
64
71
4
72
1
0
VERTEX
8
Meshes
10
6.389883
20
8.046545
30
0.614302
70
192
0
VERTEX
8
Meshes
10
6.389883
20
6.790761
30
0.614302
70
192
0
VERTEX
8
Meshes
10
5.134099
20
6.790761
30
0.615341
70
192
0
VERTEX
8
Meshes
10
5.134100
20
8.046546
30
0.615341
70
192
0
VERTEX
8
Meshes
62
255
10
0.0
20
0.0
30
0.0
70
128
71
1
72
4
73
3
74
2
0
SEQEND
0
ENDBLK
0
BLOCK
2
Plane_133
8
Meshes
70
64
10
0.0
20
0.0
30
0.0
3
Plane_133
0
POLYLINE
66
1
8
Meshes
62
255
70
64
71
4
72
1
0
VERTEX
8
Meshes
10
-3.398227
20
8.049782
30
0.438993
70
192
0
VERTEX
8
Meshes
10
-3.398227
20
6.793998
30
0.438993
70
192
0
VERTEX
8
Meshes
10
-4.654011
20
6.793998
30
0.440032
70
192
0
VERTEX
8
Meshes
10
-4.654010
20
8.049782
30
0.440032
70
192
0
VERTEX
8
Meshes
62
255
10
0.0
20
0.0
30
0.0
70
128
71
1
72
4
73
3
74
2
0
SEQEND
0
ENDBLK
0
BLOCK
2
Plane_134
8
Meshes
70
64
10
0.0
20
0.0
30
0.0
3
Plane_134
0
POLYLINE
66
1
8
Meshes
62
255
70
64
71
4
72
1
0
VERTEX
8
Meshes
10
-1.154784
20
5.594221
30
0.438993
70
192
0
VERTEX
8
Meshes
10
-1.154784
20
4.338437
30
0.438993
70
192
0
VERTEX
8
Meshes
10
-2.410567
20
4.338437
30
0.440032
70
192
0
VERTEX
8
Meshes
10
-2.410567
20
5.594221
30
0.440032
70
192
0
VERTEX
8
Meshes
62
255
10
0.0
20
0.0
30
0.0
70
128
71
1
72
4
73
3
74
2
0
SEQEND
0
ENDBLK
0
BLOCK
2
Plane_135
8
Meshes
70
64
10
0.0
20
0.0
30
0.0
3
Plane_135
0
POLYLINE
66
1
8
Meshes
62
255
70
64
71
4
72
1
0
VERTEX
8
Meshes
10
-5.143191
20
5.594221
30
0.438993
70
192
0
VERTEX
8
Meshes
10
-5.143191
20
4.338437
30
0.438993
70
192
0
VERTEX
8
Meshes
10
-6.398975
20
4.338437
30
0.440032
70
192
0
VERTEX
8
Meshes
10
-6.398974
20
5.594221
30
0.440032
70
192
0
VERTEX
8
Meshes
62
255
10
0.0
20
0.0
30
0.0
70
128
71
1
72
4
73
3
74
2
0
SEQEND
0
ENDBLK
0
BLOCK
2
Plane_136
8
Meshes
70
64
10
0.0
20
0.0
30
0.0
3
Plane_136
0
POLYLINE
66
1
8
Meshes
62
255
70
64
71
4
72
1
0
VERTEX
8
Meshes
10
-2.519861
20
5.594221
30
0.438993
70
192
0
VERTEX
8
Meshes
10
-2.519861
20
4.338437
30
0.438993
70
192
0
VERTEX
8
Meshes
10
-3.775644
20
4.338437
30
0.440032
70
192
0
VERTEX
8
Meshes
10
-3.775644
20
5.594221
30
0.440032
70
192
0
VERTEX
8
Meshes
62
255
10
0.0
20
0.0
30
0.0
70
128
71
1
72
4
73
3
74
2
0
SEQEND
0
ENDBLK
0
BLOCK
2
Plane_137
8
Meshes
70
64
10
0.0
20
0.0
30
0.0
3
Plane_137
0
POLYLINE
66
1
8
Meshes
62
255
70
64
71
4
72
1
0
VERTEX
8
Meshes
10
-3.837976
20
5.594221
30
0.438993
70
192
0
VERTEX
8
Meshes
10
-3.837976
20
4.338437
30
0.438993
70
192
0
VERTEX
8
Meshes
10
-5.093760
20
4.338437
30
0.440032
70
192
0
VERTEX
8
Meshes
10
-5.093760
20
5.594221
30
0.440032
70
192
0
VERTEX
8
Meshes
62
255
10
0.0
20
0.0
30
0.0
70
128
71
1
72
4
73
3
74
2
0
SEQEND
0
ENDBLK
0
BLOCK
2
Plane_138
8
Meshes
70
64
10
0.0
20
0.0
30
0.0
3
Plane_138
0
POLYLINE
66
1
8
Meshes
62
255
70
64
71
4
72
1
0
VERTEX
8
Meshes
10
-2.093012
20
8.049782
30
0.438993
70
192
0
VERTEX
8
Meshes
10
-2.093012
20
6.793998
30
0.438993
70
192
0
VERTEX
8
Meshes
10
-3.348795
20
6.793998
30
0.440032
70
192
0
VERTEX
8
Meshes
10
-3.348795
20
8.049782
30
0.440032
70
192
0
VERTEX
8
Meshes
62
255
10
0.0
20
0.0
30
0.0
70
128
71
1
72
4
73
3
74
2
0
SEQEND
0
ENDBLK
0
BLOCK
2
Plane_139
8
Meshes
70
64
10
0.0
20
0.0
30
0.0
3
Plane_139
0
POLYLINE
66
1
8
Meshes
62
255
70
64
71
4
72
1
0
VERTEX
8
Meshes
10
-0.774896
20
8.049782
30
0.438993
70
192
0
VERTEX
8
Meshes
10
-0.774896
20
6.793998
30
0.438993
70
192
0
VERTEX
8
Meshes
10
-2.030680
20
6.793998
30
0.440032
70
192
0
VERTEX
8
Meshes
10
-2.030680
20
8.049782
30
0.440032
70
192
0
VERTEX
8
Meshes
62
255
10
0.0
20
0.0
30
0.0
70
128
71
1
72
4
73
3
74
2
0
SEQEND
0
ENDBLK
0
BLOCK
2
Plane_140
8
Meshes
70
64
10
0.0
20
0.0
30
0.0
3
Plane_140
0
POLYLINE
66
1
8
Meshes
62
255
70
64
71
4
72
1
0
VERTEX
8
Meshes
10
-4.818390
20
8.046545
30
0.438993
70
192
0
VERTEX
8
Meshes
10
-4.818390
20
6.790761
30
0.438993
70
192
0
VERTEX
8
Meshes
10
-6.074174
20
6.790761
30
0.440032
70
192
0
VERTEX
8
Meshes
10
-6.074173
20
8.046546
30
0.440032
70
192
0
VERTEX
8
Meshes
62
255
10
0.0
20
0.0
30
0.0
70
128
71
1
72
4
73
3
74
2
0
SEQEND
0
ENDBLK
0
BLOCK
2
Plane_141
8
Meshes
70
64
10
0.0
20
0.0
30
0.0
3
Plane_141
0
POLYLINE
66
1
8
Meshes
62
255
70
64
71
4
72
1
0
VERTEX
8
Meshes
10
1.537931
20
8.046545
30
0.438993
70
192
0
VERTEX
8
Meshes
10
1.537931
20
6.790761
30
0.438993
70
192
0
VERTEX
8
Meshes
10
0.282148
20
6.790761
30
0.440032
70
192
0
VERTEX
8
Meshes
10
0.282148
20
8.046546
30
0.440032
70
192
0
VERTEX
8
Meshes
62
255
10
0.0
20
0.0
30
0.0
70
128
71
1
72
4
73
3
74
2
0
SEQEND
0
ENDBLK
0
BLOCK
2
Plane_142
8
Meshes
70
64
10
0.0
20
0.0
30
0.0
3
Plane_142
0
POLYLINE
66
1
8
Meshes
62
255
70
64
71
4
72
1
0
VERTEX
8
Meshes
10
5.626655
20
8.046545
30
0.438993
70
192
0
VERTEX
8
Meshes
10
5.626655
20
6.790761
30
0.438993
70
192
0
VERTEX
8
Meshes
10
4.370871
20
6.790761
30
0.440032
70
192
0
VERTEX
8
Meshes
10
4.370872
20
8.046546
30
0.440032
70
192
0
VERTEX
8
Meshes
62
255
10
0.0
20
0.0
30
0.0
70
128
71
1
72
4
73
3
74
2
0
SEQEND
0
ENDBLK
0
BLOCK
2
Plane_143
8
Meshes
70
64
10
0.0
20
0.0
30
0.0
3
Plane_143
0
POLYLINE
66
1
8
Meshes
62
255
70
64
71
4
72
1
0
VERTEX
8
Meshes
10
2.900839
20
8.046545
30
0.438993
70
192
0
VERTEX
8
Meshes
10
2.900839
20
6.790761
30
0.438993
70
192
0
VERTEX
8
Meshes
10
1.645055
20
6.790761
30
0.440032
70
192
0
VERTEX
8
Meshes
10
1.645056
20
8.046546
30
0.440032
70
192
0
VERTEX
8
Meshes
62
255
10
0.0
20
0.0
30
0.0
70
128
71
1
72
4
73
3
74
2
0
SEQEND
0
ENDBLK
0
BLOCK
2
Plane_168
8
Meshes
70
64
10
0.0
20
0.0
30
0.0
3
Plane_168
0
POLYLINE
66
1
8
Meshes
70
64
71
4
72
1
0
VERTEX
8
Meshes
10
14.325125
20
14.325123
30
0.000001
70
192
0
VERTEX
8
Meshes
10
14.325125
20
-14.325129
30
-0.000001
70
192
0
VERTEX
8
Meshes
10
-14.325127
20
-14.325125
30
-0.000001
70
192
0
VERTEX
8
Meshes
10
-14.325121
20
14.325130
30
0.000001
70
192
0
VERTEX
8
Meshes
62
254
10
0.0
20
0.0
30
0.0
70
128
71
1
72
4
73
3
74
2
0
SEQEND
0
ENDBLK
0
BLOCK
2
Plane_169
8
Meshes
70
64
10
0.0
20
0.0
30
0.0
3
Plane_169
0
POLYLINE
66
1
8
Meshes
70
64
71
4
72
1
0
VERTEX
8
Meshes
10
25.180651
20
25.180651
30
0.000001
70
192
0
VERTEX
8
Meshes
10
25.180651
20
-25.180656
30
-0.000001
70
192
0
VERTEX
8
Meshes
10
-25.180660
20
-25.180651
30
-0.000001
70
192
0
VERTEX
8
Meshes
10
-25.180645
20
25.180660
30
0.000001
70
192
0
VERTEX
8
Meshes
62
254
10
0.0
20
0.0
30
0.0
70
128
71
1
72
4
73
3
74
2
0
SEQEND
0
ENDBLK
0
BLOCK
2
Plane_170
8
Meshes
70
64
10
0.0
20
0.0
30
0.0
3
Plane_170
0
POLYLINE
66
1
8
Meshes
70
64
71
4
72
1
0
VERTEX
8
Meshes
10
2.786643
20
1.826671
30
-0.086088
70
192
0
VERTEX
8
Meshes
10
2.786643
20
-2.168980
30
-0.086088
70
192
0
VERTEX
8
Meshes
10
-2.400980
20
-2.168979
30
-0.000000
70
192
0
VERTEX
8
Meshes
10
-2.400979
20
1.826671
30
-0.000000
70
192
0
VERTEX
8
Meshes
62
254
10
0.0
20
0.0
30
0.0
70
128
71
1
72
4
73
3
74
2
0
SEQEND
0
ENDBLK
0
BLOCK
2
Plane_171
8
Meshes
70
64
10
0.0
20
0.0
30
0.0
3
Plane_171
0
POLYLINE
66
1
8
Meshes
70
64
71
16
72
9
0
VERTEX
8
Meshes
10
1.968956
20
0.669785
30
0.000000
70
192
0
VERTEX
8
Meshes
10
1.968956
20
-1.330215
30
0.000000
70
192
0
VERTEX
8
Meshes
10
-1.000000
20
-1.330215
30
0.000000
70
192
0
VERTEX
8
Meshes
10
-1.000000
20
0.669785
30
-0.000000
70
192
0
VERTEX
8
Meshes
10
1.968956
20
-1.390254
30
0.000000
70
192
0
VERTEX
8
Meshes
10
-1.000000
20
-1.390254
30
0.000000
70
192
0
VERTEX
8
Meshes
10
1.968956
20
0.729824
30
0.000000
70
192
0
VERTEX
8
Meshes
10
-1.000000
20
0.729824
30
-0.000000
70
192
0
VERTEX
8
Meshes
10
-1.060039
20
-1.330215
30
0.000000
70
192
0
VERTEX
8
Meshes
10
-1.060039
20
0.669785
30
-0.000000
70
192
0
VERTEX
8
Meshes
10
-1.060039
20
-1.390254
30
0.000000
70
192
0
VERTEX
8
Meshes
10
-1.060039
20
0.729824
30
-0.000000
70
192
0
VERTEX
8
Meshes
10
2.044005
20
0.669785
30
0.000000
70
192
0
VERTEX
8
Meshes
10
2.044005
20
-1.330215
30
0.000000
70
192
0
VERTEX
8
Meshes
10
2.044005
20
-1.390254
30
0.000000
70
192
0
VERTEX
8
Meshes
10
2.044005
20
0.729824
30
0.000000
70
192
0
VERTEX
8
Meshes
62
254
10
0.0
20
0.0
30
0.0
70
128
71
1
72
4
73
3
74
2
0
VERTEX
8
Meshes
62
254
10
0.0
20
0.0
30
0.0
70
128
71
2
72
3
73
6
74
5
0
VERTEX
8
Meshes
62
254
10
0.0
20
0.0
30
0.0
70
128
71
4
72
1
73
7
74
8
0
VERTEX
8
Meshes
62
254
10
0.0
20
0.0
30
0.0
70
128
71
3
72
4
73
10
74
9
0
VERTEX
8
Meshes
62
254
10
0.0
20
0.0
30
0.0
70
128
71
6
72
3
73
9
74
11
0
VERTEX
8
Meshes
62
254
10
0.0
20
0.0
30
0.0
70
128
71
4
72
8
73
12
74
10
0
VERTEX
8
Meshes
62
254
10
0.0
20
0.0
30
0.0
70
128
71
1
72
2
73
14
74
13
0
VERTEX
8
Meshes
62
254
10
0.0
20
0.0
30
0.0
70
128
71
2
72
5
73
15
74
14
0
VERTEX
8
Meshes
62
254
10
0.0
20
0.0
30
0.0
70
128
71
7
72
1
73
13
74
16
0
SEQEND
0
ENDBLK
0
BLOCK
2
Plane_175
8
Meshes
70
64
10
0.0
20
0.0
30
0.0
3
Plane_175
0
POLYLINE
66
1
8
Meshes
70
64
71
16
72
9
0
VERTEX
8
Meshes
10
0.332904
20
0.669785
30
-0.000000
70
192
0
VERTEX
8
Meshes
10
0.332904
20
-1.330215
30
0.000000
70
192
0
VERTEX
8
Meshes
10
-1.000000
20
-1.330215
30
0.000000
70
192
0
VERTEX
8
Meshes
10
-1.000000
20
0.669785
30
-0.000000
70
192
0
VERTEX
8
Meshes
10
0.332904
20
-1.390254
30
0.000000
70
192
0
VERTEX
8
Meshes
10
-1.000000
20
-1.390254
30
0.000000
70
192
0
VERTEX
8
Meshes
10
0.332904
20
0.729824
30
-0.000000
70
192
0
VERTEX
8
Meshes
10
-1.000000
20
0.729824
30
-0.000000
70
192
0
VERTEX
8
Meshes
10
-1.060039
20
-1.330215
30
0.000000
70
192
0
VERTEX
8
Meshes
10
-1.060039
20
0.669785
30
-0.000000
70
192
0
VERTEX
8
Meshes
10
-1.060039
20
-1.390254
30
0.000000
70
192
0
VERTEX
8
Meshes
10
-1.060039
20
0.729824
30
-0.000000
70
192
0
VERTEX
8
Meshes
10
0.407953
20
0.669785
30
-0.000000
70
192
0
VERTEX
8
Meshes
10
0.407953
20
-1.330215
30
0.000000
70
192
0
VERTEX
8
Meshes
10
0.407953
20
-1.390254
30
0.000000
70
192
0
VERTEX
8
Meshes
10
0.407953
20
0.729824
30
-0.000000
70
192
0
VERTEX
8
Meshes
62
254
10
0.0
20
0.0
30
0.0
70
128
71
1
72
4
73
3
74
2
0
VERTEX
8
Meshes
62
254
10
0.0
20
0.0
30
0.0
70
128
71
2
72
3
73
6
74
5
0
VERTEX
8
Meshes
62
254
10
0.0
20
0.0
30
0.0
70
128
71
4
72
1
73
7
74
8
0
VERTEX
8
Meshes
62
254
10
0.0
20
0.0
30
0.0
70
128
71
3
72
4
73
10
74
9
0
VERTEX
8
Meshes
62
254
10
0.0
20
0.0
30
0.0
70
128
71
6
72
3
73
9
74
11
0
VERTEX
8
Meshes
62
254
10
0.0
20
0.0
30
0.0
70
128
71
4
72
8
73
12
74
10
0
VERTEX
8
Meshes
62
254
10
0.0
20
0.0
30
0.0
70
128
71
1
72
2
73
14
74
13
0
VERTEX
8
Meshes
62
254
10
0.0
20
0.0
30
0.0
70
128
71
2
72
5
73
15
74
14
0
VERTEX
8
Meshes
62
254
10
0.0
20
0.0
30
0.0
70
128
71
7
72
1
73
13
74
16
0
SEQEND
0
ENDBLK
0
BLOCK
2
Plane_176
8
Meshes
70
64
10
0.0
20
0.0
30
0.0
3
Plane_176
0
POLYLINE
66
1
8
Meshes
70
64
71
4
72
1
0
VERTEX
8
Meshes
10
1.000000
20
1.000000
30
0.000000
70
192
0
VERTEX
8
Meshes
10
1.000000
20
-1.000000
30
0.000000
70
192
0
VERTEX
8
Meshes
10
-1.000000
20
-1.000000
30
-0.000000
70
192
0
VERTEX
8
Meshes
10
-1.000000
20
1.000000
30
-0.000000
70
192
0
VERTEX
8
Meshes
62
254
10
0.0
20
0.0
30
0.0
70
128
71
1
72
4
73
3
74
2
0
SEQEND
0
ENDBLK
0
BLOCK
2
Plane_177
8
Meshes
70
64
10
0.0
20
0.0
30
0.0
3
Plane_177
0
POLYLINE
66
1
8
Meshes
70
64
71
4
72
1
0
VERTEX
8
Meshes
10
1.000000
20
1.000000
30
0.000000
70
192
0
VERTEX
8
Meshes
10
1.000000
20
-1.000000
30
0.000000
70
192
0
VERTEX
8
Meshes
10
-1.000000
20
-1.000000
30
-0.000000
70
192
0
VERTEX
8
Meshes
10
-1.000000
20
1.000000
30
-0.000000
70
192
0
VERTEX
8
Meshes
62
254
10
0.0
20
0.0
30
0.0
70
128
71
1
72
4
73
3
74
2
0
SEQEND
0
ENDBLK
0
BLOCK
2
Plane_178
8
Meshes
70
64
10
0.0
20
0.0
30
0.0
3
Plane_178
0
POLYLINE
66
1
8
Meshes
70
64
71
4
72
1
0
VERTEX
8
Meshes
10
1.000000
20
1.000000
30
0.000000
70
192
0
VERTEX
8
Meshes
10
1.000000
20
-1.000000
30
0.000000
70
192
0
VERTEX
8
Meshes
10
-1.000000
20
-1.000000
30
-0.000000
70
192
0
VERTEX
8
Meshes
10
-1.000000
20
1.000000
30
-0.000000
70
192
0
VERTEX
8
Meshes
62
254
10
0.0
20
0.0
30
0.0
70
128
71
1
72
4
73
3
74
2
0
SEQEND
0
ENDBLK
0
BLOCK
2
Plane_179
8
Meshes
70
64
10
0.0
20
0.0
30
0.0
3
Plane_179
0
POLYLINE
66
1
8
Meshes
70
64
71
4
72
1
0
VERTEX
8
Meshes
10
2.786643
20
1.826671
30
-0.086088
70
192
0
VERTEX
8
Meshes
10
2.786643
20
-2.168980
30
-0.086088
70
192
0
VERTEX
8
Meshes
10
-2.400980
20
-2.168979
30
-0.000000
70
192
0
VERTEX
8
Meshes
10
-2.400979
20
1.826671
30
-0.000000
70
192
0
VERTEX
8
Meshes
62
254
10
0.0
20
0.0
30
0.0
70
128
71
1
72
4
73
3
74
2
0
SEQEND
0
ENDBLK
0
BLOCK
2
Plane_180
8
Meshes
70
64
10
0.0
20
0.0
30
0.0
3
Plane_180
0
POLYLINE
66
1
8
Meshes
70
64
71
16
72
9
0
VERTEX
8
Meshes
10
1.968956
20
0.669785
30
0.000000
70
192
0
VERTEX
8
Meshes
10
1.968956
20
-1.330215
30
0.000000
70
192
0
VERTEX
8
Meshes
10
-1.000000
20
-1.330215
30
0.000000
70
192
0
VERTEX
8
Meshes
10
-1.000000
20
0.669785
30
-0.000000
70
192
0
VERTEX
8
Meshes
10
1.968956
20
-1.390254
30
0.000000
70
192
0
VERTEX
8
Meshes
10
-1.000000
20
-1.390254
30
0.000000
70
192
0
VERTEX
8
Meshes
10
1.968956
20
0.729824
30
0.000000
70
192
0
VERTEX
8
Meshes
10
-1.000000
20
0.729824
30
-0.000000
70
192
0
VERTEX
8
Meshes
10
-1.060039
20
-1.330215
30
0.000000
70
192
0
VERTEX
8
Meshes
10
-1.060039
20
0.669785
30
-0.000000
70
192
0
VERTEX
8
Meshes
10
-1.060039
20
-1.390254
30
0.000000
70
192
0
VERTEX
8
Meshes
10
-1.060039
20
0.729824
30
-0.000000
70
192
0
VERTEX
8
Meshes
10
2.044005
20
0.669785
30
0.000000
70
192
0
VERTEX
8
Meshes
10
2.044005
20
-1.330215
30
0.000000
70
192
0
VERTEX
8
Meshes
10
2.044005
20
-1.390254
30
0.000000
70
192
0
VERTEX
8
Meshes
10
2.044005
20
0.729824
30
0.000000
70
192
0
VERTEX
8
Meshes
62
254
10
0.0
20
0.0
30
0.0
70
128
71
1
72
4
73
3
74
2
0
VERTEX
8
Meshes
62
254
10
0.0
20
0.0
30
0.0
70
128
71
2
72
3
73
6
74
5
0
VERTEX
8
Meshes
62
254
10
0.0
20
0.0
30
0.0
70
128
71
4
72
1
73
7
74
8
0
VERTEX
8
Meshes
62
254
10
0.0
20
0.0
30
0.0
70
128
71
3
72
4
73
10
74
9
0
VERTEX
8
Meshes
62
254
10
0.0
20
0.0
30
0.0
70
128
71
6
72
3
73
9
74
11
0
VERTEX
8
Meshes
62
254
10
0.0
20
0.0
30
0.0
70
128
71
4
72
8
73
12
74
10
0
VERTEX
8
Meshes
62
254
10
0.0
20
0.0
30
0.0
70
128
71
1
72
2
73
14
74
13
0
VERTEX
8
Meshes
62
254
10
0.0
20
0.0
30
0.0
70
128
71
2
72
5
73
15
74
14
0
VERTEX
8
Meshes
62
254
10
0.0
20
0.0
30
0.0
70
128
71
7
72
1
73
13
74
16
0
SEQEND
0
ENDBLK
0
BLOCK
2
Plane_184
8
Meshes
70
64
10
0.0
20
0.0
30
0.0
3
Plane_184
0
POLYLINE
66
1
8
Meshes
70
64
71
16
72
9
0
VERTEX
8
Meshes
10
0.332904
20
0.669785
30
-0.000000
70
192
0
VERTEX
8
Meshes
10
0.332904
20
-1.330215
30
0.000000
70
192
0
VERTEX
8
Meshes
10
-1.000000
20
-1.330215
30
0.000000
70
192
0
VERTEX
8
Meshes
10
-1.000000
20
0.669785
30
-0.000000
70
192
0
VERTEX
8
Meshes
10
0.332904
20
-1.390254
30
0.000000
70
192
0
VERTEX
8
Meshes
10
-1.000000
20
-1.390254
30
0.000000
70
192
0
VERTEX
8
Meshes
10
0.332904
20
0.729824
30
-0.000000
70
192
0
VERTEX
8
Meshes
10
-1.000000
20
0.729824
30
-0.000000
70
192
0
VERTEX
8
Meshes
10
-1.060039
20
-1.330215
30
0.000000
70
192
0
VERTEX
8
Meshes
10
-1.060039
20
0.669785
30
-0.000000
70
192
0
VERTEX
8
Meshes
10
-1.060039
20
-1.390254
30
0.000000
70
192
0
VERTEX
8
Meshes
10
-1.060039
20
0.729824
30
-0.000000
70
192
0
VERTEX
8
Meshes
10
0.407953
20
0.669785
30
-0.000000
70
192
0
VERTEX
8
Meshes
10
0.407953
20
-1.330215
30
0.000000
70
192
0
VERTEX
8
Meshes
10
0.407953
20
-1.390254
30
0.000000
70
192
0
VERTEX
8
Meshes
10
0.407953
20
0.729824
30
-0.000000
70
192
0
VERTEX
8
Meshes
62
254
10
0.0
20
0.0
30
0.0
70
128
71
1
72
4
73
3
74
2
0
VERTEX
8
Meshes
62
254
10
0.0
20
0.0
30
0.0
70
128
71
2
72
3
73
6
74
5
0
VERTEX
8
Meshes
62
254
10
0.0
20
0.0
30
0.0
70
128
71
4
72
1
73
7
74
8
0
VERTEX
8
Meshes
62
254
10
0.0
20
0.0
30
0.0
70
128
71
3
72
4
73
10
74
9
0
VERTEX
8
Meshes
62
254
10
0.0
20
0.0
30
0.0
70
128
71
6
72
3
73
9
74
11
0
VERTEX
8
Meshes
62
254
10
0.0
20
0.0
30
0.0
70
128
71
4
72
8
73
12
74
10
0
VERTEX
8
Meshes
62
254
10
0.0
20
0.0
30
0.0
70
128
71
1
72
2
73
14
74
13
0
VERTEX
8
Meshes
62
254
10
0.0
20
0.0
30
0.0
70
128
71
2
72
5
73
15
74
14
0
VERTEX
8
Meshes
62
254
10
0.0
20
0.0
30
0.0
70
128
71
7
72
1
73
13
74
16
0
SEQEND
0
ENDBLK
0
BLOCK
2
Plane_185
8
Meshes
70
64
10
0.0
20
0.0
30
0.0
3
Plane_185
0
POLYLINE
66
1
8
Meshes
70
64
71
4
72
1
0
VERTEX
8
Meshes
10
1.000000
20
1.000000
30
0.000000
70
192
0
VERTEX
8
Meshes
10
1.000000
20
-1.000000
30
0.000000
70
192
0
VERTEX
8
Meshes
10
-1.000000
20
-1.000000
30
-0.000000
70
192
0
VERTEX
8
Meshes
10
-1.000000
20
1.000000
30
-0.000000
70
192
0
VERTEX
8
Meshes
62
254
10
0.0
20
0.0
30
0.0
70
128
71
1
72
4
73
3
74
2
0
SEQEND
0
ENDBLK
0
BLOCK
2
Plane_186
8
Meshes
70
64
10
0.0
20
0.0
30
0.0
3
Plane_186
0
POLYLINE
66
1
8
Meshes
70
64
71
4
72
1
0
VERTEX
8
Meshes
10
1.000000
20
1.000000
30
0.000000
70
192
0
VERTEX
8
Meshes
10
1.000000
20
-1.000000
30
0.000000
70
192
0
VERTEX
8
Meshes
10
-1.000000
20
-1.000000
30
-0.000000
70
192
0
VERTEX
8
Meshes
10
-1.000000
20
1.000000
30
-0.000000
70
192
0
VERTEX
8
Meshes
62
254
10
0.0
20
0.0
30
0.0
70
128
71
1
72
4
73
3
74
2
0
SEQEND
0
ENDBLK
0
BLOCK
2
Plane_187
8
Meshes
70
64
10
0.0
20
0.0
30
0.0
3
Plane_187
0
POLYLINE
66
1
8
Meshes
70
64
71
4
72
1
0
VERTEX
8
Meshes
10
1.000000
20
1.000000
30
0.000000
70
192
0
VERTEX
8
Meshes
10
1.000000
20
-1.000000
30
0.000000
70
192
0
VERTEX
8
Meshes
10
-1.000000
20
-1.000000
30
-0.000000
70
192
0
VERTEX
8
Meshes
10
-1.000000
20
1.000000
30
-0.000000
70
192
0
VERTEX
8
Meshes
62
254
10
0.0
20
0.0
30
0.0
70
128
71
1
72
4
73
3
74
2
0
SEQEND
0
ENDBLK
0
BLOCK
2
Plane_188
8
Meshes
70
64
10
0.0
20
0.0
30
0.0
3
Plane_188
0
POLYLINE
66
1
8
Meshes
70
64
71
4
72
1
0
VERTEX
8
Meshes
10
2.786643
20
1.826671
30
-0.086088
70
192
0
VERTEX
8
Meshes
10
2.786643
20
-2.168980
30
-0.086088
70
192
0
VERTEX
8
Meshes
10
-2.400980
20
-2.168979
30
-0.000000
70
192
0
VERTEX
8
Meshes
10
-2.400979
20
1.826671
30
-0.000000
70
192
0
VERTEX
8
Meshes
62
254
10
0.0
20
0.0
30
0.0
70
128
71
1
72
4
73
3
74
2
0
SEQEND
0
ENDBLK
0
BLOCK
2
Plane_189
8
Meshes
70
64
10
0.0
20
0.0
30
0.0
3
Plane_189
0
POLYLINE
66
1
8
Meshes
70
64
71
16
72
9
0
VERTEX
8
Meshes
10
1.968956
20
0.669785
30
0.000000
70
192
0
VERTEX
8
Meshes
10
1.968956
20
-1.330215
30
0.000000
70
192
0
VERTEX
8
Meshes
10
-1.000000
20
-1.330215
30
0.000000
70
192
0
VERTEX
8
Meshes
10
-1.000000
20
0.669785
30
-0.000000
70
192
0
VERTEX
8
Meshes
10
1.968956
20
-1.390254
30
0.000000
70
192
0
VERTEX
8
Meshes
10
-1.000000
20
-1.390254
30
0.000000
70
192
0
VERTEX
8
Meshes
10
1.968956
20
0.729824
30
0.000000
70
192
0
VERTEX
8
Meshes
10
-1.000000
20
0.729824
30
-0.000000
70
192
0
VERTEX
8
Meshes
10
-1.060039
20
-1.330215
30
0.000000
70
192
0
VERTEX
8
Meshes
10
-1.060039
20
0.669785
30
-0.000000
70
192
0
VERTEX
8
Meshes
10
-1.060039
20
-1.390254
30
0.000000
70
192
0
VERTEX
8
Meshes
10
-1.060039
20
0.729824
30
-0.000000
70
192
0
VERTEX
8
Meshes
10
2.044005
20
0.669785
30
0.000000
70
192
0
VERTEX
8
Meshes
10
2.044005
20
-1.330215
30
0.000000
70
192
0
VERTEX
8
Meshes
10
2.044005
20
-1.390254
30
0.000000
70
192
0
VERTEX
8
Meshes
10
2.044005
20
0.729824
30
0.000000
70
192
0
VERTEX
8
Meshes
62
254
10
0.0
20
0.0
30
0.0
70
128
71
1
72
4
73
3
74
2
0
VERTEX
8
Meshes
62
254
10
0.0
20
0.0
30
0.0
70
128
71
2
72
3
73
6
74
5
0
VERTEX
8
Meshes
62
254
10
0.0
20
0.0
30
0.0
70
128
71
4
72
1
73
7
74
8
0
VERTEX
8
Meshes
62
254
10
0.0
20
0.0
30
0.0
70
128
71
3
72
4
73
10
74
9
0
VERTEX
8
Meshes
62
254
10
0.0
20
0.0
30
0.0
70
128
71
6
72
3
73
9
74
11
0
VERTEX
8
Meshes
62
254
10
0.0
20
0.0
30
0.0
70
128
71
4
72
8
73
12
74
10
0
VERTEX
8
Meshes
62
254
10
0.0
20
0.0
30
0.0
70
128
71
1
72
2
73
14
74
13
0
VERTEX
8
Meshes
62
254
10
0.0
20
0.0
30
0.0
70
128
71
2
72
5
73
15
74
14
0
VERTEX
8
Meshes
62
254
10
0.0
20
0.0
30
0.0
70
128
71
7
72
1
73
13
74
16
0
SEQEND
0
ENDBLK
0
BLOCK
2
Plane_193
8
Meshes
70
64
10
0.0
20
0.0
30
0.0
3
Plane_193
0
POLYLINE
66
1
8
Meshes
70
64
71
16
72
9
0
VERTEX
8
Meshes
10
0.332904
20
0.669785
30
-0.000000
70
192
0
VERTEX
8
Meshes
10
0.332904
20
-1.330215
30
0.000000
70
192
0
VERTEX
8
Meshes
10
-1.000000
20
-1.330215
30
0.000000
70
192
0
VERTEX
8
Meshes
10
-1.000000
20
0.669785
30
-0.000000
70
192
0
VERTEX
8
Meshes
10
0.332904
20
-1.390254
30
0.000000
70
192
0
VERTEX
8
Meshes
10
-1.000000
20
-1.390254
30
0.000000
70
192
0
VERTEX
8
Meshes
10
0.332904
20
0.729824
30
-0.000000
70
192
0
VERTEX
8
Meshes
10
-1.000000
20
0.729824
30
-0.000000
70
192
0
VERTEX
8
Meshes
10
-1.060039
20
-1.330215
30
0.000000
70
192
0
VERTEX
8
Meshes
10
-1.060039
20
0.669785
30
-0.000000
70
192
0
VERTEX
8
Meshes
10
-1.060039
20
-1.390254
30
0.000000
70
192
0
VERTEX
8
Meshes
10
-1.060039
20
0.729824
30
-0.000000
70
192
0
VERTEX
8
Meshes
10
0.407953
20
0.669785
30
-0.000000
70
192
0
VERTEX
8
Meshes
10
0.407953
20
-1.330215
30
0.000000
70
192
0
VERTEX
8
Meshes
10
0.407953
20
-1.390254
30
0.000000
70
192
0
VERTEX
8
Meshes
10
0.407953
20
0.729824
30
-0.000000
70
192
0
VERTEX
8
Meshes
62
254
10
0.0
20
0.0
30
0.0
70
128
71
1
72
4
73
3
74
2
0
VERTEX
8
Meshes
62
254
10
0.0
20
0.0
30
0.0
70
128
71
2
72
3
73
6
74
5
0
VERTEX
8
Meshes
62
254
10
0.0
20
0.0
30
0.0
70
128
71
4
72
1
73
7
74
8
0
VERTEX
8
Meshes
62
254
10
0.0
20
0.0
30
0.0
70
128
71
3
72
4
73
10
74
9
0
VERTEX
8
Meshes
62
254
10
0.0
20
0.0
30
0.0
70
128
71
6
72
3
73
9
74
11
0
VERTEX
8
Meshes
62
254
10
0.0
20
0.0
30
0.0
70
128
71
4
72
8
73
12
74
10
0
VERTEX
8
Meshes
62
254
10
0.0
20
0.0
30
0.0
70
128
71
1
72
2
73
14
74
13
0
VERTEX
8
Meshes
62
254
10
0.0
20
0.0
30
0.0
70
128
71
2
72
5
73
15
74
14
0
VERTEX
8
Meshes
62
254
10
0.0
20
0.0
30
0.0
70
128
71
7
72
1
73
13
74
16
0
SEQEND
0
ENDBLK
0
BLOCK
2
Plane_194
8
Meshes
70
64
10
0.0
20
0.0
30
0.0
3
Plane_194
0
POLYLINE
66
1
8
Meshes
70
64
71
4
72
1
0
VERTEX
8
Meshes
10
1.000000
20
1.000000
30
0.000000
70
192
0
VERTEX
8
Meshes
10
1.000000
20
-1.000000
30
0.000000
70
192
0
VERTEX
8
Meshes
10
-1.000000
20
-1.000000
30
-0.000000
70
192
0
VERTEX
8
Meshes
10
-1.000000
20
1.000000
30
-0.000000
70
192
0
VERTEX
8
Meshes
62
254
10
0.0
20
0.0
30
0.0
70
128
71
1
72
4
73
3
74
2
0
SEQEND
0
ENDBLK
0
BLOCK
2
Plane_195
8
Meshes
70
64
10
0.0
20
0.0
30
0.0
3
Plane_195
0
POLYLINE
66
1
8
Meshes
70
64
71
4
72
1
0
VERTEX
8
Meshes
10
1.000000
20
1.000000
30
0.000000
70
192
0
VERTEX
8
Meshes
10
1.000000
20
-1.000000
30
0.000000
70
192
0
VERTEX
8
Meshes
10
-1.000000
20
-1.000000
30
-0.000000
70
192
0
VERTEX
8
Meshes
10
-1.000000
20
1.000000
30
-0.000000
70
192
0
VERTEX
8
Meshes
62
254
10
0.0
20
0.0
30
0.0
70
128
71
1
72
4
73
3
74
2
0
SEQEND
0
ENDBLK
0
BLOCK
2
Plane_196
8
Meshes
70
64
10
0.0
20
0.0
30
0.0
3
Plane_196
0
POLYLINE
66
1
8
Meshes
70
64
71
4
72
1
0
VERTEX
8
Meshes
10
1.000000
20
1.000000
30
0.000000
70
192
0
VERTEX
8
Meshes
10
1.000000
20
-1.000000
30
0.000000
70
192
0
VERTEX
8
Meshes
10
-1.000000
20
-1.000000
30
-0.000000
70
192
0
VERTEX
8
Meshes
10
-1.000000
20
1.000000
30
-0.000000
70
192
0
VERTEX
8
Meshes
62
254
10
0.0
20
0.0
30
0.0
70
128
71
1
72
4
73
3
74
2
0
SEQEND
0
ENDBLK
0
BLOCK
2
Plane_197
8
Meshes
70
64
10
0.0
20
0.0
30
0.0
3
Plane_197
0
POLYLINE
66
1
8
Meshes
70
64
71
40
72
18
0
VERTEX
8
Meshes
10
2.550014
20
0.669785
30
0.000000
70
192
0
VERTEX
8
Meshes
10
2.550014
20
-1.330215
30
0.000000
70
192
0
VERTEX
8
Meshes
10
-1.038102
20
-1.330215
30
0.000000
70
192
0
VERTEX
8
Meshes
10
-1.038102
20
0.669785
30
-0.000000
70
192
0
VERTEX
8
Meshes
10
2.550014
20
-1.390254
30
0.000000
70
192
0
VERTEX
8
Meshes
10
-1.038102
20
-1.390254
30
0.000000
70
192
0
VERTEX
8
Meshes
10
2.550014
20
0.729824
30
0.000000
70
192
0
VERTEX
8
Meshes
10
-1.038102
20
0.729824
30
-0.000000
70
192
0
VERTEX
8
Meshes
10
-1.098141
20
-1.330215
30
0.000000
70
192
0
VERTEX
8
Meshes
10
-1.098141
20
0.669785
30
-0.000000
70
192
0
VERTEX
8
Meshes
10
-1.098141
20
-1.390254
30
0.000000
70
192
0
VERTEX
8
Meshes
10
-1.098141
20
0.729824
30
-0.000000
70
192
0
VERTEX
8
Meshes
10
2.625063
20
0.669785
30
0.000000
70
192
0
VERTEX
8
Meshes
10
2.625063
20
-1.330215
30
0.000000
70
192
0
VERTEX
8
Meshes
10
2.625063
20
-1.390254
30
0.000000
70
192
0
VERTEX
8
Meshes
10
2.625063
20
0.729824
30
0.000000
70
192
0
VERTEX
8
Meshes
10
0.140179
20
0.758401
30
-0.000000
70
192
0
VERTEX
8
Meshes
10
0.140178
20
-1.409305
30
0.000000
70
192
0
VERTEX
8
Meshes
10
0.140179
20
0.698362
30
-0.000000
70
192
0
VERTEX
8
Meshes
10
0.140178
20
-1.349266
30
0.000000
70
192
0
VERTEX
8
Meshes
10
0.200218
20
0.758401
30
-0.000000
70
192
0
VERTEX
8
Meshes
10
0.200217
20
-1.409305
30
0.000000
70
192
0
VERTEX
8
Meshes
10
0.200218
20
0.698362
30
-0.000000
70
192
0
VERTEX
8
Meshes
10
0.200217
20
-1.349266
30
0.000000
70
192
0
VERTEX
8
Meshes
10
1.343282
20
-1.349266
30
0.000000
70
192
0
VERTEX
8
Meshes
10
1.343282
20
0.698362
30
0.000000
70
192
0
VERTEX
8
Meshes
10
1.343282
20
-1.409305
30
0.000000
70
192
0
VERTEX
8
Meshes
10
1.343282
20
0.758401
30
0.000000
70
192
0
VERTEX
8
Meshes
10
1.283242
20
-1.349266
30
0.000000
70
192
0
VERTEX
8
Meshes
10
1.283243
20
0.698362
30
0.000000
70
192
0
VERTEX
8
Meshes
10
1.283242
20
-1.409305
30
0.000000
70
192
0
VERTEX
8
Meshes
10
1.283243
20
0.758401
30
0.000000
70
192
0
VERTEX
8
Meshes
10
2.613289
20
0.362767
30
0.000000
70
192
0
VERTEX
8
Meshes
10
-1.082256
20
0.360892
30
-0.000000
70
192
0
VERTEX
8
Meshes
10
2.673328
20
0.362822
30
0.000000
70
192
0
VERTEX
8
Meshes
10
-1.142295
20
0.360837
30
-0.000000
70
192
0
VERTEX
8
Meshes
10
2.613344
20
0.302728
30
0.000000
70
192
0
VERTEX
8
Meshes
10
-1.082201
20
0.300853
30
-0.000000
70
192
0
VERTEX
8
Meshes
10
2.673383
20
0.302783
30
0.000000
70
192
0
VERTEX
8
Meshes
10
-1.142240
20
0.300798
30
-0.000000
70
192
0
VERTEX
8
Meshes
62
254
10
0.0
20
0.0
30
0.0
70
128
71
1
72
4
73
3
74
2
0
VERTEX
8
Meshes
62
254
10
0.0
20
0.0
30
0.0
70
128
71
2
72
3
73
6
74
5
0
VERTEX
8
Meshes
62
254
10
0.0
20
0.0
30
0.0
70
128
71
4
72
1
73
7
74
8
0
VERTEX
8
Meshes
62
254
10
0.0
20
0.0
30
0.0
70
128
71
3
72
4
73
10
74
9
0
VERTEX
8
Meshes
62
254
10
0.0
20
0.0
30
0.0
70
128
71
6
72
3
73
9
74
11
0
VERTEX
8
Meshes
62
254
10
0.0
20
0.0
30
0.0
70
128
71
4
72
8
73
12
74
10
0
VERTEX
8
Meshes
62
254
10
0.0
20
0.0
30
0.0
70
128
71
1
72
2
73
14
74
13
0
VERTEX
8
Meshes
62
254
10
0.0
20
0.0
30
0.0
70
128
71
2
72
5
73
15
74
14
0
VERTEX
8
Meshes
62
254
10
0.0
20
0.0
30
0.0
70
128
71
7
72
1
73
13
74
16
0
VERTEX
8
Meshes
62
254
10
0.0
20
0.0
30
0.0
70
128
71
23
72
21
73
17
74
19
0
VERTEX
8
Meshes
62
254
10
0.0
20
0.0
30
0.0
70
128
71
22
72
24
73
20
74
18
0
VERTEX
8
Meshes
62
254
10
0.0
20
0.0
30
0.0
70
128
71
24
72
23
73
19
74
20
0
VERTEX
8
Meshes
62
254
10
0.0
20
0.0
30
0.0
70
128
71
25
72
26
73
30
74
29
0
VERTEX
8
Meshes
62
254
10
0.0
20
0.0
30
0.0
70
128
71
27
72
25
73
29
74
31
0
VERTEX
8
Meshes
62
254
10
0.0
20
0.0
30
0.0
70
128
71
26
72
28
73
32
74
30
0
VERTEX
8
Meshes
62
254
10
0.0
20
0.0
30
0.0
70
128
71
33
72
34
73
38
74
37
0
VERTEX
8
Meshes
62
254
10
0.0
20
0.0
30
0.0
70
128
71
35
72
33
73
37
74
39
0
VERTEX
8
Meshes
62
254
10
0.0
20
0.0
30
0.0
70
128
71
34
72
36
73
40
74
38
0
SEQEND
0
ENDBLK
0
BLOCK
2
Plane_199
8
Meshes
70
64
10
0.0
20
0.0
30
0.0
3
Plane_199
0
POLYLINE
66
1
8
Meshes
70
64
71
4
72
1
0
VERTEX
8
Meshes
10
2.164432
20
2.820762
30
-0.075761
70
192
0
VERTEX
8
Meshes
10
2.171850
20
-2.474854
30
-0.075886
70
192
0
VERTEX
8
Meshes
10
-1.786241
20
-2.474854
30
-0.010202
70
192
0
VERTEX
8
Meshes
10
-1.778594
20
2.820762
30
-0.010327
70
192
0
VERTEX
8
Meshes
62
254
10
0.0
20
0.0
30
0.0
70
128
71
1
72
4
73
3
74
2
0
SEQEND
0
ENDBLK
0
BLOCK
2
Plane_200
8
Meshes
70
64
10
0.0
20
0.0
30
0.0
3
Plane_200
0
POLYLINE
66
1
8
Meshes
70
64
71
16
72
9
0
VERTEX
8
Meshes
10
1.968956
20
0.669785
30
0.000000
70
192
0
VERTEX
8
Meshes
10
1.968956
20
-1.330215
30
0.000000
70
192
0
VERTEX
8
Meshes
10
-1.000000
20
-1.330215
30
0.000000
70
192
0
VERTEX
8
Meshes
10
-1.000000
20
0.669785
30
-0.000000
70
192
0
VERTEX
8
Meshes
10
1.968956
20
-1.390254
30
0.000000
70
192
0
VERTEX
8
Meshes
10
-1.000000
20
-1.390254
30
0.000000
70
192
0
VERTEX
8
Meshes
10
1.968956
20
0.729824
30
0.000000
70
192
0
VERTEX
8
Meshes
10
-1.000000
20
0.729824
30
-0.000000
70
192
0
VERTEX
8
Meshes
10
-1.060039
20
-1.330215
30
0.000000
70
192
0
VERTEX
8
Meshes
10
-1.060039
20
0.669785
30
-0.000000
70
192
0
VERTEX
8
Meshes
10
-1.060039
20
-1.390254
30
0.000000
70
192
0
VERTEX
8
Meshes
10
-1.060039
20
0.729824
30
-0.000000
70
192
0
VERTEX
8
Meshes
10
2.044005
20
0.669785
30
0.000000
70
192
0
VERTEX
8
Meshes
10
2.044005
20
-1.330215
30
0.000000
70
192
0
VERTEX
8
Meshes
10
2.044005
20
-1.390254
30
0.000000
70
192
0
VERTEX
8
Meshes
10
2.044005
20
0.729824
30
0.000000
70
192
0
VERTEX
8
Meshes
62
254
10
0.0
20
0.0
30
0.0
70
128
71
1
72
4
73
3
74
2
0
VERTEX
8
Meshes
62
254
10
0.0
20
0.0
30
0.0
70
128
71
2
72
3
73
6
74
5
0
VERTEX
8
Meshes
62
254
10
0.0
20
0.0
30
0.0
70
128
71
4
72
1
73
7
74
8
0
VERTEX
8
Meshes
62
254
10
0.0
20
0.0
30
0.0
70
128
71
3
72
4
73
10
74
9
0
VERTEX
8
Meshes
62
254
10
0.0
20
0.0
30
0.0
70
128
71
6
72
3
73
9
74
11
0
VERTEX
8
Meshes
62
254
10
0.0
20
0.0
30
0.0
70
128
71
4
72
8
73
12
74
10
0
VERTEX
8
Meshes
62
254
10
0.0
20
0.0
30
0.0
70
128
71
1
72
2
73
14
74
13
0
VERTEX
8
Meshes
62
254
10
0.0
20
0.0
30
0.0
70
128
71
2
72
5
73
15
74
14
0
VERTEX
8
Meshes
62
254
10
0.0
20
0.0
30
0.0
70
128
71
7
72
1
73
13
74
16
0
SEQEND
0
ENDBLK
0
BLOCK
2
Plane_201
8
Meshes
70
64
10
0.0
20
0.0
30
0.0
3
Plane_201
0
POLYLINE
66
1
8
Meshes
70
64
71
16
72
9
0
VERTEX
8
Meshes
10
0.332904
20
0.669785
30
-0.000000
70
192
0
VERTEX
8
Meshes
10
0.332904
20
-1.330215
30
0.000000
70
192
0
VERTEX
8
Meshes
10
-1.000000
20
-1.330215
30
0.000000
70
192
0
VERTEX
8
Meshes
10
-1.000000
20
0.669785
30
-0.000000
70
192
0
VERTEX
8
Meshes
10
0.332904
20
-1.390254
30
0.000000
70
192
0
VERTEX
8
Meshes
10
-1.000000
20
-1.390254
30
0.000000
70
192
0
VERTEX
8
Meshes
10
0.332904
20
0.729824
30
-0.000000
70
192
0
VERTEX
8
Meshes
10
-1.000000
20
0.729824
30
-0.000000
70
192
0
VERTEX
8
Meshes
10
-1.060039
20
-1.330215
30
0.000000
70
192
0
VERTEX
8
Meshes
10
-1.060039
20
0.669785
30
-0.000000
70
192
0
VERTEX
8
Meshes
10
-1.060039
20
-1.390254
30
0.000000
70
192
0
VERTEX
8
Meshes
10
-1.060039
20
0.729824
30
-0.000000
70
192
0
VERTEX
8
Meshes
10
0.407953
20
0.669785
30
-0.000000
70
192
0
VERTEX
8
Meshes
10
0.407953
20
-1.330215
30
0.000000
70
192
0
VERTEX
8
Meshes
10
0.407953
20
-1.390254
30
0.000000
70
192
0
VERTEX
8
Meshes
10
0.407953
20
0.729824
30
-0.000000
70
192
0
VERTEX
8
Meshes
62
254
10
0.0
20
0.0
30
0.0
70
128
71
1
72
4
73
3
74
2
0
VERTEX
8
Meshes
62
254
10
0.0
20
0.0
30
0.0
70
128
71
2
72
3
73
6
74
5
0
VERTEX
8
Meshes
62
254
10
0.0
20
0.0
30
0.0
70
128
71
4
72
1
73
7
74
8
0
VERTEX
8
Meshes
62
254
10
0.0
20
0.0
30
0.0
70
128
71
3
72
4
73
10
74
9
0
VERTEX
8
Meshes
62
254
10
0.0
20
0.0
30
0.0
70
128
71
6
72
3
73
9
74
11
0
VERTEX
8
Meshes
62
254
10
0.0
20
0.0
30
0.0
70
128
71
4
72
8
73
12
74
10
0
VERTEX
8
Meshes
62
254
10
0.0
20
0.0
30
0.0
70
128
71
1
72
2
73
14
74
13
0
VERTEX
8
Meshes
62
254
10
0.0
20
0.0
30
0.0
70
128
71
2
72
5
73
15
74
14
0
VERTEX
8
Meshes
62
254
10
0.0
20
0.0
30
0.0
70
128
71
7
72
1
73
13
74
16
0
SEQEND
0
ENDBLK
0
BLOCK
2
Plane_202
8
Meshes
70
64
10
0.0
20
0.0
30
0.0
3
Plane_202
0
POLYLINE
66
1
8
Meshes
70
64
71
4
72
1
0
VERTEX
8
Meshes
10
1.000000
20
1.000000
30
0.000000
70
192
0
VERTEX
8
Meshes
10
1.000000
20
-1.000000
30
0.000000
70
192
0
VERTEX
8
Meshes
10
-1.000000
20
-1.000000
30
-0.000000
70
192
0
VERTEX
8
Meshes
10
-1.000000
20
1.000000
30
-0.000000
70
192
0
VERTEX
8
Meshes
62
254
10
0.0
20
0.0
30
0.0
70
128
71
1
72
4
73
3
74
2
0
SEQEND
0
ENDBLK
0
BLOCK
2
Plane_203
8
Meshes
70
64
10
0.0
20
0.0
30
0.0
3
Plane_203
0
POLYLINE
66
1
8
Meshes
70
64
71
4
72
1
0
VERTEX
8
Meshes
10
1.000000
20
1.000000
30
0.000000
70
192
0
VERTEX
8
Meshes
10
1.000000
20
-1.000000
30
0.000000
70
192
0
VERTEX
8
Meshes
10
-1.000000
20
-1.000000
30
-0.000000
70
192
0
VERTEX
8
Meshes
10
-1.000000
20
1.000000
30
-0.000000
70
192
0
VERTEX
8
Meshes
62
254
10
0.0
20
0.0
30
0.0
70
128
71
1
72
4
73
3
74
2
0
SEQEND
0
ENDBLK
0
BLOCK
2
Plane_205
8
Meshes
70
64
10
0.0
20
0.0
30
0.0
3
Plane_205
0
POLYLINE
66
1
8
Meshes
70
64
71
4
72
1
0
VERTEX
8
Meshes
10
1.000000
20
1.000000
30
0.000000
70
192
0
VERTEX
8
Meshes
10
1.000000
20
-1.000000
30
0.000000
70
192
0
VERTEX
8
Meshes
10
-1.000000
20
-1.000000
30
-0.000000
70
192
0
VERTEX
8
Meshes
10
-1.000000
20
1.000000
30
-0.000000
70
192
0
VERTEX
8
Meshes
62
254
10
0.0
20
0.0
30
0.0
70
128
71
1
72
4
73
3
74
2
0
SEQEND
0
ENDBLK
0
BLOCK
2
Plane_207
8
Meshes
70
64
10
0.0
20
0.0
30
0.0
3
Plane_207
0
POLYLINE
66
1
8
Meshes
70
64
71
4
72
1
0
VERTEX
8
Meshes
10
1.000000
20
1.000000
30
0.000000
70
192
0
VERTEX
8
Meshes
10
1.000000
20
-1.000000
30
0.000000
70
192
0
VERTEX
8
Meshes
10
-1.000000
20
-1.000000
30
-0.000000
70
192
0
VERTEX
8
Meshes
10
-1.000000
20
1.000000
30
-0.000000
70
192
0
VERTEX
8
Meshes
62
254
10
0.0
20
0.0
30
0.0
70
128
71
1
72
4
73
3
74
2
0
SEQEND
0
ENDBLK
0
BLOCK
2
Plane_209
8
Meshes
70
64
10
0.0
20
0.0
30
0.0
3
Plane_209
0
POLYLINE
66
1
8
Meshes
70
64
71
4
72
1
0
VERTEX
8
Meshes
10
1.000000
20
1.000000
30
0.000000
70
192
0
VERTEX
8
Meshes
10
1.000000
20
-1.000000
30
0.000000
70
192
0
VERTEX
8
Meshes
10
-1.000000
20
-1.000000
30
-0.000000
70
192
0
VERTEX
8
Meshes
10
-1.000000
20
1.000000
30
-0.000000
70
192
0
VERTEX
8
Meshes
62
254
10
0.0
20
0.0
30
0.0
70
128
71
1
72
4
73
3
74
2
0
SEQEND
0
ENDBLK
0
BLOCK
2
Plane_210
8
Meshes
70
64
10
0.0
20
0.0
30
0.0
3
Plane_210
0
POLYLINE
66
1
8
Meshes
70
64
71
4
72
1
0
VERTEX
8
Meshes
10
1.000000
20
1.000000
30
0.000000
70
192
0
VERTEX
8
Meshes
10
1.000000
20
-1.000000
30
0.000000
70
192
0
VERTEX
8
Meshes
10
-1.000000
20
-1.000000
30
-0.000000
70
192
0
VERTEX
8
Meshes
10
-1.000000
20
1.000000
30
-0.000000
70
192
0
VERTEX
8
Meshes
62
254
10
0.0
20
0.0
30
0.0
70
128
71
1
72
4
73
3
74
2
0
SEQEND
0
ENDBLK
0
BLOCK
2
Plane_212
8
Meshes
70
64
10
0.0
20
0.0
30
0.0
3
Plane_212
0
POLYLINE
66
1
8
Meshes
70
64
71
4
72
1
0
VERTEX
8
Meshes
10
1.000000
20
1.000000
30
0.000000
70
192
0
VERTEX
8
Meshes
10
1.000000
20
-1.000000
30
0.000000
70
192
0
VERTEX
8
Meshes
10
-1.000000
20
-1.000000
30
-0.000000
70
192
0
VERTEX
8
Meshes
10
-1.000000
20
1.000000
30
-0.000000
70
192
0
VERTEX
8
Meshes
62
254
10
0.0
20
0.0
30
0.0
70
128
71
1
72
4
73
3
74
2
0
SEQEND
0
ENDBLK
0
BLOCK
2
Plane_213
8
Meshes
70
64
10
0.0
20
0.0
30
0.0
3
Plane_213
0
POLYLINE
66
1
8
Meshes
70
64
71
0
72
0
0
SEQEND
0
ENDBLK
0
BLOCK
2
praclic
8
Meshes
70
64
10
0.0
20
0.0
30
0.0
3
praclic
0
POLYLINE
66
1
8
Meshes
70
64
71
4
72
1
0
VERTEX
8
Meshes
10
1.000000
20
1.000000
30
0.000000
70
192
0
VERTEX
8
Meshes
10
1.000000
20
-1.000000
30
0.000000
70
192
0
VERTEX
8
Meshes
10
-1.000000
20
-1.000000
30
-0.000000
70
192
0
VERTEX
8
Meshes
10
-1.000000
20
1.000000
30
-0.000000
70
192
0
VERTEX
8
Meshes
62
254
10
0.0
20
0.0
30
0.0
70
128
71
1
72
4
73
3
74
2
0
SEQEND
0
ENDBLK
0
ENDSEC
0
SECTION
2
ENTITIES
0
INSERT
8
1
2
Plane_212
10
0.192650
20
2.472109
30
-0.960005
41
0.090000
42
0.090000
43
0.126799
50
90.000003
0
INSERT
8
1
2
Plane_210
10
0.192633
20
-2.360199
30
2.866156
41
0.090000
42
0.090000
43
0.090000
50
90.000003
0
INSERT
8
1
2
Plane_209
10
0.192650
20
2.233197
30
-0.600972
41
0.077554
42
0.077554
43
0.077554
50
90.000003
0
INSERT
8
1
2
Plane_207
10
0.192650
20
1.014619
30
-0.065456
41
0.090000
42
0.090000
43
0.090000
50
90.000003
0
INSERT
8
1
2
Plane_205
10
0.192650
20
1.037279
30
-0.994494
41
0.090000
42
0.090000
43
0.090000
50
90.000003
0
INSERT
8
1
2
Plane_199
10
-0.000000
20
2.314620
30
-0.762131
41
1.000000
42
1.000000
43
1.000000
50
89.998233
0
INSERT
8
1
2
Plane_200
10
0.064832
20
2.342543
30
-0.334536
41
0.611985
42
0.611985
43
0.611985
50
90.000003
0
INSERT
8
1
2
Plane_201
10
0.064832
20
1.433161
30
-0.334536
41
0.611985
42
0.611985
43
0.611985
50
90.000003
0
INSERT
8
1
2
Plane_202
10
0.192650
20
1.843956
30
-0.571149
41
0.090000
42
0.090000
43
0.126799
50
90.000003
0
INSERT
8
1
2
Plane_203
10
0.192650
20
2.238231
30
-0.065456
41
0.090000
42
0.090000
43
0.090000
50
90.000003
0
ENDSEC
0
EOF
